<svg xmlns="http://www.w3.org/2000/svg" viewBox="0 0 960 688" shape-rendering="crispEdges"><rect x="680" y="128" width="120" height="8" fill="#1A1A1F"/><rect x="672" y="136" width="152" height="8" fill="#1A1A1F"/><rect x="80" y="144" width="40" height="8" fill="#1A1A1F"/><rect x="144" y="144" width="16" height="8" fill="#1A1A1F"/><rect x="672" y="144" width="168" height="8" fill="#1A1A1F"/><rect x="72" y="152" width="56" height="8" fill="#1A1A1F"/><rect x="672" y="152" width="184" height="8" fill="#1A1A1F"/><rect x="80" y="160" width="56" height="8" fill="#1A1A1F"/><rect x="672" y="160" width="192" height="8" fill="#1A1A1F"/><rect x="80" y="168" width="56" height="8" fill="#1A1A1F"/><rect x="664" y="168" width="208" height="8" fill="#1A1A1F"/><rect x="88" y="176" width="56" height="8" fill="#1A1A1F"/><rect x="656" y="176" width="232" height="8" fill="#1A1A1F"/><rect x="88" y="184" width="56" height="8" fill="#1A1A1F"/><rect x="632" y="184" width="264" height="8" fill="#1A1A1F"/><rect x="96" y="192" width="56" height="8" fill="#1A1A1F"/><rect x="624" y="192" width="280" height="8" fill="#1A1A1F"/><rect x="96" y="200" width="56" height="8" fill="#1A1A1F"/><rect x="600" y="200" width="312" height="8" fill="#1A1A1F"/><rect x="104" y="208" width="56" height="8" fill="#1A1A1F"/><rect x="568" y="208" width="344" height="8" fill="#1A1A1F"/><rect x="104" y="216" width="56" height="8" fill="#1A1A1F"/><rect x="528" y="216" width="384" height="8" fill="#1A1A1F"/><rect x="112" y="224" width="56" height="8" fill="#1A1A1F"/><rect x="464" y="224" width="448" height="8" fill="#1A1A1F"/><rect x="112" y="232" width="56" height="8" fill="#1A1A1F"/><rect x="232" y="232" width="680" height="8" fill="#1A1A1F"/><rect x="120" y="240" width="792" height="8" fill="#1A1A1F"/><rect x="120" y="248" width="792" height="8" fill="#1A1A1F"/><rect x="128" y="256" width="784" height="8" fill="#1A1A1F"/><rect x="128" y="264" width="784" height="8" fill="#1A1A1F"/><rect x="128" y="272" width="776" height="8" fill="#1A1A1F"/><rect x="112" y="280" width="784" height="8" fill="#1A1A1F"/><rect x="104" y="288" width="784" height="8" fill="#1A1A1F"/><rect x="96" y="296" width="784" height="8" fill="#1A1A1F"/><rect x="96" y="304" width="776" height="8" fill="#1A1A1F"/><rect x="96" y="312" width="768" height="8" fill="#1A1A1F"/><rect x="96" y="320" width="760" height="8" fill="#1A1A1F"/><rect x="96" y="328" width="736" height="8" fill="#1A1A1F"/><rect x="96" y="336" width="696" height="8" fill="#1A1A1F"/><rect x="96" y="344" width="696" height="8" fill="#1A1A1F"/><rect x="96" y="352" width="704" height="8" fill="#1A1A1F"/><rect x="96" y="360" width="584" height="8" fill="#1A1A1F"/><rect x="696" y="360" width="104" height="8" fill="#1A1A1F"/><rect x="96" y="368" width="568" height="8" fill="#1A1A1F"/><rect x="696" y="368" width="104" height="8" fill="#1A1A1F"/><rect x="96" y="376" width="560" height="8" fill="#1A1A1F"/><rect x="696" y="376" width="104" height="8" fill="#1A1A1F"/><rect x="104" y="384" width="552" height="8" fill="#1A1A1F"/><rect x="696" y="384" width="104" height="8" fill="#1A1A1F"/><rect x="112" y="392" width="536" height="8" fill="#1A1A1F"/><rect x="696" y="392" width="104" height="8" fill="#1A1A1F"/><rect x="120" y="400" width="520" height="8" fill="#1A1A1F"/><rect x="696" y="400" width="104" height="8" fill="#1A1A1F"/><rect x="136" y="408" width="496" height="8" fill="#1A1A1F"/><rect x="696" y="408" width="104" height="8" fill="#1A1A1F"/><rect x="144" y="416" width="480" height="8" fill="#1A1A1F"/><rect x="704" y="416" width="88" height="8" fill="#1A1A1F"/><rect x="152" y="424" width="464" height="8" fill="#1A1A1F"/><rect x="712" y="424" width="72" height="8" fill="#1A1A1F"/><rect x="168" y="432" width="480" height="8" fill="#1A1A1F"/><rect x="728" y="432" width="40" height="8" fill="#1A1A1F"/><rect x="184" y="440" width="472" height="8" fill="#1A1A1F"/><rect x="192" y="448" width="464" height="8" fill="#1A1A1F"/><rect x="192" y="456" width="464" height="8" fill="#1A1A1F"/><rect x="192" y="464" width="72" height="8" fill="#1A1A1F"/><rect x="280" y="464" width="296" height="8" fill="#1A1A1F"/><rect x="584" y="464" width="72" height="8" fill="#1A1A1F"/><rect x="192" y="472" width="72" height="8" fill="#1A1A1F"/><rect x="280" y="472" width="288" height="8" fill="#1A1A1F"/><rect x="584" y="472" width="72" height="8" fill="#1A1A1F"/><rect x="192" y="480" width="72" height="8" fill="#1A1A1F"/><rect x="280" y="480" width="72" height="8" fill="#1A1A1F"/><rect x="408" y="480" width="160" height="8" fill="#1A1A1F"/><rect x="584" y="480" width="72" height="8" fill="#1A1A1F"/><rect x="192" y="488" width="72" height="8" fill="#1A1A1F"/><rect x="280" y="488" width="72" height="8" fill="#1A1A1F"/><rect x="496" y="488" width="72" height="8" fill="#1A1A1F"/><rect x="584" y="488" width="72" height="8" fill="#1A1A1F"/><rect x="192" y="496" width="72" height="8" fill="#1A1A1F"/><rect x="280" y="496" width="72" height="8" fill="#1A1A1F"/><rect x="496" y="496" width="72" height="8" fill="#1A1A1F"/><rect x="584" y="496" width="72" height="8" fill="#1A1A1F"/><rect x="192" y="504" width="72" height="8" fill="#1A1A1F"/><rect x="280" y="504" width="72" height="8" fill="#1A1A1F"/><rect x="496" y="504" width="72" height="8" fill="#1A1A1F"/><rect x="584" y="504" width="72" height="8" fill="#1A1A1F"/><rect x="192" y="512" width="72" height="8" fill="#1A1A1F"/><rect x="280" y="512" width="72" height="8" fill="#1A1A1F"/><rect x="496" y="512" width="72" height="8" fill="#1A1A1F"/><rect x="584" y="512" width="72" height="8" fill="#1A1A1F"/><rect x="192" y="520" width="72" height="8" fill="#1A1A1F"/><rect x="280" y="520" width="72" height="8" fill="#1A1A1F"/><rect x="496" y="520" width="72" height="8" fill="#1A1A1F"/><rect x="584" y="520" width="72" height="8" fill="#1A1A1F"/><rect x="192" y="528" width="72" height="8" fill="#1A1A1F"/><rect x="280" y="528" width="72" height="8" fill="#1A1A1F"/><rect x="496" y="528" width="72" height="8" fill="#1A1A1F"/><rect x="584" y="528" width="72" height="8" fill="#1A1A1F"/><rect x="192" y="536" width="72" height="8" fill="#1A1A1F"/><rect x="280" y="536" width="72" height="8" fill="#1A1A1F"/><rect x="496" y="536" width="72" height="8" fill="#1A1A1F"/><rect x="584" y="536" width="72" height="8" fill="#1A1A1F"/><rect x="192" y="544" width="72" height="8" fill="#1A1A1F"/><rect x="280" y="544" width="72" height="8" fill="#1A1A1F"/><rect x="496" y="544" width="72" height="8" fill="#1A1A1F"/><rect x="584" y="544" width="72" height="8" fill="#1A1A1F"/><rect x="192" y="552" width="72" height="8" fill="#1A1A1F"/><rect x="280" y="552" width="72" height="8" fill="#1A1A1F"/><rect x="496" y="552" width="72" height="8" fill="#1A1A1F"/><rect x="584" y="552" width="72" height="8" fill="#1A1A1F"/><rect x="192" y="560" width="72" height="8" fill="#1A1A1F"/><rect x="280" y="560" width="72" height="8" fill="#1A1A1F"/><rect x="496" y="560" width="72" height="8" fill="#1A1A1F"/><rect x="584" y="560" width="72" height="8" fill="#1A1A1F"/><rect x="192" y="568" width="72" height="8" fill="#1A1A1F"/><rect x="280" y="568" width="72" height="8" fill="#1A1A1F"/><rect x="496" y="568" width="72" height="8" fill="#1A1A1F"/><rect x="584" y="568" width="72" height="8" fill="#1A1A1F"/><rect x="192" y="576" width="72" height="8" fill="#1A1A1F"/><rect x="280" y="576" width="72" height="8" fill="#1A1A1F"/><rect x="496" y="576" width="72" height="8" fill="#1A1A1F"/><rect x="584" y="576" width="72" height="8" fill="#1A1A1F"/><rect x="192" y="584" width="72" height="8" fill="#1A1A1F"/><rect x="280" y="584" width="72" height="8" fill="#1A1A1F"/><rect x="496" y="584" width="72" height="8" fill="#1A1A1F"/><rect x="584" y="584" width="72" height="8" fill="#1A1A1F"/><rect x="192" y="592" width="72" height="8" fill="#1A1A1F"/><rect x="280" y="592" width="72" height="8" fill="#1A1A1F"/><rect x="496" y="592" width="72" height="8" fill="#1A1A1F"/><rect x="584" y="592" width="72" height="8" fill="#1A1A1F"/><rect x="192" y="600" width="72" height="8" fill="#1A1A1F"/><rect x="280" y="600" width="72" height="8" fill="#1A1A1F"/><rect x="496" y="600" width="72" height="8" fill="#1A1A1F"/><rect x="584" y="600" width="72" height="8" fill="#1A1A1F"/><rect x="192" y="608" width="72" height="8" fill="#1A1A1F"/><rect x="280" y="608" width="72" height="8" fill="#1A1A1F"/><rect x="496" y="608" width="72" height="8" fill="#1A1A1F"/><rect x="584" y="608" width="72" height="8" fill="#1A1A1F"/><rect x="192" y="616" width="80" height="8" fill="#1A1A1F"/><rect x="280" y="616" width="80" height="8" fill="#1A1A1F"/><rect x="496" y="616" width="80" height="8" fill="#1A1A1F"/><rect x="584" y="616" width="80" height="8" fill="#1A1A1F"/><rect x="200" y="624" width="64" height="8" fill="#1A1A1F"/><rect x="288" y="624" width="64" height="8" fill="#1A1A1F"/><rect x="504" y="624" width="64" height="8" fill="#1A1A1F"/><rect x="592" y="624" width="64" height="8" fill="#1A1A1F"/></svg>