<svg xmlns="http://www.w3.org/2000/svg" viewBox="0 0 960 720" shape-rendering="crispEdges"><rect x="680" y="128" width="120" height="8" fill="#1A1A1F"/><rect x="672" y="136" width="96" height="8" fill="#1A1A1F"/><rect x="768" y="136" width="32" height="8" fill="#F7F4ED"/><rect x="800" y="136" width="24" height="8" fill="#1A1A1F"/><rect x="80" y="144" width="40" height="8" fill="#1A1A1F"/><rect x="144" y="144" width="16" height="8" fill="#B65D3A"/><rect x="672" y="144" width="8" height="8" fill="#1A1A1F"/><rect x="680" y="144" width="48" height="8" fill="#F7F4ED"/><rect x="728" y="144" width="32" height="8" fill="#D9D5C7"/><rect x="760" y="144" width="8" height="8" fill="#1A1A1F"/><rect x="768" y="144" width="32" height="8" fill="#D9D5C7"/><rect x="800" y="144" width="24" height="8" fill="#F7F4ED"/><rect x="824" y="144" width="16" height="8" fill="#1A1A1F"/><rect x="72" y="152" width="8" height="8" fill="#1A1A1F"/><rect x="80" y="152" width="40" height="8" fill="#F7F4ED"/><rect x="120" y="152" width="8" height="8" fill="#1A1A1F"/><rect x="672" y="152" width="8" height="8" fill="#1A1A1F"/><rect x="680" y="152" width="48" height="8" fill="#F7F4ED"/><rect x="728" y="152" width="32" height="8" fill="#D9D5C7"/><rect x="760" y="152" width="8" height="8" fill="#1A1A1F"/><rect x="768" y="152" width="32" height="8" fill="#F7F4ED"/><rect x="800" y="152" width="24" height="8" fill="#D9D5C7"/><rect x="824" y="152" width="16" height="8" fill="#F7F4ED"/><rect x="840" y="152" width="16" height="8" fill="#1A1A1F"/><rect x="80" y="160" width="8" height="8" fill="#1A1A1F"/><rect x="88" y="160" width="40" height="8" fill="#F7F4ED"/><rect x="128" y="160" width="8" height="8" fill="#1A1A1F"/><rect x="672" y="160" width="8" height="8" fill="#1A1A1F"/><rect x="680" y="160" width="48" height="8" fill="#F7F4ED"/><rect x="728" y="160" width="32" height="8" fill="#D9D5C7"/><rect x="760" y="160" width="8" height="8" fill="#1A1A1F"/><rect x="768" y="160" width="56" height="8" fill="#F7F4ED"/><rect x="824" y="160" width="16" height="8" fill="#D9D5C7"/><rect x="840" y="160" width="16" height="8" fill="#F7F4ED"/><rect x="856" y="160" width="8" height="8" fill="#1A1A1F"/><rect x="80" y="168" width="8" height="8" fill="#1A1A1F"/><rect x="88" y="168" width="40" height="8" fill="#F7F4ED"/><rect x="128" y="168" width="8" height="8" fill="#1A1A1F"/><rect x="664" y="168" width="16" height="8" fill="#1A1A1F"/><rect x="680" y="168" width="48" height="8" fill="#F7F4ED"/><rect x="728" y="168" width="32" height="8" fill="#D9D5C7"/><rect x="760" y="168" width="8" height="8" fill="#1A1A1F"/><rect x="768" y="168" width="72" height="8" fill="#F7F4ED"/><rect x="840" y="168" width="16" height="8" fill="#D9D5C7"/><rect x="856" y="168" width="8" height="8" fill="#F7F4ED"/><rect x="864" y="168" width="8" height="8" fill="#1A1A1F"/><rect x="88" y="176" width="8" height="8" fill="#1A1A1F"/><rect x="96" y="176" width="40" height="8" fill="#F7F4ED"/><rect x="136" y="176" width="8" height="8" fill="#1A1A1F"/><rect x="656" y="176" width="8" height="8" fill="#1A1A1F"/><rect x="664" y="176" width="64" height="8" fill="#F7F4ED"/><rect x="728" y="176" width="32" height="8" fill="#D9D5C7"/><rect x="760" y="176" width="8" height="8" fill="#1A1A1F"/><rect x="768" y="176" width="88" height="8" fill="#F7F4ED"/><rect x="856" y="176" width="8" height="8" fill="#D9D5C7"/><rect x="864" y="176" width="8" height="8" fill="#F7F4ED"/><rect x="872" y="176" width="16" height="8" fill="#1A1A1F"/><rect x="88" y="184" width="8" height="8" fill="#1A1A1F"/><rect x="96" y="184" width="40" height="8" fill="#F7F4ED"/><rect x="136" y="184" width="8" height="8" fill="#1A1A1F"/><rect x="632" y="184" width="24" height="8" fill="#1A1A1F"/><rect x="656" y="184" width="8" height="8" fill="#F7F4ED"/><rect x="664" y="184" width="16" height="8" fill="#D9D5C7"/><rect x="680" y="184" width="48" height="8" fill="#F7F4ED"/><rect x="728" y="184" width="32" height="8" fill="#D9D5C7"/><rect x="760" y="184" width="8" height="8" fill="#1A1A1F"/><rect x="768" y="184" width="96" height="8" fill="#F7F4ED"/><rect x="864" y="184" width="8" height="8" fill="#D9D5C7"/><rect x="872" y="184" width="16" height="8" fill="#F7F4ED"/><rect x="888" y="184" width="8" height="8" fill="#1A1A1F"/><rect x="96" y="192" width="8" height="8" fill="#1A1A1F"/><rect x="104" y="192" width="40" height="8" fill="#F7F4ED"/><rect x="144" y="192" width="8" height="8" fill="#1A1A1F"/><rect x="624" y="192" width="24" height="8" fill="#1A1A1F"/><rect x="648" y="192" width="8" height="8" fill="#F7F4ED"/><rect x="656" y="192" width="8" height="8" fill="#D9D5C7"/><rect x="664" y="192" width="64" height="8" fill="#F7F4ED"/><rect x="728" y="192" width="32" height="8" fill="#D9D5C7"/><rect x="760" y="192" width="8" height="8" fill="#1A1A1F"/><rect x="768" y="192" width="40" height="8" fill="#F7F4ED"/><rect x="808" y="192" width="8" height="8" fill="#B65D3A"/><rect x="816" y="192" width="56" height="8" fill="#F7F4ED"/><rect x="872" y="192" width="16" height="8" fill="#D9D5C7"/><rect x="888" y="192" width="8" height="8" fill="#F7F4ED"/><rect x="896" y="192" width="8" height="8" fill="#1A1A1F"/><rect x="96" y="200" width="8" height="8" fill="#1A1A1F"/><rect x="104" y="200" width="40" height="8" fill="#F7F4ED"/><rect x="144" y="200" width="8" height="8" fill="#1A1A1F"/><rect x="600" y="200" width="24" height="8" fill="#1A1A1F"/><rect x="624" y="200" width="8" height="8" fill="#F7F4ED"/><rect x="632" y="200" width="16" height="8" fill="#1A1A1F"/><rect x="648" y="200" width="8" height="8" fill="#D9D5C7"/><rect x="656" y="200" width="72" height="8" fill="#F7F4ED"/><rect x="728" y="200" width="32" height="8" fill="#D9D5C7"/><rect x="760" y="200" width="8" height="8" fill="#1A1A1F"/><rect x="768" y="200" width="120" height="8" fill="#F7F4ED"/><rect x="888" y="200" width="8" height="8" fill="#D9D5C7"/><rect x="896" y="200" width="8" height="8" fill="#F7F4ED"/><rect x="904" y="200" width="8" height="8" fill="#1A1A1F"/><rect x="104" y="208" width="8" height="8" fill="#1A1A1F"/><rect x="112" y="208" width="40" height="8" fill="#F7F4ED"/><rect x="152" y="208" width="8" height="8" fill="#1A1A1F"/><rect x="568" y="208" width="32" height="8" fill="#1A1A1F"/><rect x="600" y="208" width="24" height="8" fill="#F7F4ED"/><rect x="624" y="208" width="8" height="8" fill="#D9D5C7"/><rect x="632" y="208" width="16" height="8" fill="#1A1A1F"/><rect x="648" y="208" width="88" height="8" fill="#F7F4ED"/><rect x="736" y="208" width="32" height="8" fill="#D9D5C7"/><rect x="768" y="208" width="8" height="8" fill="#1A1A1F"/><rect x="776" y="208" width="40" height="8" fill="#F7F4ED"/><rect x="816" y="208" width="16" height="8" fill="#1A1A1F"/><rect x="832" y="208" width="64" height="8" fill="#F7F4ED"/><rect x="896" y="208" width="8" height="8" fill="#D9D5C7"/><rect x="904" y="208" width="8" height="8" fill="#1A1A1F"/><rect x="104" y="216" width="8" height="8" fill="#1A1A1F"/><rect x="112" y="216" width="40" height="8" fill="#F7F4ED"/><rect x="152" y="216" width="8" height="8" fill="#1A1A1F"/><rect x="528" y="216" width="40" height="8" fill="#1A1A1F"/><rect x="568" y="216" width="32" height="8" fill="#F7F4ED"/><rect x="600" y="216" width="24" height="8" fill="#D9D5C7"/><rect x="624" y="216" width="8" height="8" fill="#F7F4ED"/><rect x="632" y="216" width="16" height="8" fill="#1A1A1F"/><rect x="648" y="216" width="88" height="8" fill="#F7F4ED"/><rect x="736" y="216" width="32" height="8" fill="#D9D5C7"/><rect x="768" y="216" width="8" height="8" fill="#1A1A1F"/><rect x="776" y="216" width="128" height="8" fill="#F7F4ED"/><rect x="904" y="216" width="8" height="8" fill="#1A1A1F"/><rect x="112" y="224" width="8" height="8" fill="#1A1A1F"/><rect x="120" y="224" width="40" height="8" fill="#F7F4ED"/><rect x="160" y="224" width="8" height="8" fill="#1A1A1F"/><rect x="464" y="224" width="64" height="8" fill="#1A1A1F"/><rect x="528" y="224" width="40" height="8" fill="#F7F4ED"/><rect x="568" y="224" width="32" height="8" fill="#D9D5C7"/><rect x="600" y="224" width="32" height="8" fill="#F7F4ED"/><rect x="632" y="224" width="16" height="8" fill="#1A1A1F"/><rect x="648" y="224" width="88" height="8" fill="#F7F4ED"/><rect x="736" y="224" width="32" height="8" fill="#D9D5C7"/><rect x="768" y="224" width="8" height="8" fill="#1A1A1F"/><rect x="776" y="224" width="112" height="8" fill="#F7F4ED"/><rect x="888" y="224" width="24" height="8" fill="#1A1A1F"/><rect x="112" y="232" width="8" height="8" fill="#1A1A1F"/><rect x="120" y="232" width="40" height="8" fill="#F7F4ED"/><rect x="160" y="232" width="8" height="8" fill="#1A1A1F"/><rect x="232" y="232" width="232" height="8" fill="#1A1A1F"/><rect x="464" y="232" width="64" height="8" fill="#F7F4ED"/><rect x="528" y="232" width="40" height="8" fill="#D9D5C7"/><rect x="568" y="232" width="64" height="8" fill="#F7F4ED"/><rect x="632" y="232" width="16" height="8" fill="#1A1A1F"/><rect x="648" y="232" width="88" height="8" fill="#F7F4ED"/><rect x="736" y="232" width="32" height="8" fill="#D9D5C7"/><rect x="768" y="232" width="8" height="8" fill="#1A1A1F"/><rect x="776" y="232" width="120" height="8" fill="#F7F4ED"/><rect x="896" y="232" width="16" height="8" fill="#1A1A1F"/><rect x="120" y="240" width="8" height="8" fill="#1A1A1F"/><rect x="128" y="240" width="40" height="8" fill="#F7F4ED"/><rect x="168" y="240" width="64" height="8" fill="#1A1A1F"/><rect x="232" y="240" width="232" height="8" fill="#F7F4ED"/><rect x="464" y="240" width="64" height="8" fill="#D9D5C7"/><rect x="528" y="240" width="104" height="8" fill="#F7F4ED"/><rect x="632" y="240" width="16" height="8" fill="#1A1A1F"/><rect x="648" y="240" width="88" height="8" fill="#F7F4ED"/><rect x="736" y="240" width="32" height="8" fill="#D9D5C7"/><rect x="768" y="240" width="8" height="8" fill="#1A1A1F"/><rect x="776" y="240" width="112" height="8" fill="#F7F4ED"/><rect x="888" y="240" width="16" height="8" fill="#D9D5C7"/><rect x="904" y="240" width="8" height="8" fill="#1A1A1F"/><rect x="120" y="248" width="8" height="8" fill="#1A1A1F"/><rect x="128" y="248" width="104" height="8" fill="#F7F4ED"/><rect x="232" y="248" width="232" height="8" fill="#D9D5C7"/><rect x="464" y="248" width="168" height="8" fill="#F7F4ED"/><rect x="632" y="248" width="16" height="8" fill="#1A1A1F"/><rect x="648" y="248" width="88" height="8" fill="#F7F4ED"/><rect x="736" y="248" width="32" height="8" fill="#D9D5C7"/><rect x="768" y="248" width="8" height="8" fill="#1A1A1F"/><rect x="776" y="248" width="104" height="8" fill="#F7F4ED"/><rect x="880" y="248" width="24" height="8" fill="#D9D5C7"/><rect x="904" y="248" width="8" height="8" fill="#1A1A1F"/><rect x="128" y="256" width="8" height="8" fill="#1A1A1F"/><rect x="136" y="256" width="40" height="8" fill="#F7F4ED"/><rect x="176" y="256" width="56" height="8" fill="#D9D5C7"/><rect x="232" y="256" width="400" height="8" fill="#F7F4ED"/><rect x="632" y="256" width="16" height="8" fill="#1A1A1F"/><rect x="648" y="256" width="88" height="8" fill="#F7F4ED"/><rect x="736" y="256" width="32" height="8" fill="#D9D5C7"/><rect x="768" y="256" width="8" height="8" fill="#1A1A1F"/><rect x="776" y="256" width="64" height="8" fill="#F7F4ED"/><rect x="840" y="256" width="56" height="8" fill="#1A1A1F"/><rect x="896" y="256" width="8" height="8" fill="#D9D5C7"/><rect x="904" y="256" width="8" height="8" fill="#1A1A1F"/><rect x="128" y="264" width="8" height="8" fill="#1A1A1F"/><rect x="136" y="264" width="496" height="8" fill="#F7F4ED"/><rect x="632" y="264" width="16" height="8" fill="#1A1A1F"/><rect x="648" y="264" width="88" height="8" fill="#F7F4ED"/><rect x="736" y="264" width="32" height="8" fill="#D9D5C7"/><rect x="768" y="264" width="8" height="8" fill="#1A1A1F"/><rect x="776" y="264" width="88" height="8" fill="#F7F4ED"/><rect x="864" y="264" width="40" height="8" fill="#D9D5C7"/><rect x="904" y="264" width="8" height="8" fill="#1A1A1F"/><rect x="128" y="272" width="8" height="8" fill="#1A1A1F"/><rect x="136" y="272" width="496" height="8" fill="#F7F4ED"/><rect x="632" y="272" width="16" height="8" fill="#1A1A1F"/><rect x="648" y="272" width="88" height="8" fill="#F7F4ED"/><rect x="736" y="272" width="32" height="8" fill="#D9D5C7"/><rect x="768" y="272" width="8" height="8" fill="#1A1A1F"/><rect x="776" y="272" width="80" height="8" fill="#F7F4ED"/><rect x="856" y="272" width="40" height="8" fill="#D9D5C7"/><rect x="896" y="272" width="8" height="8" fill="#1A1A1F"/><rect x="112" y="280" width="16" height="8" fill="#1A1A1F"/><rect x="128" y="280" width="8" height="8" fill="#F7F4ED"/><rect x="136" y="280" width="8" height="8" fill="#D9D5C7"/><rect x="144" y="280" width="488" height="8" fill="#F7F4ED"/><rect x="632" y="280" width="16" height="8" fill="#1A1A1F"/><rect x="648" y="280" width="96" height="8" fill="#F7F4ED"/><rect x="744" y="280" width="32" height="8" fill="#D9D5C7"/><rect x="776" y="280" width="8" height="8" fill="#1A1A1F"/><rect x="784" y="280" width="48" height="8" fill="#F7F4ED"/><rect x="832" y="280" width="56" height="8" fill="#D9D5C7"/><rect x="888" y="280" width="8" height="8" fill="#1A1A1F"/><rect x="104" y="288" width="8" height="8" fill="#1A1A1F"/><rect x="112" y="288" width="16" height="8" fill="#F7F4ED"/><rect x="128" y="288" width="8" height="8" fill="#D9D5C7"/><rect x="136" y="288" width="496" height="8" fill="#F7F4ED"/><rect x="632" y="288" width="16" height="8" fill="#1A1A1F"/><rect x="648" y="288" width="96" height="8" fill="#F7F4ED"/><rect x="744" y="288" width="32" height="8" fill="#D9D5C7"/><rect x="776" y="288" width="8" height="8" fill="#1A1A1F"/><rect x="784" y="288" width="8" height="8" fill="#F7F4ED"/><rect x="792" y="288" width="88" height="8" fill="#D9D5C7"/><rect x="880" y="288" width="8" height="8" fill="#1A1A1F"/><rect x="96" y="296" width="8" height="8" fill="#1A1A1F"/><rect x="104" y="296" width="8" height="8" fill="#F7F4ED"/><rect x="112" y="296" width="16" height="8" fill="#D9D5C7"/><rect x="128" y="296" width="504" height="8" fill="#F7F4ED"/><rect x="632" y="296" width="16" height="8" fill="#1A1A1F"/><rect x="648" y="296" width="96" height="8" fill="#F7F4ED"/><rect x="744" y="296" width="32" height="8" fill="#D9D5C7"/><rect x="776" y="296" width="8" height="8" fill="#1A1A1F"/><rect x="784" y="296" width="88" height="8" fill="#D9D5C7"/><rect x="872" y="296" width="8" height="8" fill="#1A1A1F"/><rect x="96" y="304" width="8" height="8" fill="#1A1A1F"/><rect x="104" y="304" width="8" height="8" fill="#D9D5C7"/><rect x="112" y="304" width="520" height="8" fill="#F7F4ED"/><rect x="632" y="304" width="16" height="8" fill="#1A1A1F"/><rect x="648" y="304" width="96" height="8" fill="#F7F4ED"/><rect x="744" y="304" width="32" height="8" fill="#D9D5C7"/><rect x="776" y="304" width="8" height="8" fill="#1A1A1F"/><rect x="784" y="304" width="80" height="8" fill="#D9D5C7"/><rect x="864" y="304" width="8" height="8" fill="#1A1A1F"/><rect x="96" y="312" width="8" height="8" fill="#1A1A1F"/><rect x="104" y="312" width="528" height="8" fill="#F7F4ED"/><rect x="632" y="312" width="16" height="8" fill="#1A1A1F"/><rect x="648" y="312" width="32" height="8" fill="#F7F4ED"/><rect x="680" y="312" width="16" height="8" fill="#D9D5C7"/><rect x="696" y="312" width="48" height="8" fill="#F7F4ED"/><rect x="744" y="312" width="32" height="8" fill="#D9D5C7"/><rect x="776" y="312" width="8" height="8" fill="#1A1A1F"/><rect x="784" y="312" width="72" height="8" fill="#D9D5C7"/><rect x="856" y="312" width="8" height="8" fill="#1A1A1F"/><rect x="96" y="320" width="8" height="8" fill="#1A1A1F"/><rect x="104" y="320" width="528" height="8" fill="#F7F4ED"/><rect x="632" y="320" width="16" height="8" fill="#1A1A1F"/><rect x="648" y="320" width="16" height="8" fill="#F7F4ED"/><rect x="664" y="320" width="32" height="8" fill="#D9D5C7"/><rect x="696" y="320" width="48" height="8" fill="#F7F4ED"/><rect x="744" y="320" width="32" height="8" fill="#D9D5C7"/><rect x="776" y="320" width="80" height="8" fill="#1A1A1F"/><rect x="96" y="328" width="8" height="8" fill="#1A1A1F"/><rect x="104" y="328" width="288" height="8" fill="#F7F4ED"/><rect x="392" y="328" width="120" height="8" fill="#1A1A1F"/><rect x="512" y="328" width="120" height="8" fill="#F7F4ED"/><rect x="632" y="328" width="16" height="8" fill="#1A1A1F"/><rect x="648" y="328" width="8" height="8" fill="#F7F4ED"/><rect x="656" y="328" width="40" height="8" fill="#D9D5C7"/><rect x="696" y="328" width="48" height="8" fill="#F7F4ED"/><rect x="744" y="328" width="32" height="8" fill="#D9D5C7"/><rect x="776" y="328" width="8" height="8" fill="#1A1A1F"/><rect x="784" y="328" width="8" height="8" fill="#D9D5C7"/><rect x="792" y="328" width="40" height="8" fill="#1A1A1F"/><rect x="96" y="336" width="8" height="8" fill="#1A1A1F"/><rect x="104" y="336" width="288" height="8" fill="#F7F4ED"/><rect x="392" y="336" width="8" height="8" fill="#1A1A1F"/><rect x="400" y="336" width="104" height="8" fill="#F7F4ED"/><rect x="504" y="336" width="8" height="8" fill="#1A1A1F"/><rect x="512" y="336" width="120" height="8" fill="#F7F4ED"/><rect x="632" y="336" width="16" height="8" fill="#1A1A1F"/><rect x="648" y="336" width="48" height="8" fill="#D9D5C7"/><rect x="696" y="336" width="48" height="8" fill="#F7F4ED"/><rect x="744" y="336" width="32" height="8" fill="#D9D5C7"/><rect x="776" y="336" width="16" height="8" fill="#1A1A1F"/><rect x="96" y="344" width="8" height="8" fill="#1A1A1F"/><rect x="104" y="344" width="8" height="8" fill="#D9D5C7"/><rect x="112" y="344" width="280" height="8" fill="#F7F4ED"/><rect x="392" y="344" width="8" height="8" fill="#1A1A1F"/><rect x="400" y="344" width="104" height="8" fill="#F7F4ED"/><rect x="504" y="344" width="8" height="8" fill="#1A1A1F"/><rect x="512" y="344" width="120" height="8" fill="#F7F4ED"/><rect x="632" y="344" width="16" height="8" fill="#1A1A1F"/><rect x="648" y="344" width="48" height="8" fill="#D9D5C7"/><rect x="696" y="344" width="48" height="8" fill="#F7F4ED"/><rect x="744" y="344" width="32" height="8" fill="#D9D5C7"/><rect x="776" y="344" width="16" height="8" fill="#1A1A1F"/><rect x="96" y="352" width="8" height="8" fill="#1A1A1F"/><rect x="104" y="352" width="16" height="8" fill="#D9D5C7"/><rect x="120" y="352" width="272" height="8" fill="#F7F4ED"/><rect x="392" y="352" width="8" height="8" fill="#1A1A1F"/><rect x="400" y="352" width="104" height="8" fill="#F7F4ED"/><rect x="504" y="352" width="8" height="8" fill="#1A1A1F"/><rect x="512" y="352" width="128" height="8" fill="#F7F4ED"/><rect x="640" y="352" width="40" height="8" fill="#D9D5C7"/><rect x="680" y="352" width="24" height="8" fill="#1A1A1F"/><rect x="704" y="352" width="48" height="8" fill="#F7F4ED"/><rect x="752" y="352" width="32" height="8" fill="#D9D5C7"/><rect x="784" y="352" width="16" height="8" fill="#1A1A1F"/><rect x="96" y="360" width="8" height="8" fill="#1A1A1F"/><rect x="104" y="360" width="32" height="8" fill="#D9D5C7"/><rect x="136" y="360" width="256" height="8" fill="#F7F4ED"/><rect x="392" y="360" width="8" height="8" fill="#1A1A1F"/><rect x="400" y="360" width="104" height="8" fill="#F7F4ED"/><rect x="504" y="360" width="8" height="8" fill="#1A1A1F"/><rect x="512" y="360" width="120" height="8" fill="#F7F4ED"/><rect x="632" y="360" width="16" height="8" fill="#B65D3A"/><rect x="648" y="360" width="16" height="8" fill="#D9D5C7"/><rect x="664" y="360" width="16" height="8" fill="#1A1A1F"/><rect x="696" y="360" width="8" height="8" fill="#1A1A1F"/><rect x="704" y="360" width="48" height="8" fill="#F7F4ED"/><rect x="752" y="360" width="32" height="8" fill="#D9D5C7"/><rect x="784" y="360" width="16" height="8" fill="#1A1A1F"/><rect x="96" y="368" width="8" height="8" fill="#1A1A1F"/><rect x="104" y="368" width="40" height="8" fill="#D9D5C7"/><rect x="144" y="368" width="248" height="8" fill="#F7F4ED"/><rect x="392" y="368" width="8" height="8" fill="#1A1A1F"/><rect x="400" y="368" width="104" height="8" fill="#F7F4ED"/><rect x="504" y="368" width="8" height="8" fill="#1A1A1F"/><rect x="512" y="368" width="112" height="8" fill="#F7F4ED"/><rect x="624" y="368" width="8" height="8" fill="#D9D5C7"/><rect x="632" y="368" width="16" height="8" fill="#B65D3A"/><rect x="648" y="368" width="8" height="8" fill="#D9D5C7"/><rect x="656" y="368" width="8" height="8" fill="#1A1A1F"/><rect x="696" y="368" width="8" height="8" fill="#1A1A1F"/><rect x="704" y="368" width="48" height="8" fill="#F7F4ED"/><rect x="752" y="368" width="32" height="8" fill="#D9D5C7"/><rect x="784" y="368" width="16" height="8" fill="#1A1A1F"/><rect x="96" y="376" width="8" height="8" fill="#1A1A1F"/><rect x="104" y="376" width="48" height="8" fill="#D9D5C7"/><rect x="152" y="376" width="240" height="8" fill="#F7F4ED"/><rect x="392" y="376" width="8" height="8" fill="#1A1A1F"/><rect x="400" y="376" width="32" height="8" fill="#F7F4ED"/><rect x="432" y="376" width="16" height="8" fill="#B65D3A"/><rect x="448" y="376" width="16" height="8" fill="#F7F4ED"/><rect x="464" y="376" width="16" height="8" fill="#B65D3A"/><rect x="480" y="376" width="24" height="8" fill="#F7F4ED"/><rect x="504" y="376" width="8" height="8" fill="#1A1A1F"/><rect x="512" y="376" width="104" height="8" fill="#F7F4ED"/><rect x="616" y="376" width="32" height="8" fill="#D9D5C7"/><rect x="648" y="376" width="8" height="8" fill="#1A1A1F"/><rect x="696" y="376" width="8" height="8" fill="#1A1A1F"/><rect x="704" y="376" width="48" height="8" fill="#F7F4ED"/><rect x="752" y="376" width="32" height="8" fill="#D9D5C7"/><rect x="784" y="376" width="16" height="8" fill="#1A1A1F"/><rect x="104" y="384" width="8" height="8" fill="#1A1A1F"/><rect x="112" y="384" width="56" height="8" fill="#D9D5C7"/><rect x="168" y="384" width="224" height="8" fill="#F7F4ED"/><rect x="392" y="384" width="8" height="8" fill="#1A1A1F"/><rect x="400" y="384" width="104" height="8" fill="#F7F4ED"/><rect x="504" y="384" width="8" height="8" fill="#1A1A1F"/><rect x="512" y="384" width="96" height="8" fill="#F7F4ED"/><rect x="608" y="384" width="40" height="8" fill="#D9D5C7"/><rect x="648" y="384" width="8" height="8" fill="#1A1A1F"/><rect x="696" y="384" width="8" height="8" fill="#1A1A1F"/><rect x="704" y="384" width="48" height="8" fill="#F7F4ED"/><rect x="752" y="384" width="32" height="8" fill="#D9D5C7"/><rect x="784" y="384" width="16" height="8" fill="#1A1A1F"/><rect x="112" y="392" width="8" height="8" fill="#1A1A1F"/><rect x="120" y="392" width="64" height="8" fill="#D9D5C7"/><rect x="184" y="392" width="208" height="8" fill="#F7F4ED"/><rect x="392" y="392" width="8" height="8" fill="#1A1A1F"/><rect x="400" y="392" width="104" height="8" fill="#F7F4ED"/><rect x="504" y="392" width="8" height="8" fill="#1A1A1F"/><rect x="512" y="392" width="96" height="8" fill="#F7F4ED"/><rect x="608" y="392" width="32" height="8" fill="#D9D5C7"/><rect x="640" y="392" width="8" height="8" fill="#1A1A1F"/><rect x="696" y="392" width="8" height="8" fill="#1A1A1F"/><rect x="704" y="392" width="48" height="8" fill="#F7F4ED"/><rect x="752" y="392" width="32" height="8" fill="#D9D5C7"/><rect x="784" y="392" width="16" height="8" fill="#1A1A1F"/><rect x="120" y="400" width="16" height="8" fill="#1A1A1F"/><rect x="136" y="400" width="72" height="8" fill="#D9D5C7"/><rect x="208" y="400" width="184" height="8" fill="#F7F4ED"/><rect x="392" y="400" width="8" height="8" fill="#1A1A1F"/><rect x="400" y="400" width="104" height="8" fill="#F7F4ED"/><rect x="504" y="400" width="8" height="8" fill="#1A1A1F"/><rect x="512" y="400" width="88" height="8" fill="#F7F4ED"/><rect x="600" y="400" width="32" height="8" fill="#D9D5C7"/><rect x="632" y="400" width="8" height="8" fill="#1A1A1F"/><rect x="696" y="400" width="8" height="8" fill="#1A1A1F"/><rect x="704" y="400" width="48" height="8" fill="#F7F4ED"/><rect x="752" y="400" width="32" height="8" fill="#D9D5C7"/><rect x="784" y="400" width="16" height="8" fill="#1A1A1F"/><rect x="136" y="408" width="8" height="8" fill="#1A1A1F"/><rect x="144" y="408" width="56" height="8" fill="#D9D5C7"/><rect x="200" y="408" width="40" height="8" fill="#F7F4ED"/><rect x="240" y="408" width="16" height="8" fill="#D9D5C7"/><rect x="256" y="408" width="136" height="8" fill="#F7F4ED"/><rect x="392" y="408" width="8" height="8" fill="#1A1A1F"/><rect x="400" y="408" width="104" height="8" fill="#F7F4ED"/><rect x="504" y="408" width="8" height="8" fill="#1A1A1F"/><rect x="512" y="408" width="80" height="8" fill="#F7F4ED"/><rect x="592" y="408" width="32" height="8" fill="#D9D5C7"/><rect x="624" y="408" width="8" height="8" fill="#1A1A1F"/><rect x="696" y="408" width="8" height="8" fill="#1A1A1F"/><rect x="704" y="408" width="48" height="8" fill="#F7F4ED"/><rect x="752" y="408" width="32" height="8" fill="#D9D5C7"/><rect x="784" y="408" width="16" height="8" fill="#1A1A1F"/><rect x="144" y="416" width="8" height="8" fill="#1A1A1F"/><rect x="152" y="416" width="48" height="8" fill="#D9D5C7"/><rect x="200" y="416" width="40" height="8" fill="#F7F4ED"/><rect x="240" y="416" width="40" height="8" fill="#D9D5C7"/><rect x="280" y="416" width="112" height="8" fill="#F7F4ED"/><rect x="392" y="416" width="8" height="8" fill="#1A1A1F"/><rect x="400" y="416" width="104" height="8" fill="#F7F4ED"/><rect x="504" y="416" width="8" height="8" fill="#1A1A1F"/><rect x="512" y="416" width="64" height="8" fill="#F7F4ED"/><rect x="576" y="416" width="40" height="8" fill="#D9D5C7"/><rect x="616" y="416" width="8" height="8" fill="#1A1A1F"/><rect x="704" y="416" width="8" height="8" fill="#1A1A1F"/><rect x="712" y="416" width="72" height="8" fill="#F7F4ED"/><rect x="784" y="416" width="8" height="8" fill="#1A1A1F"/><rect x="152" y="424" width="16" height="8" fill="#1A1A1F"/><rect x="168" y="424" width="32" height="8" fill="#D9D5C7"/><rect x="200" y="424" width="40" height="8" fill="#F7F4ED"/><rect x="240" y="424" width="96" height="8" fill="#D9D5C7"/><rect x="336" y="424" width="56" height="8" fill="#F7F4ED"/><rect x="392" y="424" width="120" height="8" fill="#1A1A1F"/><rect x="512" y="424" width="40" height="8" fill="#F7F4ED"/><rect x="552" y="424" width="56" height="8" fill="#D9D5C7"/><rect x="608" y="424" width="8" height="8" fill="#1A1A1F"/><rect x="712" y="424" width="16" height="8" fill="#1A1A1F"/><rect x="728" y="424" width="40" height="8" fill="#F7F4ED"/><rect x="768" y="424" width="16" height="8" fill="#1A1A1F"/><rect x="168" y="432" width="16" height="8" fill="#1A1A1F"/><rect x="184" y="432" width="16" height="8" fill="#D9D5C7"/><rect x="200" y="432" width="40" height="8" fill="#F7F4ED"/><rect x="240" y="432" width="48" height="8" fill="#D9D5C7"/><rect x="288" y="432" width="40" height="8" fill="#F7F4ED"/><rect x="328" y="432" width="80" height="8" fill="#D9D5C7"/><rect x="408" y="432" width="96" height="8" fill="#F7F4ED"/><rect x="504" y="432" width="104" height="8" fill="#D9D5C7"/><rect x="608" y="432" width="40" height="8" fill="#1A1A1F"/><rect x="728" y="432" width="40" height="8" fill="#1A1A1F"/><rect x="184" y="440" width="16" height="8" fill="#1A1A1F"/><rect x="200" y="440" width="40" height="8" fill="#F7F4ED"/><rect x="240" y="440" width="48" height="8" fill="#D9D5C7"/><rect x="288" y="440" width="40" height="8" fill="#F7F4ED"/><rect x="328" y="440" width="176" height="8" fill="#D9D5C7"/><rect x="504" y="440" width="40" height="8" fill="#F7F4ED"/><rect x="544" y="440" width="48" height="8" fill="#D9D5C7"/><rect x="592" y="440" width="40" height="8" fill="#F7F4ED"/><rect x="632" y="440" width="16" height="8" fill="#D9D5C7"/><rect x="648" y="440" width="8" height="8" fill="#1A1A1F"/><rect x="192" y="448" width="8" height="8" fill="#1A1A1F"/><rect x="200" y="448" width="40" height="8" fill="#F7F4ED"/><rect x="240" y="448" width="48" height="8" fill="#D9D5C7"/><rect x="288" y="448" width="40" height="8" fill="#F7F4ED"/><rect x="328" y="448" width="176" height="8" fill="#D9D5C7"/><rect x="504" y="448" width="40" height="8" fill="#F7F4ED"/><rect x="544" y="448" width="48" height="8" fill="#D9D5C7"/><rect x="592" y="448" width="40" height="8" fill="#F7F4ED"/><rect x="632" y="448" width="16" height="8" fill="#D9D5C7"/><rect x="648" y="448" width="8" height="8" fill="#1A1A1F"/><rect x="192" y="456" width="8" height="8" fill="#1A1A1F"/><rect x="200" y="456" width="40" height="8" fill="#F7F4ED"/><rect x="240" y="456" width="16" height="8" fill="#D9D5C7"/><rect x="256" y="456" width="24" height="8" fill="#1A1A1F"/><rect x="280" y="456" width="8" height="8" fill="#D9D5C7"/><rect x="288" y="456" width="40" height="8" fill="#F7F4ED"/><rect x="328" y="456" width="176" height="8" fill="#D9D5C7"/><rect x="504" y="456" width="40" height="8" fill="#F7F4ED"/><rect x="544" y="456" width="32" height="8" fill="#D9D5C7"/><rect x="576" y="456" width="16" height="8" fill="#1A1A1F"/><rect x="592" y="456" width="40" height="8" fill="#F7F4ED"/><rect x="632" y="456" width="16" height="8" fill="#D9D5C7"/><rect x="648" y="456" width="8" height="8" fill="#1A1A1F"/><rect x="192" y="464" width="8" height="8" fill="#1A1A1F"/><rect x="200" y="464" width="40" height="8" fill="#F7F4ED"/><rect x="240" y="464" width="16" height="8" fill="#D9D5C7"/><rect x="256" y="464" width="8" height="8" fill="#1A1A1F"/><rect x="280" y="464" width="8" height="8" fill="#1A1A1F"/><rect x="288" y="464" width="40" height="8" fill="#F7F4ED"/><rect x="328" y="464" width="176" height="8" fill="#D9D5C7"/><rect x="504" y="464" width="40" height="8" fill="#F7F4ED"/><rect x="544" y="464" width="16" height="8" fill="#D9D5C7"/><rect x="560" y="464" width="16" height="8" fill="#1A1A1F"/><rect x="584" y="464" width="8" height="8" fill="#1A1A1F"/><rect x="592" y="464" width="40" height="8" fill="#F7F4ED"/><rect x="632" y="464" width="16" height="8" fill="#D9D5C7"/><rect x="648" y="464" width="8" height="8" fill="#1A1A1F"/><rect x="192" y="472" width="8" height="8" fill="#1A1A1F"/><rect x="200" y="472" width="40" height="8" fill="#F7F4ED"/><rect x="240" y="472" width="16" height="8" fill="#D9D5C7"/><rect x="256" y="472" width="8" height="8" fill="#1A1A1F"/><rect x="280" y="472" width="8" height="8" fill="#1A1A1F"/><rect x="288" y="472" width="40" height="8" fill="#F7F4ED"/><rect x="328" y="472" width="16" height="8" fill="#D9D5C7"/><rect x="344" y="472" width="64" height="8" fill="#1A1A1F"/><rect x="408" y="472" width="96" height="8" fill="#D9D5C7"/><rect x="504" y="472" width="40" height="8" fill="#F7F4ED"/><rect x="544" y="472" width="16" height="8" fill="#D9D5C7"/><rect x="560" y="472" width="8" height="8" fill="#1A1A1F"/><rect x="584" y="472" width="8" height="8" fill="#1A1A1F"/><rect x="592" y="472" width="40" height="8" fill="#F7F4ED"/><rect x="632" y="472" width="16" height="8" fill="#D9D5C7"/><rect x="648" y="472" width="8" height="8" fill="#1A1A1F"/><rect x="192" y="480" width="8" height="8" fill="#1A1A1F"/><rect x="200" y="480" width="40" height="8" fill="#F7F4ED"/><rect x="240" y="480" width="16" height="8" fill="#D9D5C7"/><rect x="256" y="480" width="8" height="8" fill="#1A1A1F"/><rect x="280" y="480" width="8" height="8" fill="#1A1A1F"/><rect x="288" y="480" width="40" height="8" fill="#F7F4ED"/><rect x="328" y="480" width="16" height="8" fill="#D9D5C7"/><rect x="344" y="480" width="8" height="8" fill="#1A1A1F"/><rect x="408" y="480" width="96" height="8" fill="#1A1A1F"/><rect x="504" y="480" width="40" height="8" fill="#F7F4ED"/><rect x="544" y="480" width="16" height="8" fill="#D9D5C7"/><rect x="560" y="480" width="8" height="8" fill="#1A1A1F"/><rect x="584" y="480" width="8" height="8" fill="#1A1A1F"/><rect x="592" y="480" width="40" height="8" fill="#F7F4ED"/><rect x="632" y="480" width="16" height="8" fill="#D9D5C7"/><rect x="648" y="480" width="8" height="8" fill="#1A1A1F"/><rect x="192" y="488" width="8" height="8" fill="#1A1A1F"/><rect x="200" y="488" width="40" height="8" fill="#F7F4ED"/><rect x="240" y="488" width="16" height="8" fill="#D9D5C7"/><rect x="256" y="488" width="8" height="8" fill="#1A1A1F"/><rect x="280" y="488" width="8" height="8" fill="#1A1A1F"/><rect x="288" y="488" width="40" height="8" fill="#F7F4ED"/><rect x="328" y="488" width="16" height="8" fill="#D9D5C7"/><rect x="344" y="488" width="8" height="8" fill="#1A1A1F"/><rect x="496" y="488" width="8" height="8" fill="#1A1A1F"/><rect x="504" y="488" width="40" height="8" fill="#F7F4ED"/><rect x="544" y="488" width="16" height="8" fill="#D9D5C7"/><rect x="560" y="488" width="8" height="8" fill="#1A1A1F"/><rect x="584" y="488" width="8" height="8" fill="#1A1A1F"/><rect x="592" y="488" width="40" height="8" fill="#F7F4ED"/><rect x="632" y="488" width="16" height="8" fill="#D9D5C7"/><rect x="648" y="488" width="8" height="8" fill="#1A1A1F"/><rect x="192" y="496" width="8" height="8" fill="#1A1A1F"/><rect x="200" y="496" width="40" height="8" fill="#F7F4ED"/><rect x="240" y="496" width="16" height="8" fill="#D9D5C7"/><rect x="256" y="496" width="8" height="8" fill="#1A1A1F"/><rect x="280" y="496" width="8" height="8" fill="#1A1A1F"/><rect x="288" y="496" width="40" height="8" fill="#F7F4ED"/><rect x="328" y="496" width="16" height="8" fill="#D9D5C7"/><rect x="344" y="496" width="8" height="8" fill="#1A1A1F"/><rect x="496" y="496" width="8" height="8" fill="#1A1A1F"/><rect x="504" y="496" width="40" height="8" fill="#F7F4ED"/><rect x="544" y="496" width="16" height="8" fill="#D9D5C7"/><rect x="560" y="496" width="8" height="8" fill="#1A1A1F"/><rect x="584" y="496" width="8" height="8" fill="#1A1A1F"/><rect x="592" y="496" width="40" height="8" fill="#F7F4ED"/><rect x="632" y="496" width="16" height="8" fill="#D9D5C7"/><rect x="648" y="496" width="8" height="8" fill="#1A1A1F"/><rect x="192" y="504" width="8" height="8" fill="#1A1A1F"/><rect x="200" y="504" width="40" height="8" fill="#F7F4ED"/><rect x="240" y="504" width="16" height="8" fill="#D9D5C7"/><rect x="256" y="504" width="8" height="8" fill="#1A1A1F"/><rect x="280" y="504" width="8" height="8" fill="#1A1A1F"/><rect x="288" y="504" width="40" height="8" fill="#F7F4ED"/><rect x="328" y="504" width="16" height="8" fill="#D9D5C7"/><rect x="344" y="504" width="8" height="8" fill="#1A1A1F"/><rect x="496" y="504" width="8" height="8" fill="#1A1A1F"/><rect x="504" y="504" width="40" height="8" fill="#F7F4ED"/><rect x="544" y="504" width="16" height="8" fill="#D9D5C7"/><rect x="560" y="504" width="8" height="8" fill="#1A1A1F"/><rect x="584" y="504" width="8" height="8" fill="#1A1A1F"/><rect x="592" y="504" width="40" height="8" fill="#F7F4ED"/><rect x="632" y="504" width="16" height="8" fill="#D9D5C7"/><rect x="648" y="504" width="8" height="8" fill="#1A1A1F"/><rect x="192" y="512" width="8" height="8" fill="#1A1A1F"/><rect x="200" y="512" width="40" height="8" fill="#F7F4ED"/><rect x="240" y="512" width="16" height="8" fill="#D9D5C7"/><rect x="256" y="512" width="8" height="8" fill="#1A1A1F"/><rect x="280" y="512" width="8" height="8" fill="#1A1A1F"/><rect x="288" y="512" width="40" height="8" fill="#F7F4ED"/><rect x="328" y="512" width="16" height="8" fill="#D9D5C7"/><rect x="344" y="512" width="8" height="8" fill="#1A1A1F"/><rect x="496" y="512" width="8" height="8" fill="#1A1A1F"/><rect x="504" y="512" width="40" height="8" fill="#F7F4ED"/><rect x="544" y="512" width="16" height="8" fill="#D9D5C7"/><rect x="560" y="512" width="8" height="8" fill="#1A1A1F"/><rect x="584" y="512" width="8" height="8" fill="#1A1A1F"/><rect x="592" y="512" width="40" height="8" fill="#F7F4ED"/><rect x="632" y="512" width="16" height="8" fill="#D9D5C7"/><rect x="648" y="512" width="8" height="8" fill="#1A1A1F"/><rect x="192" y="520" width="8" height="8" fill="#1A1A1F"/><rect x="200" y="520" width="40" height="8" fill="#F7F4ED"/><rect x="240" y="520" width="16" height="8" fill="#D9D5C7"/><rect x="256" y="520" width="8" height="8" fill="#1A1A1F"/><rect x="280" y="520" width="8" height="8" fill="#1A1A1F"/><rect x="288" y="520" width="40" height="8" fill="#F7F4ED"/><rect x="328" y="520" width="16" height="8" fill="#D9D5C7"/><rect x="344" y="520" width="8" height="8" fill="#1A1A1F"/><rect x="496" y="520" width="8" height="8" fill="#1A1A1F"/><rect x="504" y="520" width="40" height="8" fill="#F7F4ED"/><rect x="544" y="520" width="16" height="8" fill="#D9D5C7"/><rect x="560" y="520" width="8" height="8" fill="#1A1A1F"/><rect x="584" y="520" width="8" height="8" fill="#1A1A1F"/><rect x="592" y="520" width="40" height="8" fill="#F7F4ED"/><rect x="632" y="520" width="16" height="8" fill="#D9D5C7"/><rect x="648" y="520" width="8" height="8" fill="#1A1A1F"/><rect x="192" y="528" width="72" height="8" fill="#1A1A1F"/><rect x="280" y="528" width="8" height="8" fill="#1A1A1F"/><rect x="288" y="528" width="40" height="8" fill="#F7F4ED"/><rect x="328" y="528" width="16" height="8" fill="#D9D5C7"/><rect x="344" y="528" width="8" height="8" fill="#1A1A1F"/><rect x="496" y="528" width="8" height="8" fill="#1A1A1F"/><rect x="504" y="528" width="40" height="8" fill="#F7F4ED"/><rect x="544" y="528" width="16" height="8" fill="#D9D5C7"/><rect x="560" y="528" width="8" height="8" fill="#1A1A1F"/><rect x="584" y="528" width="8" height="8" fill="#1A1A1F"/><rect x="592" y="528" width="40" height="8" fill="#F7F4ED"/><rect x="632" y="528" width="16" height="8" fill="#D9D5C7"/><rect x="648" y="528" width="8" height="8" fill="#1A1A1F"/><rect x="192" y="536" width="8" height="8" fill="#1A1A1F"/><rect x="200" y="536" width="40" height="8" fill="#F7F4ED"/><rect x="240" y="536" width="16" height="8" fill="#D9D5C7"/><rect x="256" y="536" width="8" height="8" fill="#1A1A1F"/><rect x="280" y="536" width="72" height="8" fill="#1A1A1F"/><rect x="496" y="536" width="72" height="8" fill="#1A1A1F"/><rect x="584" y="536" width="72" height="8" fill="#1A1A1F"/><rect x="192" y="544" width="8" height="8" fill="#1A1A1F"/><rect x="200" y="544" width="40" height="8" fill="#F7F4ED"/><rect x="240" y="544" width="16" height="8" fill="#D9D5C7"/><rect x="256" y="544" width="8" height="8" fill="#1A1A1F"/><rect x="280" y="544" width="8" height="8" fill="#1A1A1F"/><rect x="288" y="544" width="40" height="8" fill="#F7F4ED"/><rect x="328" y="544" width="16" height="8" fill="#D9D5C7"/><rect x="344" y="544" width="8" height="8" fill="#1A1A1F"/><rect x="496" y="544" width="8" height="8" fill="#1A1A1F"/><rect x="504" y="544" width="40" height="8" fill="#F7F4ED"/><rect x="544" y="544" width="16" height="8" fill="#D9D5C7"/><rect x="560" y="544" width="8" height="8" fill="#1A1A1F"/><rect x="584" y="544" width="8" height="8" fill="#1A1A1F"/><rect x="592" y="544" width="40" height="8" fill="#F7F4ED"/><rect x="632" y="544" width="16" height="8" fill="#D9D5C7"/><rect x="648" y="544" width="8" height="8" fill="#1A1A1F"/><rect x="192" y="552" width="8" height="8" fill="#1A1A1F"/><rect x="200" y="552" width="40" height="8" fill="#F7F4ED"/><rect x="240" y="552" width="16" height="8" fill="#D9D5C7"/><rect x="256" y="552" width="8" height="8" fill="#1A1A1F"/><rect x="280" y="552" width="8" height="8" fill="#1A1A1F"/><rect x="288" y="552" width="40" height="8" fill="#F7F4ED"/><rect x="328" y="552" width="16" height="8" fill="#D9D5C7"/><rect x="344" y="552" width="8" height="8" fill="#1A1A1F"/><rect x="496" y="552" width="8" height="8" fill="#1A1A1F"/><rect x="504" y="552" width="40" height="8" fill="#F7F4ED"/><rect x="544" y="552" width="16" height="8" fill="#D9D5C7"/><rect x="560" y="552" width="8" height="8" fill="#1A1A1F"/><rect x="584" y="552" width="8" height="8" fill="#1A1A1F"/><rect x="592" y="552" width="40" height="8" fill="#F7F4ED"/><rect x="632" y="552" width="16" height="8" fill="#D9D5C7"/><rect x="648" y="552" width="8" height="8" fill="#1A1A1F"/><rect x="192" y="560" width="8" height="8" fill="#1A1A1F"/><rect x="200" y="560" width="40" height="8" fill="#F7F4ED"/><rect x="240" y="560" width="16" height="8" fill="#D9D5C7"/><rect x="256" y="560" width="8" height="8" fill="#1A1A1F"/><rect x="280" y="560" width="8" height="8" fill="#1A1A1F"/><rect x="288" y="560" width="40" height="8" fill="#F7F4ED"/><rect x="328" y="560" width="16" height="8" fill="#D9D5C7"/><rect x="344" y="560" width="8" height="8" fill="#1A1A1F"/><rect x="496" y="560" width="8" height="8" fill="#1A1A1F"/><rect x="504" y="560" width="40" height="8" fill="#F7F4ED"/><rect x="544" y="560" width="16" height="8" fill="#D9D5C7"/><rect x="560" y="560" width="8" height="8" fill="#1A1A1F"/><rect x="584" y="560" width="8" height="8" fill="#1A1A1F"/><rect x="592" y="560" width="40" height="8" fill="#F7F4ED"/><rect x="632" y="560" width="16" height="8" fill="#D9D5C7"/><rect x="648" y="560" width="8" height="8" fill="#1A1A1F"/><rect x="192" y="568" width="8" height="8" fill="#1A1A1F"/><rect x="200" y="568" width="40" height="8" fill="#F7F4ED"/><rect x="240" y="568" width="16" height="8" fill="#D9D5C7"/><rect x="256" y="568" width="8" height="8" fill="#1A1A1F"/><rect x="280" y="568" width="8" height="8" fill="#1A1A1F"/><rect x="288" y="568" width="40" height="8" fill="#F7F4ED"/><rect x="328" y="568" width="16" height="8" fill="#D9D5C7"/><rect x="344" y="568" width="8" height="8" fill="#1A1A1F"/><rect x="496" y="568" width="8" height="8" fill="#1A1A1F"/><rect x="504" y="568" width="40" height="8" fill="#F7F4ED"/><rect x="544" y="568" width="16" height="8" fill="#D9D5C7"/><rect x="560" y="568" width="8" height="8" fill="#1A1A1F"/><rect x="584" y="568" width="8" height="8" fill="#1A1A1F"/><rect x="592" y="568" width="40" height="8" fill="#F7F4ED"/><rect x="632" y="568" width="16" height="8" fill="#D9D5C7"/><rect x="648" y="568" width="8" height="8" fill="#1A1A1F"/><rect x="192" y="576" width="8" height="8" fill="#1A1A1F"/><rect x="200" y="576" width="40" height="8" fill="#F7F4ED"/><rect x="240" y="576" width="16" height="8" fill="#D9D5C7"/><rect x="256" y="576" width="8" height="8" fill="#1A1A1F"/><rect x="280" y="576" width="8" height="8" fill="#1A1A1F"/><rect x="288" y="576" width="40" height="8" fill="#F7F4ED"/><rect x="328" y="576" width="16" height="8" fill="#D9D5C7"/><rect x="344" y="576" width="8" height="8" fill="#1A1A1F"/><rect x="496" y="576" width="8" height="8" fill="#1A1A1F"/><rect x="504" y="576" width="40" height="8" fill="#F7F4ED"/><rect x="544" y="576" width="16" height="8" fill="#D9D5C7"/><rect x="560" y="576" width="8" height="8" fill="#1A1A1F"/><rect x="584" y="576" width="8" height="8" fill="#1A1A1F"/><rect x="592" y="576" width="40" height="8" fill="#F7F4ED"/><rect x="632" y="576" width="16" height="8" fill="#D9D5C7"/><rect x="648" y="576" width="8" height="8" fill="#1A1A1F"/><rect x="192" y="584" width="8" height="8" fill="#1A1A1F"/><rect x="200" y="584" width="40" height="8" fill="#F7F4ED"/><rect x="240" y="584" width="16" height="8" fill="#D9D5C7"/><rect x="256" y="584" width="8" height="8" fill="#1A1A1F"/><rect x="280" y="584" width="8" height="8" fill="#1A1A1F"/><rect x="288" y="584" width="40" height="8" fill="#F7F4ED"/><rect x="328" y="584" width="16" height="8" fill="#D9D5C7"/><rect x="344" y="584" width="8" height="8" fill="#1A1A1F"/><rect x="496" y="584" width="8" height="8" fill="#1A1A1F"/><rect x="504" y="584" width="40" height="8" fill="#F7F4ED"/><rect x="544" y="584" width="16" height="8" fill="#D9D5C7"/><rect x="560" y="584" width="8" height="8" fill="#1A1A1F"/><rect x="584" y="584" width="8" height="8" fill="#1A1A1F"/><rect x="592" y="584" width="40" height="8" fill="#F7F4ED"/><rect x="632" y="584" width="16" height="8" fill="#D9D5C7"/><rect x="648" y="584" width="8" height="8" fill="#1A1A1F"/><rect x="192" y="592" width="8" height="8" fill="#1A1A1F"/><rect x="200" y="592" width="40" height="8" fill="#F7F4ED"/><rect x="240" y="592" width="16" height="8" fill="#D9D5C7"/><rect x="256" y="592" width="8" height="8" fill="#1A1A1F"/><rect x="280" y="592" width="8" height="8" fill="#1A1A1F"/><rect x="288" y="592" width="40" height="8" fill="#F7F4ED"/><rect x="328" y="592" width="16" height="8" fill="#D9D5C7"/><rect x="344" y="592" width="8" height="8" fill="#1A1A1F"/><rect x="496" y="592" width="8" height="8" fill="#1A1A1F"/><rect x="504" y="592" width="40" height="8" fill="#F7F4ED"/><rect x="544" y="592" width="16" height="8" fill="#D9D5C7"/><rect x="560" y="592" width="8" height="8" fill="#1A1A1F"/><rect x="584" y="592" width="8" height="8" fill="#1A1A1F"/><rect x="592" y="592" width="40" height="8" fill="#F7F4ED"/><rect x="632" y="592" width="16" height="8" fill="#D9D5C7"/><rect x="648" y="592" width="8" height="8" fill="#1A1A1F"/><rect x="192" y="600" width="8" height="8" fill="#1A1A1F"/><rect x="200" y="600" width="40" height="8" fill="#F7F4ED"/><rect x="240" y="600" width="16" height="8" fill="#D9D5C7"/><rect x="256" y="600" width="8" height="8" fill="#1A1A1F"/><rect x="280" y="600" width="8" height="8" fill="#1A1A1F"/><rect x="288" y="600" width="40" height="8" fill="#F7F4ED"/><rect x="328" y="600" width="16" height="8" fill="#D9D5C7"/><rect x="344" y="600" width="8" height="8" fill="#1A1A1F"/><rect x="496" y="600" width="8" height="8" fill="#1A1A1F"/><rect x="504" y="600" width="40" height="8" fill="#F7F4ED"/><rect x="544" y="600" width="16" height="8" fill="#D9D5C7"/><rect x="560" y="600" width="8" height="8" fill="#1A1A1F"/><rect x="584" y="600" width="8" height="8" fill="#1A1A1F"/><rect x="592" y="600" width="40" height="8" fill="#F7F4ED"/><rect x="632" y="600" width="16" height="8" fill="#D9D5C7"/><rect x="648" y="600" width="8" height="8" fill="#1A1A1F"/><rect x="192" y="608" width="8" height="8" fill="#1A1A1F"/><rect x="200" y="608" width="40" height="8" fill="#F7F4ED"/><rect x="240" y="608" width="16" height="8" fill="#D9D5C7"/><rect x="256" y="608" width="8" height="8" fill="#1A1A1F"/><rect x="280" y="608" width="8" height="8" fill="#1A1A1F"/><rect x="288" y="608" width="40" height="8" fill="#F7F4ED"/><rect x="328" y="608" width="16" height="8" fill="#D9D5C7"/><rect x="344" y="608" width="8" height="8" fill="#1A1A1F"/><rect x="496" y="608" width="8" height="8" fill="#1A1A1F"/><rect x="504" y="608" width="40" height="8" fill="#F7F4ED"/><rect x="544" y="608" width="16" height="8" fill="#D9D5C7"/><rect x="560" y="608" width="8" height="8" fill="#1A1A1F"/><rect x="584" y="608" width="8" height="8" fill="#1A1A1F"/><rect x="592" y="608" width="40" height="8" fill="#F7F4ED"/><rect x="632" y="608" width="16" height="8" fill="#D9D5C7"/><rect x="648" y="608" width="8" height="8" fill="#1A1A1F"/><rect x="192" y="616" width="8" height="8" fill="#1A1A1F"/><rect x="200" y="616" width="64" height="8" fill="#F7F4ED"/><rect x="264" y="616" width="8" height="8" fill="#1A1A1F"/><rect x="280" y="616" width="8" height="8" fill="#1A1A1F"/><rect x="288" y="616" width="24" height="8" fill="#F7F4ED"/><rect x="312" y="616" width="8" height="8" fill="#1A1A1F"/><rect x="320" y="616" width="8" height="8" fill="#F7F4ED"/><rect x="328" y="616" width="8" height="8" fill="#1A1A1F"/><rect x="336" y="616" width="16" height="8" fill="#F7F4ED"/><rect x="352" y="616" width="8" height="8" fill="#1A1A1F"/><rect x="496" y="616" width="8" height="8" fill="#1A1A1F"/><rect x="504" y="616" width="64" height="8" fill="#F7F4ED"/><rect x="568" y="616" width="8" height="8" fill="#1A1A1F"/><rect x="584" y="616" width="8" height="8" fill="#1A1A1F"/><rect x="592" y="616" width="64" height="8" fill="#F7F4ED"/><rect x="656" y="616" width="8" height="8" fill="#1A1A1F"/><rect x="200" y="624" width="64" height="8" fill="#1A1A1F"/><rect x="288" y="624" width="64" height="8" fill="#1A1A1F"/><rect x="504" y="624" width="64" height="8" fill="#1A1A1F"/><rect x="592" y="624" width="64" height="8" fill="#1A1A1F"/><rect x="8" y="632" width="944" height="8" fill="#1A1A1F"/></svg>