<svg xmlns="http://www.w3.org/2000/svg" viewBox="0 0 1096 528" shape-rendering="crispEdges"><rect x="504" y="90" width="90" height="6" fill="#1A1A1F"/><rect x="498" y="96" width="72" height="6" fill="#1A1A1F"/><rect x="570" y="96" width="24" height="6" fill="#F7F4ED"/><rect x="594" y="96" width="18" height="6" fill="#1A1A1F"/><rect x="54" y="102" width="30" height="6" fill="#1A1A1F"/><rect x="102" y="102" width="12" height="6" fill="#B65D3A"/><rect x="498" y="102" width="6" height="6" fill="#1A1A1F"/><rect x="504" y="102" width="36" height="6" fill="#F7F4ED"/><rect x="540" y="102" width="24" height="6" fill="#D9D5C7"/><rect x="564" y="102" width="6" height="6" fill="#1A1A1F"/><rect x="570" y="102" width="24" height="6" fill="#D9D5C7"/><rect x="594" y="102" width="18" height="6" fill="#F7F4ED"/><rect x="612" y="102" width="12" height="6" fill="#1A1A1F"/><rect x="48" y="108" width="6" height="6" fill="#1A1A1F"/><rect x="54" y="108" width="30" height="6" fill="#F7F4ED"/><rect x="84" y="108" width="6" height="6" fill="#1A1A1F"/><rect x="498" y="108" width="6" height="6" fill="#1A1A1F"/><rect x="504" y="108" width="36" height="6" fill="#F7F4ED"/><rect x="540" y="108" width="24" height="6" fill="#D9D5C7"/><rect x="564" y="108" width="6" height="6" fill="#1A1A1F"/><rect x="570" y="108" width="24" height="6" fill="#F7F4ED"/><rect x="594" y="108" width="18" height="6" fill="#D9D5C7"/><rect x="612" y="108" width="12" height="6" fill="#F7F4ED"/><rect x="624" y="108" width="12" height="6" fill="#1A1A1F"/><rect x="54" y="114" width="6" height="6" fill="#1A1A1F"/><rect x="60" y="114" width="30" height="6" fill="#F7F4ED"/><rect x="90" y="114" width="6" height="6" fill="#1A1A1F"/><rect x="498" y="114" width="6" height="6" fill="#1A1A1F"/><rect x="504" y="114" width="36" height="6" fill="#F7F4ED"/><rect x="540" y="114" width="24" height="6" fill="#D9D5C7"/><rect x="564" y="114" width="6" height="6" fill="#1A1A1F"/><rect x="570" y="114" width="42" height="6" fill="#F7F4ED"/><rect x="612" y="114" width="12" height="6" fill="#D9D5C7"/><rect x="624" y="114" width="12" height="6" fill="#F7F4ED"/><rect x="636" y="114" width="6" height="6" fill="#1A1A1F"/><rect x="54" y="120" width="6" height="6" fill="#1A1A1F"/><rect x="60" y="120" width="30" height="6" fill="#F7F4ED"/><rect x="90" y="120" width="6" height="6" fill="#1A1A1F"/><rect x="492" y="120" width="12" height="6" fill="#1A1A1F"/><rect x="504" y="120" width="36" height="6" fill="#F7F4ED"/><rect x="540" y="120" width="24" height="6" fill="#D9D5C7"/><rect x="564" y="120" width="6" height="6" fill="#1A1A1F"/><rect x="570" y="120" width="54" height="6" fill="#F7F4ED"/><rect x="624" y="120" width="12" height="6" fill="#D9D5C7"/><rect x="636" y="120" width="6" height="6" fill="#F7F4ED"/><rect x="642" y="120" width="6" height="6" fill="#1A1A1F"/><rect x="60" y="126" width="6" height="6" fill="#1A1A1F"/><rect x="66" y="126" width="30" height="6" fill="#F7F4ED"/><rect x="96" y="126" width="6" height="6" fill="#1A1A1F"/><rect x="486" y="126" width="6" height="6" fill="#1A1A1F"/><rect x="492" y="126" width="48" height="6" fill="#F7F4ED"/><rect x="540" y="126" width="24" height="6" fill="#D9D5C7"/><rect x="564" y="126" width="6" height="6" fill="#1A1A1F"/><rect x="570" y="126" width="66" height="6" fill="#F7F4ED"/><rect x="636" y="126" width="6" height="6" fill="#D9D5C7"/><rect x="642" y="126" width="6" height="6" fill="#F7F4ED"/><rect x="648" y="126" width="12" height="6" fill="#1A1A1F"/><rect x="60" y="132" width="6" height="6" fill="#1A1A1F"/><rect x="66" y="132" width="30" height="6" fill="#F7F4ED"/><rect x="96" y="132" width="6" height="6" fill="#1A1A1F"/><rect x="468" y="132" width="18" height="6" fill="#1A1A1F"/><rect x="486" y="132" width="6" height="6" fill="#F7F4ED"/><rect x="492" y="132" width="12" height="6" fill="#D9D5C7"/><rect x="504" y="132" width="36" height="6" fill="#F7F4ED"/><rect x="540" y="132" width="24" height="6" fill="#D9D5C7"/><rect x="564" y="132" width="6" height="6" fill="#1A1A1F"/><rect x="570" y="132" width="72" height="6" fill="#F7F4ED"/><rect x="642" y="132" width="6" height="6" fill="#D9D5C7"/><rect x="648" y="132" width="12" height="6" fill="#F7F4ED"/><rect x="660" y="132" width="6" height="6" fill="#1A1A1F"/><rect x="66" y="138" width="6" height="6" fill="#1A1A1F"/><rect x="72" y="138" width="30" height="6" fill="#F7F4ED"/><rect x="102" y="138" width="6" height="6" fill="#1A1A1F"/><rect x="462" y="138" width="18" height="6" fill="#1A1A1F"/><rect x="480" y="138" width="6" height="6" fill="#F7F4ED"/><rect x="486" y="138" width="6" height="6" fill="#D9D5C7"/><rect x="492" y="138" width="48" height="6" fill="#F7F4ED"/><rect x="540" y="138" width="24" height="6" fill="#D9D5C7"/><rect x="564" y="138" width="6" height="6" fill="#1A1A1F"/><rect x="570" y="138" width="30" height="6" fill="#F7F4ED"/><rect x="600" y="138" width="6" height="6" fill="#B65D3A"/><rect x="606" y="138" width="42" height="6" fill="#F7F4ED"/><rect x="648" y="138" width="12" height="6" fill="#D9D5C7"/><rect x="660" y="138" width="6" height="6" fill="#F7F4ED"/><rect x="666" y="138" width="6" height="6" fill="#1A1A1F"/><rect x="66" y="144" width="6" height="6" fill="#1A1A1F"/><rect x="72" y="144" width="30" height="6" fill="#F7F4ED"/><rect x="102" y="144" width="6" height="6" fill="#1A1A1F"/><rect x="444" y="144" width="18" height="6" fill="#1A1A1F"/><rect x="462" y="144" width="6" height="6" fill="#F7F4ED"/><rect x="468" y="144" width="12" height="6" fill="#1A1A1F"/><rect x="480" y="144" width="6" height="6" fill="#D9D5C7"/><rect x="486" y="144" width="54" height="6" fill="#F7F4ED"/><rect x="540" y="144" width="24" height="6" fill="#D9D5C7"/><rect x="564" y="144" width="6" height="6" fill="#1A1A1F"/><rect x="570" y="144" width="90" height="6" fill="#F7F4ED"/><rect x="660" y="144" width="6" height="6" fill="#D9D5C7"/><rect x="666" y="144" width="6" height="6" fill="#F7F4ED"/><rect x="672" y="144" width="6" height="6" fill="#1A1A1F"/><rect x="72" y="150" width="6" height="6" fill="#1A1A1F"/><rect x="78" y="150" width="30" height="6" fill="#F7F4ED"/><rect x="108" y="150" width="6" height="6" fill="#1A1A1F"/><rect x="420" y="150" width="24" height="6" fill="#1A1A1F"/><rect x="444" y="150" width="18" height="6" fill="#F7F4ED"/><rect x="462" y="150" width="6" height="6" fill="#D9D5C7"/><rect x="468" y="150" width="12" height="6" fill="#1A1A1F"/><rect x="480" y="150" width="66" height="6" fill="#F7F4ED"/><rect x="546" y="150" width="24" height="6" fill="#D9D5C7"/><rect x="570" y="150" width="6" height="6" fill="#1A1A1F"/><rect x="576" y="150" width="30" height="6" fill="#F7F4ED"/><rect x="606" y="150" width="12" height="6" fill="#1A1A1F"/><rect x="618" y="150" width="48" height="6" fill="#F7F4ED"/><rect x="666" y="150" width="6" height="6" fill="#D9D5C7"/><rect x="672" y="150" width="6" height="6" fill="#1A1A1F"/><rect x="72" y="156" width="6" height="6" fill="#1A1A1F"/><rect x="78" y="156" width="30" height="6" fill="#F7F4ED"/><rect x="108" y="156" width="6" height="6" fill="#1A1A1F"/><rect x="390" y="156" width="30" height="6" fill="#1A1A1F"/><rect x="420" y="156" width="24" height="6" fill="#F7F4ED"/><rect x="444" y="156" width="18" height="6" fill="#D9D5C7"/><rect x="462" y="156" width="6" height="6" fill="#F7F4ED"/><rect x="468" y="156" width="12" height="6" fill="#1A1A1F"/><rect x="480" y="156" width="66" height="6" fill="#F7F4ED"/><rect x="546" y="156" width="24" height="6" fill="#D9D5C7"/><rect x="570" y="156" width="6" height="6" fill="#1A1A1F"/><rect x="576" y="156" width="96" height="6" fill="#F7F4ED"/><rect x="672" y="156" width="6" height="6" fill="#1A1A1F"/><rect x="78" y="162" width="6" height="6" fill="#1A1A1F"/><rect x="84" y="162" width="30" height="6" fill="#F7F4ED"/><rect x="114" y="162" width="6" height="6" fill="#1A1A1F"/><rect x="342" y="162" width="48" height="6" fill="#1A1A1F"/><rect x="390" y="162" width="30" height="6" fill="#F7F4ED"/><rect x="420" y="162" width="24" height="6" fill="#D9D5C7"/><rect x="444" y="162" width="24" height="6" fill="#F7F4ED"/><rect x="468" y="162" width="12" height="6" fill="#1A1A1F"/><rect x="480" y="162" width="66" height="6" fill="#F7F4ED"/><rect x="546" y="162" width="24" height="6" fill="#D9D5C7"/><rect x="570" y="162" width="6" height="6" fill="#1A1A1F"/><rect x="576" y="162" width="84" height="6" fill="#F7F4ED"/><rect x="660" y="162" width="18" height="6" fill="#1A1A1F"/><rect x="78" y="168" width="6" height="6" fill="#1A1A1F"/><rect x="84" y="168" width="30" height="6" fill="#F7F4ED"/><rect x="114" y="168" width="6" height="6" fill="#1A1A1F"/><rect x="168" y="168" width="174" height="6" fill="#1A1A1F"/><rect x="342" y="168" width="48" height="6" fill="#F7F4ED"/><rect x="390" y="168" width="30" height="6" fill="#D9D5C7"/><rect x="420" y="168" width="48" height="6" fill="#F7F4ED"/><rect x="468" y="168" width="12" height="6" fill="#1A1A1F"/><rect x="480" y="168" width="66" height="6" fill="#F7F4ED"/><rect x="546" y="168" width="24" height="6" fill="#D9D5C7"/><rect x="570" y="168" width="6" height="6" fill="#1A1A1F"/><rect x="576" y="168" width="90" height="6" fill="#F7F4ED"/><rect x="666" y="168" width="12" height="6" fill="#1A1A1F"/><rect x="84" y="174" width="6" height="6" fill="#1A1A1F"/><rect x="90" y="174" width="30" height="6" fill="#F7F4ED"/><rect x="120" y="174" width="48" height="6" fill="#1A1A1F"/><rect x="168" y="174" width="174" height="6" fill="#F7F4ED"/><rect x="342" y="174" width="48" height="6" fill="#D9D5C7"/><rect x="390" y="174" width="78" height="6" fill="#F7F4ED"/><rect x="468" y="174" width="12" height="6" fill="#1A1A1F"/><rect x="480" y="174" width="66" height="6" fill="#F7F4ED"/><rect x="546" y="174" width="24" height="6" fill="#D9D5C7"/><rect x="570" y="174" width="6" height="6" fill="#1A1A1F"/><rect x="576" y="174" width="84" height="6" fill="#F7F4ED"/><rect x="660" y="174" width="12" height="6" fill="#D9D5C7"/><rect x="672" y="174" width="6" height="6" fill="#1A1A1F"/><rect x="84" y="180" width="6" height="6" fill="#1A1A1F"/><rect x="90" y="180" width="78" height="6" fill="#F7F4ED"/><rect x="168" y="180" width="174" height="6" fill="#D9D5C7"/><rect x="342" y="180" width="126" height="6" fill="#F7F4ED"/><rect x="468" y="180" width="12" height="6" fill="#1A1A1F"/><rect x="480" y="180" width="66" height="6" fill="#F7F4ED"/><rect x="546" y="180" width="24" height="6" fill="#D9D5C7"/><rect x="570" y="180" width="6" height="6" fill="#1A1A1F"/><rect x="576" y="180" width="78" height="6" fill="#F7F4ED"/><rect x="654" y="180" width="18" height="6" fill="#D9D5C7"/><rect x="672" y="180" width="6" height="6" fill="#1A1A1F"/><rect x="90" y="186" width="6" height="6" fill="#1A1A1F"/><rect x="96" y="186" width="30" height="6" fill="#F7F4ED"/><rect x="126" y="186" width="42" height="6" fill="#D9D5C7"/><rect x="168" y="186" width="300" height="6" fill="#F7F4ED"/><rect x="468" y="186" width="12" height="6" fill="#1A1A1F"/><rect x="480" y="186" width="66" height="6" fill="#F7F4ED"/><rect x="546" y="186" width="24" height="6" fill="#D9D5C7"/><rect x="570" y="186" width="6" height="6" fill="#1A1A1F"/><rect x="576" y="186" width="48" height="6" fill="#F7F4ED"/><rect x="624" y="186" width="42" height="6" fill="#1A1A1F"/><rect x="666" y="186" width="6" height="6" fill="#D9D5C7"/><rect x="672" y="186" width="6" height="6" fill="#1A1A1F"/><rect x="90" y="192" width="6" height="6" fill="#1A1A1F"/><rect x="96" y="192" width="372" height="6" fill="#F7F4ED"/><rect x="468" y="192" width="12" height="6" fill="#1A1A1F"/><rect x="480" y="192" width="66" height="6" fill="#F7F4ED"/><rect x="546" y="192" width="24" height="6" fill="#D9D5C7"/><rect x="570" y="192" width="6" height="6" fill="#1A1A1F"/><rect x="576" y="192" width="66" height="6" fill="#F7F4ED"/><rect x="642" y="192" width="30" height="6" fill="#D9D5C7"/><rect x="672" y="192" width="6" height="6" fill="#1A1A1F"/><rect x="90" y="198" width="6" height="6" fill="#1A1A1F"/><rect x="96" y="198" width="372" height="6" fill="#F7F4ED"/><rect x="468" y="198" width="12" height="6" fill="#1A1A1F"/><rect x="480" y="198" width="66" height="6" fill="#F7F4ED"/><rect x="546" y="198" width="24" height="6" fill="#D9D5C7"/><rect x="570" y="198" width="6" height="6" fill="#1A1A1F"/><rect x="576" y="198" width="60" height="6" fill="#F7F4ED"/><rect x="636" y="198" width="30" height="6" fill="#D9D5C7"/><rect x="666" y="198" width="6" height="6" fill="#1A1A1F"/><rect x="78" y="204" width="12" height="6" fill="#1A1A1F"/><rect x="90" y="204" width="6" height="6" fill="#F7F4ED"/><rect x="96" y="204" width="6" height="6" fill="#D9D5C7"/><rect x="102" y="204" width="366" height="6" fill="#F7F4ED"/><rect x="468" y="204" width="12" height="6" fill="#1A1A1F"/><rect x="480" y="204" width="72" height="6" fill="#F7F4ED"/><rect x="552" y="204" width="24" height="6" fill="#D9D5C7"/><rect x="576" y="204" width="6" height="6" fill="#1A1A1F"/><rect x="582" y="204" width="36" height="6" fill="#F7F4ED"/><rect x="618" y="204" width="42" height="6" fill="#D9D5C7"/><rect x="660" y="204" width="6" height="6" fill="#1A1A1F"/><rect x="72" y="210" width="6" height="6" fill="#1A1A1F"/><rect x="78" y="210" width="12" height="6" fill="#F7F4ED"/><rect x="90" y="210" width="6" height="6" fill="#D9D5C7"/><rect x="96" y="210" width="372" height="6" fill="#F7F4ED"/><rect x="468" y="210" width="12" height="6" fill="#1A1A1F"/><rect x="480" y="210" width="72" height="6" fill="#F7F4ED"/><rect x="552" y="210" width="24" height="6" fill="#D9D5C7"/><rect x="576" y="210" width="6" height="6" fill="#1A1A1F"/><rect x="582" y="210" width="6" height="6" fill="#F7F4ED"/><rect x="588" y="210" width="66" height="6" fill="#D9D5C7"/><rect x="654" y="210" width="6" height="6" fill="#1A1A1F"/><rect x="66" y="216" width="6" height="6" fill="#1A1A1F"/><rect x="72" y="216" width="6" height="6" fill="#F7F4ED"/><rect x="78" y="216" width="12" height="6" fill="#D9D5C7"/><rect x="90" y="216" width="378" height="6" fill="#F7F4ED"/><rect x="468" y="216" width="12" height="6" fill="#1A1A1F"/><rect x="480" y="216" width="72" height="6" fill="#F7F4ED"/><rect x="552" y="216" width="24" height="6" fill="#D9D5C7"/><rect x="576" y="216" width="6" height="6" fill="#1A1A1F"/><rect x="582" y="216" width="66" height="6" fill="#D9D5C7"/><rect x="648" y="216" width="6" height="6" fill="#1A1A1F"/><rect x="66" y="222" width="6" height="6" fill="#1A1A1F"/><rect x="72" y="222" width="6" height="6" fill="#D9D5C7"/><rect x="78" y="222" width="390" height="6" fill="#F7F4ED"/><rect x="468" y="222" width="12" height="6" fill="#1A1A1F"/><rect x="480" y="222" width="72" height="6" fill="#F7F4ED"/><rect x="552" y="222" width="24" height="6" fill="#D9D5C7"/><rect x="576" y="222" width="6" height="6" fill="#1A1A1F"/><rect x="582" y="222" width="60" height="6" fill="#D9D5C7"/><rect x="642" y="222" width="6" height="6" fill="#1A1A1F"/><rect x="66" y="228" width="6" height="6" fill="#1A1A1F"/><rect x="72" y="228" width="396" height="6" fill="#F7F4ED"/><rect x="468" y="228" width="12" height="6" fill="#1A1A1F"/><rect x="480" y="228" width="24" height="6" fill="#F7F4ED"/><rect x="504" y="228" width="12" height="6" fill="#D9D5C7"/><rect x="516" y="228" width="36" height="6" fill="#F7F4ED"/><rect x="552" y="228" width="24" height="6" fill="#D9D5C7"/><rect x="576" y="228" width="6" height="6" fill="#1A1A1F"/><rect x="582" y="228" width="54" height="6" fill="#D9D5C7"/><rect x="636" y="228" width="6" height="6" fill="#1A1A1F"/><rect x="66" y="234" width="6" height="6" fill="#1A1A1F"/><rect x="72" y="234" width="396" height="6" fill="#F7F4ED"/><rect x="468" y="234" width="12" height="6" fill="#1A1A1F"/><rect x="480" y="234" width="12" height="6" fill="#F7F4ED"/><rect x="492" y="234" width="24" height="6" fill="#D9D5C7"/><rect x="516" y="234" width="36" height="6" fill="#F7F4ED"/><rect x="552" y="234" width="24" height="6" fill="#D9D5C7"/><rect x="576" y="234" width="60" height="6" fill="#1A1A1F"/><rect x="66" y="240" width="6" height="6" fill="#1A1A1F"/><rect x="72" y="240" width="216" height="6" fill="#F7F4ED"/><rect x="288" y="240" width="90" height="6" fill="#1A1A1F"/><rect x="378" y="240" width="90" height="6" fill="#F7F4ED"/><rect x="468" y="240" width="12" height="6" fill="#1A1A1F"/><rect x="480" y="240" width="6" height="6" fill="#F7F4ED"/><rect x="486" y="240" width="30" height="6" fill="#D9D5C7"/><rect x="516" y="240" width="36" height="6" fill="#F7F4ED"/><rect x="552" y="240" width="24" height="6" fill="#D9D5C7"/><rect x="576" y="240" width="6" height="6" fill="#1A1A1F"/><rect x="582" y="240" width="6" height="6" fill="#D9D5C7"/><rect x="588" y="240" width="30" height="6" fill="#1A1A1F"/><rect x="66" y="246" width="6" height="6" fill="#1A1A1F"/><rect x="72" y="246" width="216" height="6" fill="#F7F4ED"/><rect x="288" y="246" width="6" height="6" fill="#1A1A1F"/><rect x="294" y="246" width="78" height="6" fill="#F7F4ED"/><rect x="372" y="246" width="6" height="6" fill="#1A1A1F"/><rect x="378" y="246" width="90" height="6" fill="#F7F4ED"/><rect x="468" y="246" width="12" height="6" fill="#1A1A1F"/><rect x="480" y="246" width="36" height="6" fill="#D9D5C7"/><rect x="516" y="246" width="36" height="6" fill="#F7F4ED"/><rect x="552" y="246" width="24" height="6" fill="#D9D5C7"/><rect x="576" y="246" width="12" height="6" fill="#1A1A1F"/><rect x="66" y="252" width="6" height="6" fill="#1A1A1F"/><rect x="72" y="252" width="6" height="6" fill="#D9D5C7"/><rect x="78" y="252" width="210" height="6" fill="#F7F4ED"/><rect x="288" y="252" width="6" height="6" fill="#1A1A1F"/><rect x="294" y="252" width="78" height="6" fill="#F7F4ED"/><rect x="372" y="252" width="6" height="6" fill="#1A1A1F"/><rect x="378" y="252" width="90" height="6" fill="#F7F4ED"/><rect x="468" y="252" width="12" height="6" fill="#1A1A1F"/><rect x="480" y="252" width="36" height="6" fill="#D9D5C7"/><rect x="516" y="252" width="36" height="6" fill="#F7F4ED"/><rect x="552" y="252" width="24" height="6" fill="#D9D5C7"/><rect x="576" y="252" width="12" height="6" fill="#1A1A1F"/><rect x="66" y="258" width="6" height="6" fill="#1A1A1F"/><rect x="72" y="258" width="12" height="6" fill="#D9D5C7"/><rect x="84" y="258" width="204" height="6" fill="#F7F4ED"/><rect x="288" y="258" width="6" height="6" fill="#1A1A1F"/><rect x="294" y="258" width="78" height="6" fill="#F7F4ED"/><rect x="372" y="258" width="6" height="6" fill="#1A1A1F"/><rect x="378" y="258" width="96" height="6" fill="#F7F4ED"/><rect x="474" y="258" width="30" height="6" fill="#D9D5C7"/><rect x="504" y="258" width="18" height="6" fill="#1A1A1F"/><rect x="522" y="258" width="36" height="6" fill="#F7F4ED"/><rect x="558" y="258" width="24" height="6" fill="#D9D5C7"/><rect x="582" y="258" width="12" height="6" fill="#1A1A1F"/><rect x="66" y="264" width="6" height="6" fill="#1A1A1F"/><rect x="72" y="264" width="24" height="6" fill="#D9D5C7"/><rect x="96" y="264" width="192" height="6" fill="#F7F4ED"/><rect x="288" y="264" width="6" height="6" fill="#1A1A1F"/><rect x="294" y="264" width="78" height="6" fill="#F7F4ED"/><rect x="372" y="264" width="6" height="6" fill="#1A1A1F"/><rect x="378" y="264" width="90" height="6" fill="#F7F4ED"/><rect x="468" y="264" width="12" height="6" fill="#B65D3A"/><rect x="480" y="264" width="12" height="6" fill="#D9D5C7"/><rect x="492" y="264" width="12" height="6" fill="#1A1A1F"/><rect x="516" y="264" width="6" height="6" fill="#1A1A1F"/><rect x="522" y="264" width="36" height="6" fill="#F7F4ED"/><rect x="558" y="264" width="24" height="6" fill="#D9D5C7"/><rect x="582" y="264" width="12" height="6" fill="#1A1A1F"/><rect x="66" y="270" width="6" height="6" fill="#1A1A1F"/><rect x="72" y="270" width="30" height="6" fill="#D9D5C7"/><rect x="102" y="270" width="186" height="6" fill="#F7F4ED"/><rect x="288" y="270" width="6" height="6" fill="#1A1A1F"/><rect x="294" y="270" width="78" height="6" fill="#F7F4ED"/><rect x="372" y="270" width="6" height="6" fill="#1A1A1F"/><rect x="378" y="270" width="84" height="6" fill="#F7F4ED"/><rect x="462" y="270" width="6" height="6" fill="#D9D5C7"/><rect x="468" y="270" width="12" height="6" fill="#B65D3A"/><rect x="480" y="270" width="6" height="6" fill="#D9D5C7"/><rect x="486" y="270" width="6" height="6" fill="#1A1A1F"/><rect x="516" y="270" width="6" height="6" fill="#1A1A1F"/><rect x="522" y="270" width="36" height="6" fill="#F7F4ED"/><rect x="558" y="270" width="24" height="6" fill="#D9D5C7"/><rect x="582" y="270" width="12" height="6" fill="#1A1A1F"/><rect x="66" y="276" width="6" height="6" fill="#1A1A1F"/><rect x="72" y="276" width="36" height="6" fill="#D9D5C7"/><rect x="108" y="276" width="180" height="6" fill="#F7F4ED"/><rect x="288" y="276" width="6" height="6" fill="#1A1A1F"/><rect x="294" y="276" width="24" height="6" fill="#F7F4ED"/><rect x="318" y="276" width="12" height="6" fill="#B65D3A"/><rect x="330" y="276" width="12" height="6" fill="#F7F4ED"/><rect x="342" y="276" width="12" height="6" fill="#B65D3A"/><rect x="354" y="276" width="18" height="6" fill="#F7F4ED"/><rect x="372" y="276" width="6" height="6" fill="#1A1A1F"/><rect x="378" y="276" width="78" height="6" fill="#F7F4ED"/><rect x="456" y="276" width="24" height="6" fill="#D9D5C7"/><rect x="480" y="276" width="6" height="6" fill="#1A1A1F"/><rect x="516" y="276" width="6" height="6" fill="#1A1A1F"/><rect x="522" y="276" width="36" height="6" fill="#F7F4ED"/><rect x="558" y="276" width="24" height="6" fill="#D9D5C7"/><rect x="582" y="276" width="12" height="6" fill="#1A1A1F"/><rect x="72" y="282" width="6" height="6" fill="#1A1A1F"/><rect x="78" y="282" width="42" height="6" fill="#D9D5C7"/><rect x="120" y="282" width="168" height="6" fill="#F7F4ED"/><rect x="288" y="282" width="6" height="6" fill="#1A1A1F"/><rect x="294" y="282" width="78" height="6" fill="#F7F4ED"/><rect x="372" y="282" width="6" height="6" fill="#1A1A1F"/><rect x="378" y="282" width="72" height="6" fill="#F7F4ED"/><rect x="450" y="282" width="30" height="6" fill="#D9D5C7"/><rect x="480" y="282" width="6" height="6" fill="#1A1A1F"/><rect x="516" y="282" width="6" height="6" fill="#1A1A1F"/><rect x="522" y="282" width="36" height="6" fill="#F7F4ED"/><rect x="558" y="282" width="24" height="6" fill="#D9D5C7"/><rect x="582" y="282" width="12" height="6" fill="#1A1A1F"/><rect x="78" y="288" width="6" height="6" fill="#1A1A1F"/><rect x="84" y="288" width="48" height="6" fill="#D9D5C7"/><rect x="132" y="288" width="156" height="6" fill="#F7F4ED"/><rect x="288" y="288" width="6" height="6" fill="#1A1A1F"/><rect x="294" y="288" width="78" height="6" fill="#F7F4ED"/><rect x="372" y="288" width="6" height="6" fill="#1A1A1F"/><rect x="378" y="288" width="72" height="6" fill="#F7F4ED"/><rect x="450" y="288" width="24" height="6" fill="#D9D5C7"/><rect x="474" y="288" width="6" height="6" fill="#1A1A1F"/><rect x="516" y="288" width="6" height="6" fill="#1A1A1F"/><rect x="522" y="288" width="36" height="6" fill="#F7F4ED"/><rect x="558" y="288" width="24" height="6" fill="#D9D5C7"/><rect x="582" y="288" width="12" height="6" fill="#1A1A1F"/><rect x="84" y="294" width="12" height="6" fill="#1A1A1F"/><rect x="96" y="294" width="54" height="6" fill="#D9D5C7"/><rect x="150" y="294" width="138" height="6" fill="#F7F4ED"/><rect x="288" y="294" width="6" height="6" fill="#1A1A1F"/><rect x="294" y="294" width="78" height="6" fill="#F7F4ED"/><rect x="372" y="294" width="6" height="6" fill="#1A1A1F"/><rect x="378" y="294" width="66" height="6" fill="#F7F4ED"/><rect x="444" y="294" width="24" height="6" fill="#D9D5C7"/><rect x="468" y="294" width="6" height="6" fill="#1A1A1F"/><rect x="516" y="294" width="6" height="6" fill="#1A1A1F"/><rect x="522" y="294" width="36" height="6" fill="#F7F4ED"/><rect x="558" y="294" width="24" height="6" fill="#D9D5C7"/><rect x="582" y="294" width="12" height="6" fill="#1A1A1F"/><rect x="96" y="300" width="6" height="6" fill="#1A1A1F"/><rect x="102" y="300" width="42" height="6" fill="#D9D5C7"/><rect x="144" y="300" width="30" height="6" fill="#F7F4ED"/><rect x="174" y="300" width="12" height="6" fill="#D9D5C7"/><rect x="186" y="300" width="102" height="6" fill="#F7F4ED"/><rect x="288" y="300" width="6" height="6" fill="#1A1A1F"/><rect x="294" y="300" width="78" height="6" fill="#F7F4ED"/><rect x="372" y="300" width="6" height="6" fill="#1A1A1F"/><rect x="378" y="300" width="60" height="6" fill="#F7F4ED"/><rect x="438" y="300" width="24" height="6" fill="#D9D5C7"/><rect x="462" y="300" width="6" height="6" fill="#1A1A1F"/><rect x="516" y="300" width="6" height="6" fill="#1A1A1F"/><rect x="522" y="300" width="36" height="6" fill="#F7F4ED"/><rect x="558" y="300" width="24" height="6" fill="#D9D5C7"/><rect x="582" y="300" width="12" height="6" fill="#1A1A1F"/><rect x="102" y="306" width="6" height="6" fill="#1A1A1F"/><rect x="108" y="306" width="36" height="6" fill="#D9D5C7"/><rect x="144" y="306" width="30" height="6" fill="#F7F4ED"/><rect x="174" y="306" width="30" height="6" fill="#D9D5C7"/><rect x="204" y="306" width="84" height="6" fill="#F7F4ED"/><rect x="288" y="306" width="6" height="6" fill="#1A1A1F"/><rect x="294" y="306" width="78" height="6" fill="#F7F4ED"/><rect x="372" y="306" width="6" height="6" fill="#1A1A1F"/><rect x="378" y="306" width="48" height="6" fill="#F7F4ED"/><rect x="426" y="306" width="30" height="6" fill="#D9D5C7"/><rect x="456" y="306" width="6" height="6" fill="#1A1A1F"/><rect x="522" y="306" width="6" height="6" fill="#1A1A1F"/><rect x="528" y="306" width="54" height="6" fill="#F7F4ED"/><rect x="582" y="306" width="6" height="6" fill="#1A1A1F"/><rect x="108" y="312" width="12" height="6" fill="#1A1A1F"/><rect x="120" y="312" width="24" height="6" fill="#D9D5C7"/><rect x="144" y="312" width="30" height="6" fill="#F7F4ED"/><rect x="174" y="312" width="72" height="6" fill="#D9D5C7"/><rect x="246" y="312" width="42" height="6" fill="#F7F4ED"/><rect x="288" y="312" width="90" height="6" fill="#1A1A1F"/><rect x="378" y="312" width="30" height="6" fill="#F7F4ED"/><rect x="408" y="312" width="42" height="6" fill="#D9D5C7"/><rect x="450" y="312" width="6" height="6" fill="#1A1A1F"/><rect x="528" y="312" width="12" height="6" fill="#1A1A1F"/><rect x="540" y="312" width="30" height="6" fill="#F7F4ED"/><rect x="570" y="312" width="12" height="6" fill="#1A1A1F"/><rect x="120" y="318" width="12" height="6" fill="#1A1A1F"/><rect x="132" y="318" width="12" height="6" fill="#D9D5C7"/><rect x="144" y="318" width="30" height="6" fill="#F7F4ED"/><rect x="174" y="318" width="36" height="6" fill="#D9D5C7"/><rect x="210" y="318" width="30" height="6" fill="#F7F4ED"/><rect x="240" y="318" width="60" height="6" fill="#D9D5C7"/><rect x="300" y="318" width="72" height="6" fill="#F7F4ED"/><rect x="372" y="318" width="78" height="6" fill="#D9D5C7"/><rect x="450" y="318" width="30" height="6" fill="#1A1A1F"/><rect x="540" y="318" width="30" height="6" fill="#1A1A1F"/><rect x="132" y="324" width="12" height="6" fill="#1A1A1F"/><rect x="144" y="324" width="30" height="6" fill="#F7F4ED"/><rect x="174" y="324" width="36" height="6" fill="#D9D5C7"/><rect x="210" y="324" width="30" height="6" fill="#F7F4ED"/><rect x="240" y="324" width="132" height="6" fill="#D9D5C7"/><rect x="372" y="324" width="30" height="6" fill="#F7F4ED"/><rect x="402" y="324" width="36" height="6" fill="#D9D5C7"/><rect x="438" y="324" width="30" height="6" fill="#F7F4ED"/><rect x="468" y="324" width="12" height="6" fill="#D9D5C7"/><rect x="480" y="324" width="6" height="6" fill="#1A1A1F"/><rect x="138" y="330" width="6" height="6" fill="#1A1A1F"/><rect x="144" y="330" width="30" height="6" fill="#F7F4ED"/><rect x="174" y="330" width="36" height="6" fill="#D9D5C7"/><rect x="210" y="330" width="30" height="6" fill="#F7F4ED"/><rect x="240" y="330" width="132" height="6" fill="#D9D5C7"/><rect x="372" y="330" width="30" height="6" fill="#F7F4ED"/><rect x="402" y="330" width="36" height="6" fill="#D9D5C7"/><rect x="438" y="330" width="30" height="6" fill="#F7F4ED"/><rect x="468" y="330" width="12" height="6" fill="#D9D5C7"/><rect x="480" y="330" width="6" height="6" fill="#1A1A1F"/><rect x="138" y="336" width="6" height="6" fill="#1A1A1F"/><rect x="144" y="336" width="30" height="6" fill="#F7F4ED"/><rect x="174" y="336" width="12" height="6" fill="#D9D5C7"/><rect x="186" y="336" width="18" height="6" fill="#1A1A1F"/><rect x="204" y="336" width="6" height="6" fill="#D9D5C7"/><rect x="210" y="336" width="30" height="6" fill="#F7F4ED"/><rect x="240" y="336" width="132" height="6" fill="#D9D5C7"/><rect x="372" y="336" width="30" height="6" fill="#F7F4ED"/><rect x="402" y="336" width="24" height="6" fill="#D9D5C7"/><rect x="426" y="336" width="12" height="6" fill="#1A1A1F"/><rect x="438" y="336" width="30" height="6" fill="#F7F4ED"/><rect x="468" y="336" width="12" height="6" fill="#D9D5C7"/><rect x="480" y="336" width="6" height="6" fill="#1A1A1F"/><rect x="138" y="342" width="6" height="6" fill="#1A1A1F"/><rect x="144" y="342" width="30" height="6" fill="#F7F4ED"/><rect x="174" y="342" width="12" height="6" fill="#D9D5C7"/><rect x="186" y="342" width="6" height="6" fill="#1A1A1F"/><rect x="204" y="342" width="6" height="6" fill="#1A1A1F"/><rect x="210" y="342" width="30" height="6" fill="#F7F4ED"/><rect x="240" y="342" width="132" height="6" fill="#D9D5C7"/><rect x="372" y="342" width="30" height="6" fill="#F7F4ED"/><rect x="402" y="342" width="12" height="6" fill="#D9D5C7"/><rect x="414" y="342" width="12" height="6" fill="#1A1A1F"/><rect x="432" y="342" width="6" height="6" fill="#1A1A1F"/><rect x="438" y="342" width="30" height="6" fill="#F7F4ED"/><rect x="468" y="342" width="12" height="6" fill="#D9D5C7"/><rect x="480" y="342" width="6" height="6" fill="#1A1A1F"/><rect x="138" y="348" width="6" height="6" fill="#1A1A1F"/><rect x="144" y="348" width="30" height="6" fill="#F7F4ED"/><rect x="174" y="348" width="12" height="6" fill="#D9D5C7"/><rect x="186" y="348" width="6" height="6" fill="#1A1A1F"/><rect x="204" y="348" width="6" height="6" fill="#1A1A1F"/><rect x="210" y="348" width="30" height="6" fill="#F7F4ED"/><rect x="240" y="348" width="12" height="6" fill="#D9D5C7"/><rect x="252" y="348" width="48" height="6" fill="#1A1A1F"/><rect x="300" y="348" width="72" height="6" fill="#D9D5C7"/><rect x="372" y="348" width="30" height="6" fill="#F7F4ED"/><rect x="402" y="348" width="12" height="6" fill="#D9D5C7"/><rect x="414" y="348" width="6" height="6" fill="#1A1A1F"/><rect x="432" y="348" width="6" height="6" fill="#1A1A1F"/><rect x="438" y="348" width="30" height="6" fill="#F7F4ED"/><rect x="468" y="348" width="12" height="6" fill="#D9D5C7"/><rect x="480" y="348" width="6" height="6" fill="#1A1A1F"/><rect x="138" y="354" width="6" height="6" fill="#1A1A1F"/><rect x="144" y="354" width="30" height="6" fill="#F7F4ED"/><rect x="174" y="354" width="12" height="6" fill="#D9D5C7"/><rect x="186" y="354" width="6" height="6" fill="#1A1A1F"/><rect x="204" y="354" width="6" height="6" fill="#1A1A1F"/><rect x="210" y="354" width="30" height="6" fill="#F7F4ED"/><rect x="240" y="354" width="12" height="6" fill="#D9D5C7"/><rect x="252" y="354" width="6" height="6" fill="#1A1A1F"/><rect x="300" y="354" width="72" height="6" fill="#1A1A1F"/><rect x="372" y="354" width="30" height="6" fill="#F7F4ED"/><rect x="402" y="354" width="12" height="6" fill="#D9D5C7"/><rect x="414" y="354" width="6" height="6" fill="#1A1A1F"/><rect x="432" y="354" width="6" height="6" fill="#1A1A1F"/><rect x="438" y="354" width="30" height="6" fill="#F7F4ED"/><rect x="468" y="354" width="12" height="6" fill="#D9D5C7"/><rect x="480" y="354" width="6" height="6" fill="#1A1A1F"/><rect x="138" y="360" width="6" height="6" fill="#1A1A1F"/><rect x="144" y="360" width="30" height="6" fill="#F7F4ED"/><rect x="174" y="360" width="12" height="6" fill="#D9D5C7"/><rect x="186" y="360" width="6" height="6" fill="#1A1A1F"/><rect x="204" y="360" width="6" height="6" fill="#1A1A1F"/><rect x="210" y="360" width="30" height="6" fill="#F7F4ED"/><rect x="240" y="360" width="12" height="6" fill="#D9D5C7"/><rect x="252" y="360" width="6" height="6" fill="#1A1A1F"/><rect x="366" y="360" width="6" height="6" fill="#1A1A1F"/><rect x="372" y="360" width="30" height="6" fill="#F7F4ED"/><rect x="402" y="360" width="12" height="6" fill="#D9D5C7"/><rect x="414" y="360" width="6" height="6" fill="#1A1A1F"/><rect x="432" y="360" width="6" height="6" fill="#1A1A1F"/><rect x="438" y="360" width="30" height="6" fill="#F7F4ED"/><rect x="468" y="360" width="12" height="6" fill="#D9D5C7"/><rect x="480" y="360" width="6" height="6" fill="#1A1A1F"/><rect x="138" y="366" width="6" height="6" fill="#1A1A1F"/><rect x="144" y="366" width="30" height="6" fill="#F7F4ED"/><rect x="174" y="366" width="12" height="6" fill="#D9D5C7"/><rect x="186" y="366" width="6" height="6" fill="#1A1A1F"/><rect x="204" y="366" width="6" height="6" fill="#1A1A1F"/><rect x="210" y="366" width="30" height="6" fill="#F7F4ED"/><rect x="240" y="366" width="12" height="6" fill="#D9D5C7"/><rect x="252" y="366" width="6" height="6" fill="#1A1A1F"/><rect x="366" y="366" width="6" height="6" fill="#1A1A1F"/><rect x="372" y="366" width="30" height="6" fill="#F7F4ED"/><rect x="402" y="366" width="12" height="6" fill="#D9D5C7"/><rect x="414" y="366" width="6" height="6" fill="#1A1A1F"/><rect x="432" y="366" width="6" height="6" fill="#1A1A1F"/><rect x="438" y="366" width="30" height="6" fill="#F7F4ED"/><rect x="468" y="366" width="12" height="6" fill="#D9D5C7"/><rect x="480" y="366" width="6" height="6" fill="#1A1A1F"/><rect x="138" y="372" width="6" height="6" fill="#1A1A1F"/><rect x="144" y="372" width="30" height="6" fill="#F7F4ED"/><rect x="174" y="372" width="12" height="6" fill="#D9D5C7"/><rect x="186" y="372" width="6" height="6" fill="#1A1A1F"/><rect x="204" y="372" width="6" height="6" fill="#1A1A1F"/><rect x="210" y="372" width="30" height="6" fill="#F7F4ED"/><rect x="240" y="372" width="12" height="6" fill="#D9D5C7"/><rect x="252" y="372" width="6" height="6" fill="#1A1A1F"/><rect x="366" y="372" width="6" height="6" fill="#1A1A1F"/><rect x="372" y="372" width="30" height="6" fill="#F7F4ED"/><rect x="402" y="372" width="12" height="6" fill="#D9D5C7"/><rect x="414" y="372" width="6" height="6" fill="#1A1A1F"/><rect x="432" y="372" width="6" height="6" fill="#1A1A1F"/><rect x="438" y="372" width="30" height="6" fill="#F7F4ED"/><rect x="468" y="372" width="12" height="6" fill="#D9D5C7"/><rect x="480" y="372" width="6" height="6" fill="#1A1A1F"/><rect x="138" y="378" width="6" height="6" fill="#1A1A1F"/><rect x="144" y="378" width="30" height="6" fill="#F7F4ED"/><rect x="174" y="378" width="12" height="6" fill="#D9D5C7"/><rect x="186" y="378" width="6" height="6" fill="#1A1A1F"/><rect x="204" y="378" width="6" height="6" fill="#1A1A1F"/><rect x="210" y="378" width="30" height="6" fill="#F7F4ED"/><rect x="240" y="378" width="12" height="6" fill="#D9D5C7"/><rect x="252" y="378" width="6" height="6" fill="#1A1A1F"/><rect x="366" y="378" width="6" height="6" fill="#1A1A1F"/><rect x="372" y="378" width="30" height="6" fill="#F7F4ED"/><rect x="402" y="378" width="12" height="6" fill="#D9D5C7"/><rect x="414" y="378" width="6" height="6" fill="#1A1A1F"/><rect x="432" y="378" width="6" height="6" fill="#1A1A1F"/><rect x="438" y="378" width="30" height="6" fill="#F7F4ED"/><rect x="468" y="378" width="12" height="6" fill="#D9D5C7"/><rect x="480" y="378" width="6" height="6" fill="#1A1A1F"/><rect x="138" y="384" width="6" height="6" fill="#1A1A1F"/><rect x="144" y="384" width="30" height="6" fill="#F7F4ED"/><rect x="174" y="384" width="12" height="6" fill="#D9D5C7"/><rect x="186" y="384" width="6" height="6" fill="#1A1A1F"/><rect x="204" y="384" width="6" height="6" fill="#1A1A1F"/><rect x="210" y="384" width="30" height="6" fill="#F7F4ED"/><rect x="240" y="384" width="12" height="6" fill="#D9D5C7"/><rect x="252" y="384" width="6" height="6" fill="#1A1A1F"/><rect x="366" y="384" width="6" height="6" fill="#1A1A1F"/><rect x="372" y="384" width="30" height="6" fill="#F7F4ED"/><rect x="402" y="384" width="12" height="6" fill="#D9D5C7"/><rect x="414" y="384" width="6" height="6" fill="#1A1A1F"/><rect x="432" y="384" width="6" height="6" fill="#1A1A1F"/><rect x="438" y="384" width="30" height="6" fill="#F7F4ED"/><rect x="468" y="384" width="12" height="6" fill="#D9D5C7"/><rect x="480" y="384" width="6" height="6" fill="#1A1A1F"/><rect x="138" y="390" width="54" height="6" fill="#1A1A1F"/><rect x="204" y="390" width="6" height="6" fill="#1A1A1F"/><rect x="210" y="390" width="30" height="6" fill="#F7F4ED"/><rect x="240" y="390" width="12" height="6" fill="#D9D5C7"/><rect x="252" y="390" width="6" height="6" fill="#1A1A1F"/><rect x="366" y="390" width="6" height="6" fill="#1A1A1F"/><rect x="372" y="390" width="30" height="6" fill="#F7F4ED"/><rect x="402" y="390" width="12" height="6" fill="#D9D5C7"/><rect x="414" y="390" width="6" height="6" fill="#1A1A1F"/><rect x="432" y="390" width="6" height="6" fill="#1A1A1F"/><rect x="438" y="390" width="30" height="6" fill="#F7F4ED"/><rect x="468" y="390" width="12" height="6" fill="#D9D5C7"/><rect x="480" y="390" width="6" height="6" fill="#1A1A1F"/><rect x="138" y="396" width="6" height="6" fill="#1A1A1F"/><rect x="144" y="396" width="30" height="6" fill="#F7F4ED"/><rect x="174" y="396" width="12" height="6" fill="#D9D5C7"/><rect x="186" y="396" width="6" height="6" fill="#1A1A1F"/><rect x="204" y="396" width="54" height="6" fill="#1A1A1F"/><rect x="366" y="396" width="54" height="6" fill="#1A1A1F"/><rect x="432" y="396" width="54" height="6" fill="#1A1A1F"/><rect x="138" y="402" width="6" height="6" fill="#1A1A1F"/><rect x="144" y="402" width="30" height="6" fill="#F7F4ED"/><rect x="174" y="402" width="12" height="6" fill="#D9D5C7"/><rect x="186" y="402" width="6" height="6" fill="#1A1A1F"/><rect x="204" y="402" width="6" height="6" fill="#1A1A1F"/><rect x="210" y="402" width="30" height="6" fill="#F7F4ED"/><rect x="240" y="402" width="12" height="6" fill="#D9D5C7"/><rect x="252" y="402" width="6" height="6" fill="#1A1A1F"/><rect x="366" y="402" width="6" height="6" fill="#1A1A1F"/><rect x="372" y="402" width="30" height="6" fill="#F7F4ED"/><rect x="402" y="402" width="12" height="6" fill="#D9D5C7"/><rect x="414" y="402" width="6" height="6" fill="#1A1A1F"/><rect x="432" y="402" width="6" height="6" fill="#1A1A1F"/><rect x="438" y="402" width="30" height="6" fill="#F7F4ED"/><rect x="468" y="402" width="12" height="6" fill="#D9D5C7"/><rect x="480" y="402" width="6" height="6" fill="#1A1A1F"/><rect x="138" y="408" width="6" height="6" fill="#1A1A1F"/><rect x="144" y="408" width="30" height="6" fill="#F7F4ED"/><rect x="174" y="408" width="12" height="6" fill="#D9D5C7"/><rect x="186" y="408" width="6" height="6" fill="#1A1A1F"/><rect x="204" y="408" width="6" height="6" fill="#1A1A1F"/><rect x="210" y="408" width="30" height="6" fill="#F7F4ED"/><rect x="240" y="408" width="12" height="6" fill="#D9D5C7"/><rect x="252" y="408" width="6" height="6" fill="#1A1A1F"/><rect x="366" y="408" width="6" height="6" fill="#1A1A1F"/><rect x="372" y="408" width="30" height="6" fill="#F7F4ED"/><rect x="402" y="408" width="12" height="6" fill="#D9D5C7"/><rect x="414" y="408" width="6" height="6" fill="#1A1A1F"/><rect x="432" y="408" width="6" height="6" fill="#1A1A1F"/><rect x="438" y="408" width="30" height="6" fill="#F7F4ED"/><rect x="468" y="408" width="12" height="6" fill="#D9D5C7"/><rect x="480" y="408" width="6" height="6" fill="#1A1A1F"/><rect x="138" y="414" width="6" height="6" fill="#1A1A1F"/><rect x="144" y="414" width="30" height="6" fill="#F7F4ED"/><rect x="174" y="414" width="12" height="6" fill="#D9D5C7"/><rect x="186" y="414" width="6" height="6" fill="#1A1A1F"/><rect x="204" y="414" width="6" height="6" fill="#1A1A1F"/><rect x="210" y="414" width="30" height="6" fill="#F7F4ED"/><rect x="240" y="414" width="12" height="6" fill="#D9D5C7"/><rect x="252" y="414" width="6" height="6" fill="#1A1A1F"/><rect x="366" y="414" width="6" height="6" fill="#1A1A1F"/><rect x="372" y="414" width="30" height="6" fill="#F7F4ED"/><rect x="402" y="414" width="12" height="6" fill="#D9D5C7"/><rect x="414" y="414" width="6" height="6" fill="#1A1A1F"/><rect x="432" y="414" width="6" height="6" fill="#1A1A1F"/><rect x="438" y="414" width="30" height="6" fill="#F7F4ED"/><rect x="468" y="414" width="12" height="6" fill="#D9D5C7"/><rect x="480" y="414" width="6" height="6" fill="#1A1A1F"/><rect x="138" y="420" width="6" height="6" fill="#1A1A1F"/><rect x="144" y="420" width="30" height="6" fill="#F7F4ED"/><rect x="174" y="420" width="12" height="6" fill="#D9D5C7"/><rect x="186" y="420" width="6" height="6" fill="#1A1A1F"/><rect x="204" y="420" width="6" height="6" fill="#1A1A1F"/><rect x="210" y="420" width="30" height="6" fill="#F7F4ED"/><rect x="240" y="420" width="12" height="6" fill="#D9D5C7"/><rect x="252" y="420" width="6" height="6" fill="#1A1A1F"/><rect x="366" y="420" width="6" height="6" fill="#1A1A1F"/><rect x="372" y="420" width="30" height="6" fill="#F7F4ED"/><rect x="402" y="420" width="12" height="6" fill="#D9D5C7"/><rect x="414" y="420" width="6" height="6" fill="#1A1A1F"/><rect x="432" y="420" width="6" height="6" fill="#1A1A1F"/><rect x="438" y="420" width="30" height="6" fill="#F7F4ED"/><rect x="468" y="420" width="12" height="6" fill="#D9D5C7"/><rect x="480" y="420" width="6" height="6" fill="#1A1A1F"/><rect x="138" y="426" width="6" height="6" fill="#1A1A1F"/><rect x="144" y="426" width="30" height="6" fill="#F7F4ED"/><rect x="174" y="426" width="12" height="6" fill="#D9D5C7"/><rect x="186" y="426" width="6" height="6" fill="#1A1A1F"/><rect x="204" y="426" width="6" height="6" fill="#1A1A1F"/><rect x="210" y="426" width="30" height="6" fill="#F7F4ED"/><rect x="240" y="426" width="12" height="6" fill="#D9D5C7"/><rect x="252" y="426" width="6" height="6" fill="#1A1A1F"/><rect x="366" y="426" width="6" height="6" fill="#1A1A1F"/><rect x="372" y="426" width="30" height="6" fill="#F7F4ED"/><rect x="402" y="426" width="12" height="6" fill="#D9D5C7"/><rect x="414" y="426" width="6" height="6" fill="#1A1A1F"/><rect x="432" y="426" width="6" height="6" fill="#1A1A1F"/><rect x="438" y="426" width="30" height="6" fill="#F7F4ED"/><rect x="468" y="426" width="12" height="6" fill="#D9D5C7"/><rect x="480" y="426" width="6" height="6" fill="#1A1A1F"/><rect x="138" y="432" width="6" height="6" fill="#1A1A1F"/><rect x="144" y="432" width="30" height="6" fill="#F7F4ED"/><rect x="174" y="432" width="12" height="6" fill="#D9D5C7"/><rect x="186" y="432" width="6" height="6" fill="#1A1A1F"/><rect x="204" y="432" width="6" height="6" fill="#1A1A1F"/><rect x="210" y="432" width="30" height="6" fill="#F7F4ED"/><rect x="240" y="432" width="12" height="6" fill="#D9D5C7"/><rect x="252" y="432" width="6" height="6" fill="#1A1A1F"/><rect x="366" y="432" width="6" height="6" fill="#1A1A1F"/><rect x="372" y="432" width="30" height="6" fill="#F7F4ED"/><rect x="402" y="432" width="12" height="6" fill="#D9D5C7"/><rect x="414" y="432" width="6" height="6" fill="#1A1A1F"/><rect x="432" y="432" width="6" height="6" fill="#1A1A1F"/><rect x="438" y="432" width="30" height="6" fill="#F7F4ED"/><rect x="468" y="432" width="12" height="6" fill="#D9D5C7"/><rect x="480" y="432" width="6" height="6" fill="#1A1A1F"/><rect x="138" y="438" width="6" height="6" fill="#1A1A1F"/><rect x="144" y="438" width="30" height="6" fill="#F7F4ED"/><rect x="174" y="438" width="12" height="6" fill="#D9D5C7"/><rect x="186" y="438" width="6" height="6" fill="#1A1A1F"/><rect x="204" y="438" width="6" height="6" fill="#1A1A1F"/><rect x="210" y="438" width="30" height="6" fill="#F7F4ED"/><rect x="240" y="438" width="12" height="6" fill="#D9D5C7"/><rect x="252" y="438" width="6" height="6" fill="#1A1A1F"/><rect x="366" y="438" width="6" height="6" fill="#1A1A1F"/><rect x="372" y="438" width="30" height="6" fill="#F7F4ED"/><rect x="402" y="438" width="12" height="6" fill="#D9D5C7"/><rect x="414" y="438" width="6" height="6" fill="#1A1A1F"/><rect x="432" y="438" width="6" height="6" fill="#1A1A1F"/><rect x="438" y="438" width="30" height="6" fill="#F7F4ED"/><rect x="468" y="438" width="12" height="6" fill="#D9D5C7"/><rect x="480" y="438" width="6" height="6" fill="#1A1A1F"/><rect x="138" y="444" width="6" height="6" fill="#1A1A1F"/><rect x="144" y="444" width="30" height="6" fill="#F7F4ED"/><rect x="174" y="444" width="12" height="6" fill="#D9D5C7"/><rect x="186" y="444" width="6" height="6" fill="#1A1A1F"/><rect x="204" y="444" width="6" height="6" fill="#1A1A1F"/><rect x="210" y="444" width="30" height="6" fill="#F7F4ED"/><rect x="240" y="444" width="12" height="6" fill="#D9D5C7"/><rect x="252" y="444" width="6" height="6" fill="#1A1A1F"/><rect x="366" y="444" width="6" height="6" fill="#1A1A1F"/><rect x="372" y="444" width="30" height="6" fill="#F7F4ED"/><rect x="402" y="444" width="12" height="6" fill="#D9D5C7"/><rect x="414" y="444" width="6" height="6" fill="#1A1A1F"/><rect x="432" y="444" width="6" height="6" fill="#1A1A1F"/><rect x="438" y="444" width="30" height="6" fill="#F7F4ED"/><rect x="468" y="444" width="12" height="6" fill="#D9D5C7"/><rect x="480" y="444" width="6" height="6" fill="#1A1A1F"/><rect x="138" y="450" width="6" height="6" fill="#1A1A1F"/><rect x="144" y="450" width="30" height="6" fill="#F7F4ED"/><rect x="174" y="450" width="12" height="6" fill="#D9D5C7"/><rect x="186" y="450" width="6" height="6" fill="#1A1A1F"/><rect x="204" y="450" width="6" height="6" fill="#1A1A1F"/><rect x="210" y="450" width="30" height="6" fill="#F7F4ED"/><rect x="240" y="450" width="12" height="6" fill="#D9D5C7"/><rect x="252" y="450" width="6" height="6" fill="#1A1A1F"/><rect x="366" y="450" width="6" height="6" fill="#1A1A1F"/><rect x="372" y="450" width="30" height="6" fill="#F7F4ED"/><rect x="402" y="450" width="12" height="6" fill="#D9D5C7"/><rect x="414" y="450" width="6" height="6" fill="#1A1A1F"/><rect x="432" y="450" width="6" height="6" fill="#1A1A1F"/><rect x="438" y="450" width="30" height="6" fill="#F7F4ED"/><rect x="468" y="450" width="12" height="6" fill="#D9D5C7"/><rect x="480" y="450" width="6" height="6" fill="#1A1A1F"/><rect x="138" y="456" width="6" height="6" fill="#1A1A1F"/><rect x="144" y="456" width="48" height="6" fill="#F7F4ED"/><rect x="192" y="456" width="6" height="6" fill="#1A1A1F"/><rect x="204" y="456" width="6" height="6" fill="#1A1A1F"/><rect x="210" y="456" width="18" height="6" fill="#F7F4ED"/><rect x="228" y="456" width="6" height="6" fill="#1A1A1F"/><rect x="234" y="456" width="6" height="6" fill="#F7F4ED"/><rect x="240" y="456" width="6" height="6" fill="#1A1A1F"/><rect x="246" y="456" width="12" height="6" fill="#F7F4ED"/><rect x="258" y="456" width="6" height="6" fill="#1A1A1F"/><rect x="366" y="456" width="6" height="6" fill="#1A1A1F"/><rect x="372" y="456" width="48" height="6" fill="#F7F4ED"/><rect x="420" y="456" width="6" height="6" fill="#1A1A1F"/><rect x="432" y="456" width="6" height="6" fill="#1A1A1F"/><rect x="438" y="456" width="48" height="6" fill="#F7F4ED"/><rect x="486" y="456" width="6" height="6" fill="#1A1A1F"/><rect x="144" y="462" width="48" height="6" fill="#1A1A1F"/><rect x="210" y="462" width="48" height="6" fill="#1A1A1F"/><rect x="372" y="462" width="48" height="6" fill="#1A1A1F"/><rect x="438" y="462" width="48" height="6" fill="#1A1A1F"/><rect x="0" y="468" width="708" height="6" fill="#1A1A1F"/><text x="736" y="264" font-family="'Source Serif 4', Georgia, serif" font-size="222" font-weight="500" fill="#1A1A1F" text-anchor="start" dominant-baseline="central" letter-spacing="-1">agentplain</text></svg>