<svg xmlns="http://www.w3.org/2000/svg" viewBox="0 0 216 286" shape-rendering="crispEdges"><rect x="0" y="0" width="216" height="6" fill="#F7F4ED"/><rect x="0" y="6" width="156" height="6" fill="#F7F4ED"/><rect x="156" y="6" width="6" height="6" fill="#4C6E4A"/><rect x="162" y="6" width="54" height="6" fill="#F7F4ED"/><rect x="0" y="12" width="156" height="6" fill="#F7F4ED"/><rect x="156" y="12" width="6" height="6" fill="#3F5C3F"/><rect x="162" y="12" width="54" height="6" fill="#F7F4ED"/><rect x="0" y="18" width="156" height="6" fill="#F7F4ED"/><rect x="156" y="18" width="6" height="6" fill="#726A5E"/><rect x="162" y="18" width="54" height="6" fill="#F7F4ED"/><rect x="0" y="24" width="120" height="6" fill="#F7F4ED"/><rect x="120" y="24" width="6" height="6" fill="#9A4D2F"/><rect x="126" y="24" width="12" height="6" fill="#B65D3A"/><rect x="138" y="24" width="18" height="6" fill="#F7F4ED"/><rect x="156" y="24" width="6" height="6" fill="#726A5E"/><rect x="162" y="24" width="54" height="6" fill="#F7F4ED"/><rect x="0" y="30" width="120" height="6" fill="#F7F4ED"/><rect x="120" y="30" width="18" height="6" fill="#B65D3A"/><rect x="138" y="30" width="18" height="6" fill="#F7F4ED"/><rect x="156" y="30" width="6" height="6" fill="#726A5E"/><rect x="162" y="30" width="12" height="6" fill="#F7F4ED"/><rect x="174" y="30" width="42" height="6" fill="#F7F4ED"/><rect x="0" y="36" width="120" height="6" fill="#F7F4ED"/><rect x="120" y="36" width="18" height="6" fill="#B65D3A"/><rect x="138" y="36" width="12" height="6" fill="#F7F4ED"/><rect x="150" y="36" width="6" height="6" fill="#F7F4ED"/><rect x="156" y="36" width="6" height="6" fill="#726A5E"/><rect x="162" y="36" width="18" height="6" fill="#F7F4ED"/><rect x="180" y="36" width="36" height="6" fill="#F7F4ED"/><rect x="0" y="42" width="120" height="6" fill="#F7F4ED"/><rect x="120" y="42" width="18" height="6" fill="#B65D3A"/><rect x="138" y="42" width="48" height="6" fill="#CF7A50"/><rect x="186" y="42" width="30" height="6" fill="#F7F4ED"/><rect x="0" y="48" width="120" height="6" fill="#F7F4ED"/><rect x="120" y="48" width="66" height="6" fill="#CF7A50"/><rect x="186" y="48" width="30" height="6" fill="#F7F4ED"/><rect x="0" y="54" width="120" height="6" fill="#F7F4ED"/><rect x="120" y="54" width="66" height="6" fill="#B65D3A"/><rect x="186" y="54" width="30" height="6" fill="#F7F4ED"/><rect x="0" y="60" width="36" height="6" fill="#F7F4ED"/><rect x="36" y="60" width="6" height="6" fill="#3F5C3F"/><rect x="42" y="60" width="78" height="6" fill="#F7F4ED"/><rect x="120" y="60" width="12" height="6" fill="#B65D3A"/><rect x="132" y="60" width="24" height="6" fill="#3F5C3F"/><rect x="156" y="60" width="6" height="6" fill="#F7F4ED"/><rect x="162" y="60" width="6" height="6" fill="#3F5C3F"/><rect x="168" y="60" width="18" height="6" fill="#B65D3A"/><rect x="186" y="60" width="30" height="6" fill="#F7F4ED"/><rect x="0" y="66" width="36" height="6" fill="#F7F4ED"/><rect x="36" y="66" width="6" height="6" fill="#726A5E"/><rect x="42" y="66" width="6" height="6" fill="#8E867A"/><rect x="48" y="66" width="72" height="6" fill="#F7F4ED"/><rect x="120" y="66" width="12" height="6" fill="#B65D3A"/><rect x="132" y="66" width="6" height="6" fill="#3F5C3F"/><rect x="138" y="66" width="6" height="6" fill="#4C6E4A"/><rect x="144" y="66" width="24" height="6" fill="#3F5C3F"/><rect x="168" y="66" width="18" height="6" fill="#B65D3A"/><rect x="186" y="66" width="30" height="6" fill="#F7F4ED"/><rect x="0" y="72" width="42" height="6" fill="#F7F4ED"/><rect x="42" y="72" width="24" height="6" fill="#726A5E"/><rect x="66" y="72" width="54" height="6" fill="#F7F4ED"/><rect x="120" y="72" width="48" height="6" fill="#B65D3A"/><rect x="168" y="72" width="30" height="6" fill="#EDE9DE"/><rect x="198" y="72" width="18" height="6" fill="#F7F4ED"/><rect x="0" y="78" width="42" height="6" fill="#F7F4ED"/><rect x="42" y="78" width="24" height="6" fill="#726A5E"/><rect x="66" y="78" width="54" height="6" fill="#F7F4ED"/><rect x="120" y="78" width="48" height="6" fill="#B65D3A"/><rect x="168" y="78" width="18" height="6" fill="#F7F4ED"/><rect x="186" y="78" width="12" height="6" fill="#1A1A1F"/><rect x="198" y="78" width="18" height="6" fill="#F7F4ED"/><rect x="0" y="84" width="42" height="6" fill="#EDE9DE"/><rect x="42" y="84" width="24" height="6" fill="#726A5E"/><rect x="66" y="84" width="54" height="6" fill="#EDE9DE"/><rect x="120" y="84" width="48" height="6" fill="#B65D3A"/><rect x="168" y="84" width="30" height="6" fill="#F7F4ED"/><rect x="198" y="84" width="18" height="6" fill="#EDE9DE"/><rect x="0" y="90" width="42" height="6" fill="#EDE9DE"/><rect x="42" y="90" width="24" height="6" fill="#726A5E"/><rect x="66" y="90" width="54" height="6" fill="#EDE9DE"/><rect x="120" y="90" width="48" height="6" fill="#9A4D2F"/><rect x="168" y="90" width="24" height="6" fill="#2E2E33"/><rect x="192" y="90" width="6" height="6" fill="#F7F4ED"/><rect x="198" y="90" width="18" height="6" fill="#EDE9DE"/><rect x="0" y="96" width="60" height="6" fill="#EDE9DE"/><rect x="60" y="96" width="6" height="6" fill="#B65D3A"/><rect x="66" y="96" width="48" height="6" fill="#CF7A50"/><rect x="114" y="96" width="30" height="6" fill="#3F5C3F"/><rect x="144" y="96" width="6" height="6" fill="#4C6E4A"/><rect x="150" y="96" width="18" height="6" fill="#9A4D2F"/><rect x="168" y="96" width="30" height="6" fill="#F7F4ED"/><rect x="198" y="96" width="18" height="6" fill="#EDE9DE"/><rect x="0" y="102" width="60" height="6" fill="#EDE9DE"/><rect x="60" y="102" width="6" height="6" fill="#B65D3A"/><rect x="66" y="102" width="30" height="6" fill="#CF7A50"/><rect x="96" y="102" width="6" height="6" fill="#9A4D2F"/><rect x="102" y="102" width="12" height="6" fill="#CF7A50"/><rect x="114" y="102" width="36" height="6" fill="#3F5C3F"/><rect x="150" y="102" width="66" height="6" fill="#EDE9DE"/><rect x="0" y="108" width="60" height="6" fill="#EDE9DE"/><rect x="60" y="108" width="36" height="6" fill="#B65D3A"/><rect x="96" y="108" width="6" height="6" fill="#9A4D2F"/><rect x="102" y="108" width="48" height="6" fill="#B65D3A"/><rect x="150" y="108" width="66" height="6" fill="#EDE9DE"/><rect x="0" y="114" width="60" height="6" fill="#EDE9DE"/><rect x="60" y="114" width="12" height="6" fill="#B65D3A"/><rect x="72" y="114" width="6" height="6" fill="#8E867A"/><rect x="78" y="114" width="6" height="6" fill="#726A5E"/><rect x="84" y="114" width="12" height="6" fill="#B65D3A"/><rect x="96" y="114" width="6" height="6" fill="#9A4D2F"/><rect x="102" y="114" width="48" height="6" fill="#B65D3A"/><rect x="150" y="114" width="66" height="6" fill="#EDE9DE"/><rect x="0" y="120" width="60" height="6" fill="#EDE9DE"/><rect x="60" y="120" width="12" height="6" fill="#B65D3A"/><rect x="72" y="120" width="12" height="6" fill="#726A5E"/><rect x="84" y="120" width="12" height="6" fill="#B65D3A"/><rect x="96" y="120" width="6" height="6" fill="#9A4D2F"/><rect x="102" y="120" width="48" height="6" fill="#B65D3A"/><rect x="150" y="120" width="66" height="6" fill="#EDE9DE"/><rect x="0" y="126" width="60" height="6" fill="#EDE9DE"/><rect x="60" y="126" width="36" height="6" fill="#B65D3A"/><rect x="96" y="126" width="6" height="6" fill="#9A4D2F"/><rect x="102" y="126" width="48" height="6" fill="#B65D3A"/><rect x="150" y="126" width="66" height="6" fill="#EDE9DE"/><rect x="0" y="132" width="60" height="6" fill="#EDE9DE"/><rect x="60" y="132" width="90" height="6" fill="#9A4D2F"/><rect x="150" y="132" width="66" height="6" fill="#EDE9DE"/><rect x="0" y="138" width="60" height="6" fill="#EDE9DE"/><rect x="60" y="138" width="90" height="6" fill="#9A4D2F"/><rect x="150" y="138" width="66" height="6" fill="#EDE9DE"/><rect x="0" y="144" width="60" height="6" fill="#33492F"/><rect x="60" y="144" width="6" height="6" fill="#9A4D2F"/><rect x="66" y="144" width="6" height="6" fill="#8E867A"/><rect x="72" y="144" width="12" height="6" fill="#726A5E"/><rect x="84" y="144" width="6" height="6" fill="#9A4D2F"/><rect x="90" y="144" width="6" height="6" fill="#8E867A"/><rect x="96" y="144" width="12" height="6" fill="#726A5E"/><rect x="108" y="144" width="6" height="6" fill="#9A4D2F"/><rect x="114" y="144" width="6" height="6" fill="#8E867A"/><rect x="120" y="144" width="12" height="6" fill="#726A5E"/><rect x="132" y="144" width="6" height="6" fill="#8E867A"/><rect x="138" y="144" width="12" height="6" fill="#726A5E"/><rect x="150" y="144" width="66" height="6" fill="#33492F"/><rect x="0" y="150" width="48" height="6" fill="#4C6E4A"/><rect x="48" y="150" width="18" height="6" fill="#33492F"/><rect x="66" y="150" width="18" height="6" fill="#726A5E"/><rect x="84" y="150" width="6" height="6" fill="#33492F"/><rect x="90" y="150" width="18" height="6" fill="#726A5E"/><rect x="108" y="150" width="6" height="6" fill="#33492F"/><rect x="114" y="150" width="36" height="6" fill="#726A5E"/><rect x="150" y="150" width="66" height="6" fill="#4C6E4A"/><rect x="0" y="156" width="66" height="6" fill="#3F5C3F"/><rect x="66" y="156" width="18" height="6" fill="#726A5E"/><rect x="84" y="156" width="6" height="6" fill="#3F5C3F"/><rect x="90" y="156" width="18" height="6" fill="#726A5E"/><rect x="108" y="156" width="6" height="6" fill="#3F5C3F"/><rect x="114" y="156" width="36" height="6" fill="#726A5E"/><rect x="150" y="156" width="66" height="6" fill="#3F5C3F"/><rect x="0" y="162" width="6" height="6" fill="#3F5C3F"/><rect x="6" y="162" width="6" height="6" fill="#4C6E4A"/><rect x="12" y="162" width="24" height="6" fill="#3F5C3F"/><rect x="36" y="162" width="6" height="6" fill="#4C6E4A"/><rect x="42" y="162" width="24" height="6" fill="#3F5C3F"/><rect x="66" y="162" width="18" height="6" fill="#726A5E"/><rect x="84" y="162" width="6" height="6" fill="#3F5C3F"/><rect x="90" y="162" width="18" height="6" fill="#726A5E"/><rect x="108" y="162" width="6" height="6" fill="#3F5C3F"/><rect x="114" y="162" width="36" height="6" fill="#726A5E"/><rect x="150" y="162" width="6" height="6" fill="#3F5C3F"/><rect x="156" y="162" width="6" height="6" fill="#4C6E4A"/><rect x="162" y="162" width="24" height="6" fill="#3F5C3F"/><rect x="186" y="162" width="6" height="6" fill="#4C6E4A"/><rect x="192" y="162" width="24" height="6" fill="#3F5C3F"/><rect x="0" y="168" width="66" height="6" fill="#3F5C3F"/><rect x="66" y="168" width="18" height="6" fill="#1A1A1F"/><rect x="84" y="168" width="6" height="6" fill="#3F5C3F"/><rect x="90" y="168" width="18" height="6" fill="#1A1A1F"/><rect x="108" y="168" width="6" height="6" fill="#3F5C3F"/><rect x="114" y="168" width="36" height="6" fill="#1A1A1F"/><rect x="150" y="168" width="66" height="6" fill="#3F5C3F"/><rect x="0" y="174" width="216" height="6" fill="#3F5C3F"/><rect x="0" y="180" width="216" height="6" fill="#3F5C3F"/><rect x="0" y="186" width="216" height="6" fill="#3F5C3F"/><rect x="0" y="192" width="216" height="6" fill="#3F5C3F"/><rect x="0" y="198" width="216" height="6" fill="#3F5C3F"/><rect x="0" y="204" width="18" height="6" fill="#3F5C3F"/><rect x="18" y="204" width="6" height="6" fill="#33492F"/><rect x="24" y="204" width="36" height="6" fill="#3F5C3F"/><rect x="60" y="204" width="6" height="6" fill="#33492F"/><rect x="66" y="204" width="36" height="6" fill="#3F5C3F"/><rect x="102" y="204" width="6" height="6" fill="#33492F"/><rect x="108" y="204" width="36" height="6" fill="#3F5C3F"/><rect x="144" y="204" width="6" height="6" fill="#33492F"/><rect x="150" y="204" width="36" height="6" fill="#3F5C3F"/><rect x="186" y="204" width="6" height="6" fill="#33492F"/><rect x="192" y="204" width="24" height="6" fill="#3F5C3F"/><rect x="0" y="210" width="216" height="6" fill="#3F5C3F"/><text x="108" y="260" font-family="'Source Serif 4', Georgia, serif" font-size="52" font-weight="500" fill="#1A1A1F" text-anchor="middle" dominant-baseline="central" letter-spacing="-1">agentplain</text></svg>