<?xml version="1.0" encoding="UTF-8"?>
<svg xmlns="http://www.w3.org/2000/svg" width="1080" height="1080" viewBox="0 0 1080 1080" role="img" aria-label="agentplain for Local business"><rect x="0" y="0" width="1080" height="1080" fill="#F7F4ED"/><clipPath id="sq"><rect x="0" y="0" width="1080" height="560"/></clipPath><g clip-path="url(#sq)"><g transform="translate(80,40) scale(0.74)"><rect x="1310" y="420" width="190" height="204" fill="#F7F4ED"/><rect x="1310" y="420" width="190" height="204" fill="#1A1A1F" opacity="0.14"/><line x1="1405" y1="420" x2="1405" y2="624" stroke="#1A1A1F" stroke-width="1.4" opacity="0.4"/><line x1="1310" y1="522" x2="1500" y2="522" stroke="#1A1A1F" stroke-width="1.4" opacity="0.4"/><circle cx="1360" cy="478" r="22" fill="#B65D3A" opacity="0.35"/><rect x="860" y="692" width="520" height="16" fill="#9A4D2F" opacity="0.65"/><rect x="880" y="708" width="16" height="150" fill="#9A4D2F" opacity="0.6"/><rect x="1344" y="708" width="16" height="150" fill="#9A4D2F" opacity="0.6"/><g transform="translate(1040 600)"><rect x="0" y="0" width="150" height="92" rx="6" fill="#1A1A1F" opacity="0.85"/><rect x="10" y="10" width="130" height="72" fill="#F7F4ED" opacity="0.92"/><line x1="20" y1="30" x2="120" y2="30" stroke="#726A5E" stroke-width="2" opacity="0.5"/><line x1="20" y1="46" x2="120" y2="46" stroke="#726A5E" stroke-width="2" opacity="0.5"/><line x1="20" y1="62" x2="90" y2="62" stroke="#B65D3A" stroke-width="2" opacity="0.7"/><polygon points="-14,92 164,92 176,100 -26,100" fill="#1A1A1F" opacity="0.7"/></g><rect x="960" y="636" width="52" height="56" rx="8" fill="#B65D3A" opacity="0.9"/><path d="M1012 648 a18 18 0 0 1 0 34" fill="none"/><path d="M1012 650 a16 16 0 0 1 0 30" fill="none" stroke="#B65D3A" stroke-width="7" opacity="0.9"/><path d="M972 632 c2 -10 8 -16 8 -16 M988 632 c2 -10 8 -16 8 -16" fill="none" stroke="#726A5E" stroke-width="3" opacity="0.5"/><polygon points="1234,692 1290,692 1282,740 1242,740" fill="#9A4D2F" opacity="0.7"/><path d="M1262 692 C1250 660 1240 640 1236 618 C1252 636 1260 660 1262 686 Z" fill="#3F5C3F" opacity="0.75"/><path d="M1262 692 C1276 662 1292 646 1300 626 C1290 654 1278 678 1264 690 Z" fill="#3F5C3F" opacity="0.6"/><g transform="translate(1170,700) scale(0.6) translate(-135,-280)"><path d="M236 214 C262 206 276 184 272 156 C264 182 250 200 230 214 Z" fill="#1A1A1F"/><ellipse cx="196" cy="220" rx="58" ry="62" fill="#1A1A1F"/><ellipse cx="126" cy="206" rx="48" ry="60" fill="#1A1A1F"/><rect x="124" y="198" width="76" height="84" fill="#1A1A1F"/><rect x="100" y="196" width="24" height="86" rx="11" fill="#1A1A1F"/><rect x="142" y="200" width="24" height="82" rx="11" fill="#1A1A1F"/><rect x="170" y="258" width="44" height="24" rx="11" fill="#1A1A1F"/><ellipse cx="108" cy="150" rx="30" ry="44" fill="#1A1A1F"/><circle cx="86" cy="102" r="40" fill="#1A1A1F"/><ellipse cx="48" cy="118" rx="32" ry="21" fill="#1A1A1F"/><circle cx="26" cy="116" r="8" fill="#1A1A1F"/><path d="M104 78 C82 92 70 124 74 162 C76 184 86 200 100 206 C96 178 98 146 110 116 C115 102 114 88 104 78 Z" fill="#9A4D2F"/><g transform="rotate(-58 110 184)"><rect x="86" y="176" width="48" height="16" rx="8" fill="#B65D3A"/></g><ellipse cx="118" cy="206" rx="17" ry="46" fill="#F7F4ED" opacity="0.9"/><ellipse cx="34" cy="122" rx="14" ry="11" fill="#F7F4ED" opacity="0.85"/><circle cx="92" cy="96" r="6" fill="#F7F4ED" opacity="0.92"/><circle cx="90" cy="97" r="3" fill="#1A1A1F"/></g></g></g><line x1="0" y1="560" x2="1080" y2="560" stroke="#1A1A1F" stroke-width="2" opacity="0.3"/><rect x="0" y="560" width="120" height="6" fill="#B65D3A"/><text x="72" y="632" font-family="ui-monospace, monospace" font-size="24" letter-spacing="3.4" fill="#726A5E" text-transform="uppercase">AGENTPLAIN</text><text x="72" y="690" font-family="ui-monospace, monospace" font-size="22" letter-spacing="3" fill="#B65D3A">LOCAL BUSINESS</text><text x="72" y="786" font-family="Georgia, 'Times New Roman', serif" font-size="66" fill="#1A1A1F">The busywork, done.</text><text x="72" y="862.56" font-family="Georgia, 'Times New Roman', serif" font-size="66" fill="#1A1A1F">Your day, back.</text><text x="72" y="1010" font-family="Georgia, serif" font-size="30" fill="#B65D3A">Intelligence rooted in reality.</text></svg>