<?xml version="1.0" encoding="UTF-8"?>
<svg xmlns="http://www.w3.org/2000/svg" width="640" height="480" viewBox="0 0 640 480" role="img" aria-label="connect your tools — Plaino at the hub">
  <rect x="0" y="0" width="640" height="480" fill="#F7F4ED"/>
  <rect x="28" y="28" width="584" height="424" fill="none"/>
  <rect x="28" y="28" width="584" height="424" rx="14" fill="none" stroke="#E0DAC9" stroke-width="2"/>
  <line x1="28" y1="392" x2="612" y2="392" stroke="#E0DAC9" stroke-width="2" opacity="0.7"/>
  <circle cx="320" cy="230" r="64" fill="#EDE9DE"/><circle cx="320" cy="230" r="64" fill="none" stroke="#B65D3A" stroke-width="3"/><g transform="translate(320,300) scale(0.36) translate(-135,-280)"><path d="M236 214 C262 206 276 184 272 156 C264 182 250 200 230 214 Z" fill="#1A1A1F"/><ellipse cx="196" cy="220" rx="58" ry="62" fill="#1A1A1F"/><ellipse cx="126" cy="206" rx="48" ry="60" fill="#1A1A1F"/><rect x="124" y="198" width="76" height="84" fill="#1A1A1F"/><rect x="100" y="196" width="24" height="86" rx="11" fill="#1A1A1F"/><rect x="142" y="200" width="24" height="82" rx="11" fill="#1A1A1F"/><rect x="170" y="258" width="44" height="24" rx="11" fill="#1A1A1F"/><ellipse cx="108" cy="150" rx="30" ry="44" fill="#1A1A1F"/><circle cx="86" cy="102" r="40" fill="#1A1A1F"/><ellipse cx="48" cy="118" rx="32" ry="21" fill="#1A1A1F"/><circle cx="26" cy="116" r="8" fill="#1A1A1F"/><path d="M104 78 C82 92 70 124 74 162 C76 184 86 200 100 206 C96 178 98 146 110 116 C115 102 114 88 104 78 Z" fill="#9A4D2F"/><g transform="rotate(-58 110 184)"><rect x="86" y="176" width="48" height="16" rx="8" fill="#B65D3A"/></g><ellipse cx="118" cy="206" rx="17" ry="46" fill="#F7F4ED" opacity="0.9"/><ellipse cx="34" cy="122" rx="14" ry="11" fill="#F7F4ED" opacity="0.85"/><circle cx="92" cy="96" r="6" fill="#F7F4ED" opacity="0.92"/><circle cx="90" cy="97" r="3" fill="#1A1A1F"/></g><rect x="106" y="116" width="88" height="68" rx="10" fill="#F7F4ED"/><rect x="106" y="116" width="88" height="68" rx="10" fill="none" stroke="#1A1A1F" stroke-width="2" opacity="0.7"/><circle cx="150" cy="150" r="14" fill="#B65D3A" opacity="0.85"/><line x1="150" y1="150" x2="320" y2="230" stroke="#1A1A1F" stroke-width="2" opacity="0.35"/><rect x="446" y="116" width="88" height="68" rx="10" fill="#F7F4ED"/><rect x="446" y="116" width="88" height="68" rx="10" fill="none" stroke="#1A1A1F" stroke-width="2" opacity="0.7"/><circle cx="490" cy="150" r="14" fill="#3F5C3F" opacity="0.85"/><line x1="490" y1="150" x2="320" y2="230" stroke="#1A1A1F" stroke-width="2" opacity="0.35"/><rect x="446" y="286" width="88" height="68" rx="10" fill="#F7F4ED"/><rect x="446" y="286" width="88" height="68" rx="10" fill="none" stroke="#1A1A1F" stroke-width="2" opacity="0.7"/><circle cx="490" cy="320" r="14" fill="#726A5E" opacity="0.85"/><line x1="490" y1="320" x2="320" y2="230" stroke="#1A1A1F" stroke-width="2" opacity="0.35"/>
</svg>