<?xml version="1.0" encoding="UTF-8"?>
<svg xmlns="http://www.w3.org/2000/svg" width="640" height="480" viewBox="0 0 640 480" role="img" aria-label="Plaino drafts the work on your documents">
  <rect x="0" y="0" width="640" height="480" fill="#F7F4ED"/>
  <rect x="28" y="28" width="584" height="424" fill="none"/>
  <rect x="28" y="28" width="584" height="424" rx="14" fill="none" stroke="#E0DAC9" stroke-width="2"/>
  <line x1="28" y1="392" x2="612" y2="392" stroke="#E0DAC9" stroke-width="2" opacity="0.7"/>
  <g transform="rotate(-3 300 230)"><rect x="214" y="110" width="210" height="250" fill="#F7F4ED"/><rect x="214" y="110" width="210" height="250" fill="none" stroke="#1A1A1F" stroke-width="2" opacity="0.5"/><line x1="240" y1="150" x2="398" y2="150" stroke="#726A5E" stroke-width="4" opacity="0.5"/><line x1="240" y1="180" x2="398" y2="180" stroke="#726A5E" stroke-width="4" opacity="0.5"/><line x1="240" y1="210" x2="360" y2="210" stroke="#726A5E" stroke-width="4" opacity="0.5"/><line x1="240" y1="250" x2="398" y2="250" stroke="#726A5E" stroke-width="4" opacity="0.5"/><line x1="240" y1="280" x2="340" y2="280" stroke="#B65D3A" stroke-width="4" opacity="0.85"/><line x1="240" y1="310" x2="398" y2="310" stroke="#726A5E" stroke-width="4" opacity="0.5"/></g><g transform="translate(470,360) scale(0.4) translate(-135,-280)"><path d="M236 214 C262 206 276 184 272 156 C264 182 250 200 230 214 Z" fill="#1A1A1F"/><ellipse cx="196" cy="220" rx="58" ry="62" fill="#1A1A1F"/><ellipse cx="126" cy="206" rx="48" ry="60" fill="#1A1A1F"/><rect x="124" y="198" width="76" height="84" fill="#1A1A1F"/><rect x="100" y="196" width="24" height="86" rx="11" fill="#1A1A1F"/><rect x="142" y="200" width="24" height="82" rx="11" fill="#1A1A1F"/><rect x="170" y="258" width="44" height="24" rx="11" fill="#1A1A1F"/><ellipse cx="108" cy="150" rx="30" ry="44" fill="#1A1A1F"/><circle cx="86" cy="102" r="40" fill="#1A1A1F"/><ellipse cx="48" cy="118" rx="32" ry="21" fill="#1A1A1F"/><circle cx="26" cy="116" r="8" fill="#1A1A1F"/><path d="M104 78 C82 92 70 124 74 162 C76 184 86 200 100 206 C96 178 98 146 110 116 C115 102 114 88 104 78 Z" fill="#9A4D2F"/><g transform="rotate(-58 110 184)"><rect x="86" y="176" width="48" height="16" rx="8" fill="#B65D3A"/></g><ellipse cx="118" cy="206" rx="17" ry="46" fill="#F7F4ED" opacity="0.9"/><ellipse cx="34" cy="122" rx="14" ry="11" fill="#F7F4ED" opacity="0.85"/><circle cx="92" cy="96" r="6" fill="#F7F4ED" opacity="0.92"/><circle cx="90" cy="97" r="3" fill="#1A1A1F"/></g><polygon points="430,250 470,240 462,276" fill="#B65D3A" opacity="0.9"/>
</svg>