<svg xmlns="http://www.w3.org/2000/svg" viewBox="0 0 464 320" shape-rendering="crispEdges"><rect x="296" y="64" width="8" height="8" fill="#1A1A1F"/><rect x="312" y="64" width="24" height="8" fill="#1A1A1F"/><rect x="296" y="72" width="8" height="8" fill="#1A1A1F"/><rect x="312" y="72" width="48" height="8" fill="#1A1A1F"/><rect x="296" y="80" width="8" height="8" fill="#1A1A1F"/><rect x="312" y="80" width="48" height="8" fill="#1A1A1F"/><rect x="296" y="88" width="8" height="8" fill="#1A1A1F"/><rect x="312" y="88" width="56" height="8" fill="#1A1A1F"/><rect x="304" y="96" width="56" height="8" fill="#1A1A1F"/><rect x="200" y="104" width="24" height="8" fill="#1A1A1F"/><rect x="288" y="104" width="72" height="8" fill="#1A1A1F"/><rect x="160" y="112" width="64" height="8" fill="#1A1A1F"/><rect x="272" y="112" width="88" height="8" fill="#1A1A1F"/><rect x="80" y="120" width="152" height="8" fill="#1A1A1F"/><rect x="264" y="120" width="88" height="8" fill="#1A1A1F"/><rect x="360" y="120" width="8" height="8" fill="#1A1A1F"/><rect x="72" y="128" width="168" height="8" fill="#1A1A1F"/><rect x="256" y="128" width="128" height="8" fill="#1A1A1F"/><rect x="64" y="136" width="128" height="8" fill="#1A1A1F"/><rect x="200" y="136" width="40" height="8" fill="#1A1A1F"/><rect x="248" y="136" width="152" height="8" fill="#1A1A1F"/><rect x="56" y="144" width="136" height="8" fill="#1A1A1F"/><rect x="200" y="144" width="208" height="8" fill="#1A1A1F"/><rect x="48" y="152" width="368" height="8" fill="#1A1A1F"/><rect x="48" y="160" width="368" height="8" fill="#1A1A1F"/><rect x="40" y="168" width="256" height="8" fill="#1A1A1F"/><rect x="336" y="168" width="80" height="8" fill="#1A1A1F"/><rect x="32" y="176" width="256" height="8" fill="#1A1A1F"/><rect x="16" y="184" width="24" height="8" fill="#1A1A1F"/><rect x="56" y="184" width="224" height="8" fill="#1A1A1F"/><rect x="24" y="192" width="8" height="8" fill="#1A1A1F"/><rect x="72" y="192" width="208" height="8" fill="#1A1A1F"/><rect x="88" y="200" width="48" height="8" fill="#1A1A1F"/><rect x="176" y="200" width="96" height="8" fill="#1A1A1F"/><rect x="88" y="208" width="16" height="8" fill="#1A1A1F"/><rect x="120" y="208" width="24" height="8" fill="#1A1A1F"/><rect x="168" y="208" width="8" height="8" fill="#1A1A1F"/><rect x="200" y="208" width="24" height="8" fill="#1A1A1F"/><rect x="240" y="208" width="24" height="8" fill="#1A1A1F"/><rect x="88" y="216" width="16" height="8" fill="#1A1A1F"/><rect x="120" y="216" width="16" height="8" fill="#1A1A1F"/><rect x="208" y="216" width="16" height="8" fill="#1A1A1F"/><rect x="232" y="216" width="32" height="8" fill="#1A1A1F"/><rect x="88" y="224" width="16" height="8" fill="#1A1A1F"/><rect x="120" y="224" width="16" height="8" fill="#1A1A1F"/><rect x="208" y="224" width="16" height="8" fill="#1A1A1F"/><rect x="240" y="224" width="24" height="8" fill="#1A1A1F"/><rect x="88" y="232" width="16" height="8" fill="#1A1A1F"/><rect x="120" y="232" width="16" height="8" fill="#1A1A1F"/><rect x="208" y="232" width="16" height="8" fill="#1A1A1F"/><rect x="240" y="232" width="16" height="8" fill="#1A1A1F"/><rect x="88" y="240" width="16" height="8" fill="#1A1A1F"/><rect x="120" y="240" width="16" height="8" fill="#1A1A1F"/><rect x="208" y="240" width="16" height="8" fill="#1A1A1F"/><rect x="240" y="240" width="16" height="8" fill="#1A1A1F"/><rect x="88" y="248" width="16" height="8" fill="#1A1A1F"/><rect x="120" y="248" width="16" height="8" fill="#1A1A1F"/><rect x="208" y="248" width="16" height="8" fill="#1A1A1F"/><rect x="240" y="248" width="16" height="8" fill="#1A1A1F"/><rect x="88" y="256" width="16" height="8" fill="#1A1A1F"/><rect x="120" y="256" width="16" height="8" fill="#1A1A1F"/><rect x="208" y="256" width="16" height="8" fill="#1A1A1F"/><rect x="240" y="256" width="16" height="8" fill="#1A1A1F"/><rect x="88" y="264" width="16" height="8" fill="#1A1A1F"/><rect x="120" y="264" width="16" height="8" fill="#1A1A1F"/><rect x="208" y="264" width="16" height="8" fill="#1A1A1F"/><rect x="240" y="264" width="16" height="8" fill="#1A1A1F"/><rect x="88" y="272" width="16" height="8" fill="#1A1A1F"/><rect x="120" y="272" width="16" height="8" fill="#1A1A1F"/><rect x="208" y="272" width="16" height="8" fill="#1A1A1F"/><rect x="240" y="272" width="16" height="8" fill="#1A1A1F"/><rect x="88" y="280" width="16" height="8" fill="#1A1A1F"/><rect x="120" y="280" width="16" height="8" fill="#1A1A1F"/><rect x="208" y="280" width="16" height="8" fill="#1A1A1F"/><rect x="240" y="280" width="16" height="8" fill="#1A1A1F"/><rect x="88" y="288" width="24" height="8" fill="#1A1A1F"/><rect x="120" y="288" width="24" height="8" fill="#1A1A1F"/><rect x="208" y="288" width="24" height="8" fill="#1A1A1F"/><rect x="240" y="288" width="24" height="8" fill="#1A1A1F"/></svg>