<svg xmlns="http://www.w3.org/2000/svg" viewBox="0 0 400 220" role="img" aria-label="agentplain — intelligence rooted in reality" style="color:#1A1A1F">
  <rect width="400" height="220" fill="#F7F4ED"/>
  <g id="mark" fill="none" stroke="currentColor" stroke-linecap="round" stroke-linejoin="round">
    <!-- ground line (thin, anchors the stalks) -->
    <line x1="176" y1="55" x2="224" y2="55" stroke-width="1.1" opacity="0.45"/>
    <!-- LEFT stalk (slightly shorter, leans left) -->
    <path d="M188 55 C188 48 187 40 186 32" stroke-width="1.6"/>
    <!-- left grain head: kernels along upper stalk -->
    <path d="M186 32 L182 28" stroke-width="1.3"/>
    <path d="M186 32 L190 28" stroke-width="1.3"/>
    <path d="M186 37 L183 33" stroke-width="1.2"/>
    <path d="M186 37 L189 33" stroke-width="1.2"/>
    <path d="M187 42 L184 38" stroke-width="1.1"/>
    <path d="M187 42 L190 38" stroke-width="1.1"/>
    <!-- CENTER stalk (tallest) -->
    <path d="M200 55 L200 25" stroke-width="1.6"/>
    <path d="M200 25 L196 21" stroke-width="1.3"/>
    <path d="M200 25 L204 21" stroke-width="1.3"/>
    <path d="M200 30 L196 26" stroke-width="1.2"/>
    <path d="M200 30 L204 26" stroke-width="1.2"/>
    <path d="M200 35 L196 31" stroke-width="1.1"/>
    <path d="M200 35 L204 31" stroke-width="1.1"/>
    <path d="M200 40 L197 36" stroke-width="1.1"/>
    <path d="M200 40 L203 36" stroke-width="1.1"/>
    <!-- RIGHT stalk (slightly shorter, leans right) -->
    <path d="M212 55 C212 48 213 40 214 32" stroke-width="1.6"/>
    <path d="M214 32 L210 28" stroke-width="1.3"/>
    <path d="M214 32 L218 28" stroke-width="1.3"/>
    <path d="M214 37 L211 33" stroke-width="1.2"/>
    <path d="M214 37 L217 33" stroke-width="1.2"/>
    <path d="M213 42 L210 38" stroke-width="1.1"/>
    <path d="M213 42 L216 38" stroke-width="1.1"/>
  </g>
  <text x="200" y="135" text-anchor="middle" font-family="'Source Serif 4', 'Source Serif Pro', Georgia, serif" font-size="52" font-weight="500" fill="currentColor" letter-spacing="-0.8">agentplain</text>
  <text x="200" y="175" text-anchor="middle" font-family="'JetBrains Mono', ui-monospace, 'SFMono-Regular', monospace" font-size="9.5" font-weight="500" fill="currentColor" letter-spacing="3.6">INTELLIGENCE  ROOTED  IN  REALITY</text>
</svg>
