<?xml version="1.0" encoding="UTF-8"?>
<svg xmlns="http://www.w3.org/2000/svg" width="1600" height="1000" viewBox="0 0 1600 1000" role="img" aria-label="a deposition lectern with stacked law books, a gavel and a sealed document, and Plaino standing watch">
  <rect x="0" y="0" width="1600" height="1000" fill="#F7F4ED"/>
  <rect x="0" y="624" width="1600" height="376" fill="#EDE9DE"/>
  <line x1="0" y1="624" x2="1600" y2="624" stroke="#1A1A1F" stroke-width="1.5" opacity="0.35"/>
  <line x1="0" y1="694" x2="1600" y2="694" stroke="#E0DAC9" stroke-width="1.5" opacity="0.6"/>
  
  <rect x="150" y="598" width="70" height="26" fill="#726A5E" opacity="0.18"/>
  <polygon points="150,598 185,580 220,598" fill="#B65D3A" opacity="0.4"/>
  <rect x="1320" y="410" width="180" height="214" fill="#EDE9DE"/><rect x="1320" y="410" width="180" height="214" fill="#1A1A1F" opacity="0.1"/><line x1="1320" y1="410" x2="1500" y2="410" stroke="#B65D3A" stroke-width="3" opacity="0.7"/><polygon points="1140,624 1300,624 1276,470 1164,470" fill="#1A1A1F" opacity="0.85"/><polygon points="1158,470 1282,470 1272,446 1168,446" fill="#B65D3A" opacity="0.85"/><rect x="1206" y="624" width="28" height="0" fill="#1A1A1F"/><rect x="900" y="678" width="150" height="26" fill="#B65D3A" opacity="0.85"/><rect x="908" y="652" width="150" height="26" fill="#3F5C3F" opacity="0.55"/><rect x="896" y="704" width="150" height="26" fill="#1A1A1F" opacity="0.7"/><line x1="900" y1="691" x2="1050" y2="691" stroke="#F7F4ED" stroke-width="1.4" opacity="0.5"/><line x1="908" y1="665" x2="1058" y2="665" stroke="#F7F4ED" stroke-width="1.4" opacity="0.5"/><g transform="rotate(-18 1130 700)"><rect x="1086" y="686" width="96" height="26" rx="8" fill="#9A4D2F"/><rect x="1120" y="660" width="28" height="78" rx="6" fill="#9A4D2F"/></g><rect x="1080" y="716" width="110" height="16" rx="4" fill="#1A1A1F" opacity="0.8"/><g transform="rotate(6 1010 640)"><rect x="960" y="600" width="110" height="80" fill="#F7F4ED"/><rect x="960" y="600" width="110" height="80" fill="#1A1A1F" opacity="0.12"/><line x1="976" y1="622" x2="1054" y2="622" stroke="#726A5E" stroke-width="1.6" opacity="0.5"/><line x1="976" y1="638" x2="1054" y2="638" stroke="#726A5E" stroke-width="1.6" opacity="0.5"/><line x1="976" y1="654" x2="1020" y2="654" stroke="#726A5E" stroke-width="1.6" opacity="0.5"/><circle cx="1040" cy="662" r="12" fill="#B65D3A" opacity="0.9"/></g><g transform="translate(1180,692) scale(0.6) translate(-135,-280)"><path d="M236 214 C262 206 276 184 272 156 C264 182 250 200 230 214 Z" fill="#1A1A1F"/><ellipse cx="196" cy="220" rx="58" ry="62" fill="#1A1A1F"/><ellipse cx="126" cy="206" rx="48" ry="60" fill="#1A1A1F"/><rect x="124" y="198" width="76" height="84" fill="#1A1A1F"/><rect x="100" y="196" width="24" height="86" rx="11" fill="#1A1A1F"/><rect x="142" y="200" width="24" height="82" rx="11" fill="#1A1A1F"/><rect x="170" y="258" width="44" height="24" rx="11" fill="#1A1A1F"/><ellipse cx="108" cy="150" rx="30" ry="44" fill="#1A1A1F"/><circle cx="86" cy="102" r="40" fill="#1A1A1F"/><ellipse cx="48" cy="118" rx="32" ry="21" fill="#1A1A1F"/><circle cx="26" cy="116" r="8" fill="#1A1A1F"/><path d="M104 78 C82 92 70 124 74 162 C76 184 86 200 100 206 C96 178 98 146 110 116 C115 102 114 88 104 78 Z" fill="#9A4D2F"/><g transform="rotate(-58 110 184)"><rect x="86" y="176" width="48" height="16" rx="8" fill="#B65D3A"/></g><ellipse cx="118" cy="206" rx="17" ry="46" fill="#F7F4ED" opacity="0.9"/><ellipse cx="34" cy="122" rx="14" ry="11" fill="#F7F4ED" opacity="0.85"/><circle cx="92" cy="96" r="6" fill="#F7F4ED" opacity="0.92"/><circle cx="90" cy="97" r="3" fill="#1A1A1F"/></g>
</svg>