<?xml version="1.0" encoding="UTF-8"?>
<svg xmlns="http://www.w3.org/2000/svg" width="1600" height="1000" viewBox="0 0 1600 1000" role="img" aria-label="a service truck with an open maintenance kit and a keyring, a multi-unit building, and Plaino beside the kit">
  <rect x="0" y="0" width="1600" height="1000" fill="#F7F4ED"/>
  <rect x="0" y="624" width="1600" height="376" fill="#EDE9DE"/>
  <line x1="0" y1="624" x2="1600" y2="624" stroke="#1A1A1F" stroke-width="1.5" opacity="0.35"/>
  <line x1="0" y1="694" x2="1600" y2="694" stroke="#E0DAC9" stroke-width="1.5" opacity="0.6"/>
  
  <rect x="150" y="598" width="70" height="26" fill="#726A5E" opacity="0.18"/>
  <polygon points="150,598 185,580 220,598" fill="#B65D3A" opacity="0.4"/>
  <rect x="1300" y="430" width="200" height="194" fill="#EDE9DE"/><rect x="1300" y="430" width="200" height="194" fill="#726A5E" opacity="0.1"/><rect x="1322" y="452" width="26" height="34" fill="#1A1A1F" opacity="0.6"/><rect x="1366" y="452" width="26" height="34" fill="#1A1A1F" opacity="0.6"/><rect x="1410" y="452" width="26" height="34" fill="#1A1A1F" opacity="0.6"/><rect x="1454" y="452" width="26" height="34" fill="#1A1A1F" opacity="0.6"/><rect x="1322" y="508" width="26" height="34" fill="#1A1A1F" opacity="0.6"/><rect x="1366" y="508" width="26" height="34" fill="#1A1A1F" opacity="0.6"/><rect x="1410" y="508" width="26" height="34" fill="#1A1A1F" opacity="0.6"/><rect x="1454" y="508" width="26" height="34" fill="#1A1A1F" opacity="0.6"/><rect x="1322" y="564" width="26" height="34" fill="#1A1A1F" opacity="0.6"/><rect x="1366" y="564" width="26" height="34" fill="#1A1A1F" opacity="0.6"/><rect x="1410" y="564" width="26" height="34" fill="#1A1A1F" opacity="0.6"/><rect x="1454" y="564" width="26" height="34" fill="#1A1A1F" opacity="0.6"/><rect x="1382" y="588" width="36" height="36" fill="#B65D3A" opacity="0.85"/><rect x="900" y="560" width="230" height="96" fill="#B65D3A" opacity="0.9"/><rect x="1130" y="588" width="96" height="68" fill="#1A1A1F" opacity="0.82"/><polygon points="1130,588 1180,588 1196,624 1130,624" fill="#F7F4ED" opacity="0.85"/><rect x="900" y="656" width="326" height="14" fill="#1A1A1F" opacity="0.8"/><circle cx="966" cy="678" r="30" fill="#1A1A1F"/><circle cx="966" cy="678" r="12" fill="#EDE9DE"/><circle cx="1166" cy="678" r="30" fill="#1A1A1F"/><circle cx="1166" cy="678" r="12" fill="#EDE9DE"/><rect x="924" y="584" width="70" height="8" fill="#F7F4ED" opacity="0.6"/><rect x="924" y="600" width="90" height="8" fill="#F7F4ED" opacity="0.45"/><rect x="820" y="690" width="120" height="50" fill="#3F5C3F" opacity="0.7"/><rect x="820" y="678" width="120" height="14" fill="#1A1A1F" opacity="0.7"/><rect x="852" y="660" width="56" height="20" fill="#1A1A1F" opacity="0.6"/><g transform="rotate(-24 800 700)"><rect x="792" y="640" width="14" height="90" rx="6" fill="#726A5E" opacity="0.85"/><path d="M785 632 a18 18 0 1 1 28 0 l-7 8 -14 0 z" fill="#726A5E" opacity="0.85"/></g><circle cx="1280" cy="700" r="18" fill="#B65D3A" opacity="0.9"/><circle cx="1280" cy="700" r="9" fill="#EDE9DE"/><rect x="1294" y="694" width="34" height="7" fill="#B65D3A" opacity="0.9"/><rect x="1294" y="706" width="28" height="7" fill="#B65D3A" opacity="0.9"/><g transform="translate(1010,720) scale(0.56) translate(-135,-280)"><path d="M236 214 C262 206 276 184 272 156 C264 182 250 200 230 214 Z" fill="#1A1A1F"/><ellipse cx="196" cy="220" rx="58" ry="62" fill="#1A1A1F"/><ellipse cx="126" cy="206" rx="48" ry="60" fill="#1A1A1F"/><rect x="124" y="198" width="76" height="84" fill="#1A1A1F"/><rect x="100" y="196" width="24" height="86" rx="11" fill="#1A1A1F"/><rect x="142" y="200" width="24" height="82" rx="11" fill="#1A1A1F"/><rect x="170" y="258" width="44" height="24" rx="11" fill="#1A1A1F"/><ellipse cx="108" cy="150" rx="30" ry="44" fill="#1A1A1F"/><circle cx="86" cy="102" r="40" fill="#1A1A1F"/><ellipse cx="48" cy="118" rx="32" ry="21" fill="#1A1A1F"/><circle cx="26" cy="116" r="8" fill="#1A1A1F"/><path d="M104 78 C82 92 70 124 74 162 C76 184 86 200 100 206 C96 178 98 146 110 116 C115 102 114 88 104 78 Z" fill="#9A4D2F"/><g transform="rotate(-58 110 184)"><rect x="86" y="176" width="48" height="16" rx="8" fill="#B65D3A"/></g><ellipse cx="118" cy="206" rx="17" ry="46" fill="#F7F4ED" opacity="0.9"/><ellipse cx="34" cy="122" rx="14" ry="11" fill="#F7F4ED" opacity="0.85"/><circle cx="92" cy="96" r="6" fill="#F7F4ED" opacity="0.92"/><circle cx="90" cy="97" r="3" fill="#1A1A1F"/></g>
</svg>