<svg xmlns="http://www.w3.org/2000/svg" viewBox="0 0 216 286" shape-rendering="crispEdges"><rect x="0" y="0" width="216" height="6" fill="#F7F4ED"/><rect x="0" y="6" width="132" height="6" fill="#F7F4ED"/><rect x="132" y="6" width="6" height="6" fill="#B65D3A"/><rect x="138" y="6" width="78" height="6" fill="#F7F4ED"/><rect x="0" y="12" width="102" height="6" fill="#F7F4ED"/><rect x="102" y="12" width="6" height="6" fill="#1A1A1F"/><rect x="108" y="12" width="24" height="6" fill="#F7F4ED"/><rect x="132" y="12" width="6" height="6" fill="#1A1A1F"/><rect x="138" y="12" width="78" height="6" fill="#F7F4ED"/><rect x="0" y="18" width="102" height="6" fill="#F7F4ED"/><rect x="102" y="18" width="12" height="6" fill="#1A1A1F"/><rect x="114" y="18" width="18" height="6" fill="#F7F4ED"/><rect x="132" y="18" width="6" height="6" fill="#1A1A1F"/><rect x="138" y="18" width="78" height="6" fill="#F7F4ED"/><rect x="0" y="24" width="102" height="6" fill="#F7F4ED"/><rect x="102" y="24" width="42" height="6" fill="#1A1A1F"/><rect x="144" y="24" width="72" height="6" fill="#F7F4ED"/><rect x="0" y="30" width="96" height="6" fill="#F7F4ED"/><rect x="96" y="30" width="54" height="6" fill="#1A1A1F"/><rect x="150" y="30" width="66" height="6" fill="#F7F4ED"/><rect x="0" y="36" width="96" height="6" fill="#F7F4ED"/><rect x="96" y="36" width="42" height="6" fill="#1A1A1F"/><rect x="138" y="36" width="6" height="6" fill="#F7F4ED"/><rect x="144" y="36" width="18" height="6" fill="#1A1A1F"/><rect x="162" y="36" width="54" height="6" fill="#F7F4ED"/><rect x="0" y="42" width="96" height="6" fill="#F7F4ED"/><rect x="96" y="42" width="72" height="6" fill="#1A1A1F"/><rect x="168" y="42" width="48" height="6" fill="#F7F4ED"/><rect x="0" y="48" width="96" height="6" fill="#F7F4ED"/><rect x="96" y="48" width="60" height="6" fill="#1A1A1F"/><rect x="156" y="48" width="60" height="6" fill="#F7F4ED"/><rect x="0" y="54" width="102" height="6" fill="#F7F4ED"/><rect x="102" y="54" width="42" height="6" fill="#1A1A1F"/><rect x="144" y="54" width="72" height="6" fill="#F7F4ED"/><rect x="0" y="60" width="108" height="6" fill="#F7F4ED"/><rect x="108" y="60" width="30" height="6" fill="#1A1A1F"/><rect x="138" y="60" width="78" height="6" fill="#F7F4ED"/><rect x="0" y="66" width="108" height="6" fill="#F7F4ED"/><rect x="108" y="66" width="30" height="6" fill="#1A1A1F"/><rect x="138" y="66" width="78" height="6" fill="#F7F4ED"/><rect x="0" y="72" width="96" height="6" fill="#F7F4ED"/><rect x="96" y="72" width="54" height="6" fill="#1A1A1F"/><rect x="150" y="72" width="66" height="6" fill="#F7F4ED"/><rect x="0" y="78" width="84" height="6" fill="#F7F4ED"/><rect x="84" y="78" width="66" height="6" fill="#1A1A1F"/><rect x="150" y="78" width="66" height="6" fill="#F7F4ED"/><rect x="0" y="84" width="48" height="6" fill="#F7F4ED"/><rect x="48" y="84" width="12" height="6" fill="#1A1A1F"/><rect x="60" y="84" width="18" height="6" fill="#F7F4ED"/><rect x="78" y="84" width="72" height="6" fill="#1A1A1F"/><rect x="150" y="84" width="66" height="6" fill="#F7F4ED"/><rect x="0" y="90" width="54" height="6" fill="#F7F4ED"/><rect x="54" y="90" width="12" height="6" fill="#1A1A1F"/><rect x="66" y="90" width="6" height="6" fill="#F7F4ED"/><rect x="72" y="90" width="78" height="6" fill="#1A1A1F"/><rect x="150" y="90" width="66" height="6" fill="#F7F4ED"/><rect x="0" y="96" width="66" height="6" fill="#F7F4ED"/><rect x="66" y="96" width="84" height="6" fill="#1A1A1F"/><rect x="150" y="96" width="66" height="6" fill="#F7F4ED"/><rect x="0" y="102" width="66" height="6" fill="#F7F4ED"/><rect x="66" y="102" width="84" height="6" fill="#1A1A1F"/><rect x="150" y="102" width="66" height="6" fill="#F7F4ED"/><rect x="0" y="108" width="66" height="6" fill="#F7F4ED"/><rect x="66" y="108" width="84" height="6" fill="#1A1A1F"/><rect x="150" y="108" width="66" height="6" fill="#F7F4ED"/><rect x="0" y="114" width="66" height="6" fill="#F7F4ED"/><rect x="66" y="114" width="78" height="6" fill="#1A1A1F"/><rect x="144" y="114" width="72" height="6" fill="#F7F4ED"/><rect x="0" y="120" width="66" height="6" fill="#F7F4ED"/><rect x="66" y="120" width="48" height="6" fill="#1A1A1F"/><rect x="114" y="120" width="6" height="6" fill="#F7F4ED"/><rect x="120" y="120" width="24" height="6" fill="#1A1A1F"/><rect x="144" y="120" width="72" height="6" fill="#F7F4ED"/><rect x="0" y="126" width="66" height="6" fill="#F7F4ED"/><rect x="66" y="126" width="48" height="6" fill="#1A1A1F"/><rect x="114" y="126" width="6" height="6" fill="#F7F4ED"/><rect x="120" y="126" width="24" height="6" fill="#1A1A1F"/><rect x="144" y="126" width="72" height="6" fill="#F7F4ED"/><rect x="0" y="132" width="66" height="6" fill="#F7F4ED"/><rect x="66" y="132" width="48" height="6" fill="#1A1A1F"/><rect x="114" y="132" width="6" height="6" fill="#F7F4ED"/><rect x="120" y="132" width="24" height="6" fill="#1A1A1F"/><rect x="144" y="132" width="72" height="6" fill="#F7F4ED"/><rect x="0" y="138" width="72" height="6" fill="#F7F4ED"/><rect x="72" y="138" width="42" height="6" fill="#1A1A1F"/><rect x="114" y="138" width="6" height="6" fill="#F7F4ED"/><rect x="120" y="138" width="24" height="6" fill="#1A1A1F"/><rect x="144" y="138" width="72" height="6" fill="#F7F4ED"/><rect x="0" y="144" width="216" height="6" fill="#1A1A1F"/><rect x="0" y="150" width="216" height="6" fill="#B65D3A"/><rect x="0" y="156" width="216" height="6" fill="#F7F4ED"/><rect x="0" y="162" width="216" height="6" fill="#F7F4ED"/><rect x="0" y="168" width="216" height="6" fill="#F7F4ED"/><rect x="0" y="174" width="216" height="6" fill="#F7F4ED"/><rect x="0" y="180" width="216" height="6" fill="#F7F4ED"/><rect x="0" y="186" width="216" height="6" fill="#F7F4ED"/><rect x="0" y="192" width="216" height="6" fill="#F7F4ED"/><rect x="0" y="198" width="216" height="6" fill="#F7F4ED"/><rect x="0" y="204" width="216" height="6" fill="#F7F4ED"/><rect x="0" y="210" width="216" height="6" fill="#F7F4ED"/><text x="108" y="260" font-family="'Source Serif 4', Georgia, serif" font-size="52" font-weight="500" fill="#1A1A1F" text-anchor="middle" dominant-baseline="central" letter-spacing="-1">agentplain</text></svg>