<?xml version="1.0" encoding="UTF-8"?>
<svg xmlns="http://www.w3.org/2000/svg" width="1080" height="1350" viewBox="0 0 1080 1350" role="img" aria-label="agentplain for CPAs &amp; tax"><rect x="0" y="0" width="1080" height="1350" fill="#F7F4ED"/><clipPath id="st"><rect x="0" y="120" width="1080" height="640"/></clipPath><g clip-path="url(#st)"><g transform="translate(60,130) scale(0.78)"><rect x="1300" y="430" width="200" height="194" fill="#F7F4ED"/><rect x="1300" y="430" width="200" height="194" fill="#1A1A1F" opacity="0.14"/><line x1="1400" y1="430" x2="1400" y2="624" stroke="#1A1A1F" stroke-width="1.4" opacity="0.4"/><line x1="1300" y1="527" x2="1500" y2="527" stroke="#1A1A1F" stroke-width="1.4" opacity="0.4"/><rect x="840" y="700" width="560" height="16" fill="#1A1A1F" opacity="0.9"/><rect x="858" y="716" width="16" height="150" fill="#1A1A1F" opacity="0.7"/><rect x="1366" y="716" width="16" height="150" fill="#1A1A1F" opacity="0.7"/><rect x="900" y="636" width="170" height="22" fill="#B65D3A" opacity="0.85"/><rect x="910" y="614" width="170" height="22" fill="#3F5C3F" opacity="0.5"/><rect x="896" y="658" width="170" height="22" fill="#726A5E" opacity="0.4"/><rect x="1016" y="656" width="30" height="24" fill="#F7F4ED"/><g transform="rotate(-3 1170 676)"><rect x="1110" y="640" width="130" height="56" fill="#F7F4ED"/><rect x="1110" y="640" width="130" height="56" fill="#1A1A1F" opacity="0.14"/><line x1="1175" y1="640" x2="1175" y2="696" stroke="#1A1A1F" stroke-width="1.2" opacity="0.4"/><line x1="1124" y1="658" x2="1166" y2="658" stroke="#726A5E" stroke-width="1.6" opacity="0.5"/><line x1="1124" y1="672" x2="1166" y2="672" stroke="#726A5E" stroke-width="1.6" opacity="0.5"/><line x1="1184" y1="658" x2="1226" y2="658" stroke="#726A5E" stroke-width="1.6" opacity="0.5"/><line x1="1184" y1="672" x2="1226" y2="672" stroke="#726A5E" stroke-width="1.6" opacity="0.5"/></g><rect x="1252" y="648" width="70" height="50" rx="6" fill="#1A1A1F" opacity="0.85"/><rect x="1262" y="656" width="50" height="12" fill="#F7F4ED" opacity="0.85"/><circle cx="1270" cy="684" r="4" fill="#F7F4ED" opacity="0.7"/><circle cx="1286" cy="684" r="4" fill="#F7F4ED" opacity="0.7"/><circle cx="1302" cy="684" r="4" fill="#B65D3A" opacity="0.9"/><rect x="862" y="560" width="12" height="140" fill="#1A1A1F" opacity="0.8"/><line x1="868" y1="564" x2="940" y2="540" stroke="#1A1A1F" stroke-width="8" opacity="0.85"/><polygon points="928,522 968,530 948,560 916,552" fill="#B65D3A" opacity="0.85"/><circle cx="944" cy="552" r="6" fill="#F7F4ED" opacity="0.9"/><g transform="translate(1190,700) scale(0.62) translate(-135,-280)"><path d="M236 214 C262 206 276 184 272 156 C264 182 250 200 230 214 Z" fill="#1A1A1F"/><ellipse cx="196" cy="220" rx="58" ry="62" fill="#1A1A1F"/><ellipse cx="126" cy="206" rx="48" ry="60" fill="#1A1A1F"/><rect x="124" y="198" width="76" height="84" fill="#1A1A1F"/><rect x="100" y="196" width="24" height="86" rx="11" fill="#1A1A1F"/><rect x="142" y="200" width="24" height="82" rx="11" fill="#1A1A1F"/><rect x="170" y="258" width="44" height="24" rx="11" fill="#1A1A1F"/><ellipse cx="108" cy="150" rx="30" ry="44" fill="#1A1A1F"/><circle cx="86" cy="102" r="40" fill="#1A1A1F"/><ellipse cx="48" cy="118" rx="32" ry="21" fill="#1A1A1F"/><circle cx="26" cy="116" r="8" fill="#1A1A1F"/><path d="M104 78 C82 92 70 124 74 162 C76 184 86 200 100 206 C96 178 98 146 110 116 C115 102 114 88 104 78 Z" fill="#9A4D2F"/><g transform="rotate(-58 110 184)"><rect x="86" y="176" width="48" height="16" rx="8" fill="#B65D3A"/></g><ellipse cx="118" cy="206" rx="17" ry="46" fill="#F7F4ED" opacity="0.9"/><ellipse cx="34" cy="122" rx="14" ry="11" fill="#F7F4ED" opacity="0.85"/><circle cx="92" cy="96" r="6" fill="#F7F4ED" opacity="0.92"/><circle cx="90" cy="97" r="3" fill="#1A1A1F"/></g></g></g><text x="72" y="96" font-family="ui-monospace, monospace" font-size="24" letter-spacing="3.4" fill="#726A5E" text-transform="uppercase">AGENTPLAIN</text><line x1="0" y1="760" x2="1080" y2="760" stroke="#1A1A1F" stroke-width="2" opacity="0.3"/><rect x="72" y="800" width="120" height="6" fill="#B65D3A"/><text x="72" y="884" font-family="ui-monospace, monospace" font-size="24" letter-spacing="3" fill="#B65D3A">CPAS &amp; TAX</text><text x="72" y="980" font-family="Georgia, 'Times New Roman', serif" font-size="70" fill="#1A1A1F">Tax season, organized</text><text x="72" y="1061.2" font-family="Georgia, 'Times New Roman', serif" font-size="70" fill="#1A1A1F">before you sit down.</text><text x="72" y="1280" font-family="Georgia, serif" font-size="34" fill="#B65D3A">Intelligence rooted in reality.</text></svg>