<svg xmlns="http://www.w3.org/2000/svg" viewBox="0 0 408 478" shape-rendering="crispEdges"><rect x="0" y="0" width="408" height="6" fill="#F7F4ED"/><rect x="0" y="6" width="408" height="6" fill="#F7F4ED"/><rect x="0" y="12" width="408" height="6" fill="#F7F4ED"/><rect x="0" y="18" width="408" height="6" fill="#F7F4ED"/><rect x="0" y="24" width="408" height="6" fill="#F7F4ED"/><rect x="0" y="30" width="408" height="6" fill="#F7F4ED"/><rect x="0" y="36" width="408" height="6" fill="#F7F4ED"/><rect x="0" y="42" width="252" height="6" fill="#F7F4ED"/><rect x="252" y="42" width="6" height="6" fill="#B65D3A"/><rect x="258" y="42" width="6" height="6" fill="#F7F4ED"/><rect x="264" y="42" width="18" height="6" fill="#1A1A1F"/><rect x="282" y="42" width="126" height="6" fill="#F7F4ED"/><rect x="0" y="48" width="252" height="6" fill="#F7F4ED"/><rect x="252" y="48" width="6" height="6" fill="#1A1A1F"/><rect x="258" y="48" width="6" height="6" fill="#F7F4ED"/><rect x="264" y="48" width="36" height="6" fill="#1A1A1F"/><rect x="300" y="48" width="108" height="6" fill="#F7F4ED"/><rect x="0" y="54" width="252" height="6" fill="#F7F4ED"/><rect x="252" y="54" width="6" height="6" fill="#1A1A1F"/><rect x="258" y="54" width="6" height="6" fill="#F7F4ED"/><rect x="264" y="54" width="36" height="6" fill="#1A1A1F"/><rect x="300" y="54" width="108" height="6" fill="#F7F4ED"/><rect x="0" y="60" width="252" height="6" fill="#F7F4ED"/><rect x="252" y="60" width="6" height="6" fill="#1A1A1F"/><rect x="258" y="60" width="6" height="6" fill="#F7F4ED"/><rect x="264" y="60" width="42" height="6" fill="#1A1A1F"/><rect x="306" y="60" width="102" height="6" fill="#F7F4ED"/><rect x="0" y="66" width="258" height="6" fill="#F7F4ED"/><rect x="258" y="66" width="42" height="6" fill="#1A1A1F"/><rect x="300" y="66" width="108" height="6" fill="#F7F4ED"/><rect x="0" y="72" width="246" height="6" fill="#F7F4ED"/><rect x="246" y="72" width="54" height="6" fill="#1A1A1F"/><rect x="300" y="72" width="108" height="6" fill="#F7F4ED"/><rect x="0" y="78" width="234" height="6" fill="#F7F4ED"/><rect x="234" y="78" width="66" height="6" fill="#1A1A1F"/><rect x="300" y="78" width="108" height="6" fill="#F7F4ED"/><rect x="0" y="84" width="228" height="6" fill="#F7F4ED"/><rect x="228" y="84" width="66" height="6" fill="#1A1A1F"/><rect x="294" y="84" width="6" height="6" fill="#F7F4ED"/><rect x="300" y="84" width="6" height="6" fill="#1A1A1F"/><rect x="306" y="84" width="102" height="6" fill="#F7F4ED"/><rect x="0" y="90" width="222" height="6" fill="#F7F4ED"/><rect x="222" y="90" width="96" height="6" fill="#1A1A1F"/><rect x="318" y="90" width="90" height="6" fill="#F7F4ED"/><rect x="0" y="96" width="180" height="6" fill="#F7F4ED"/><rect x="180" y="96" width="24" height="6" fill="#1A1A1F"/><rect x="204" y="96" width="12" height="6" fill="#F7F4ED"/><rect x="216" y="96" width="114" height="6" fill="#1A1A1F"/><rect x="330" y="96" width="78" height="6" fill="#F7F4ED"/><rect x="0" y="102" width="150" height="6" fill="#F7F4ED"/><rect x="150" y="102" width="186" height="6" fill="#1A1A1F"/><rect x="336" y="102" width="72" height="6" fill="#F7F4ED"/><rect x="0" y="108" width="90" height="6" fill="#F7F4ED"/><rect x="90" y="108" width="252" height="6" fill="#1A1A1F"/><rect x="342" y="108" width="66" height="6" fill="#F7F4ED"/><rect x="0" y="114" width="84" height="6" fill="#F7F4ED"/><rect x="84" y="114" width="258" height="6" fill="#1A1A1F"/><rect x="342" y="114" width="66" height="6" fill="#F7F4ED"/><rect x="0" y="120" width="78" height="6" fill="#F7F4ED"/><rect x="78" y="120" width="96" height="6" fill="#1A1A1F"/><rect x="174" y="120" width="6" height="6" fill="#F7F4ED"/><rect x="180" y="120" width="72" height="6" fill="#1A1A1F"/><rect x="252" y="120" width="30" height="6" fill="#F7F4ED"/><rect x="282" y="120" width="60" height="6" fill="#1A1A1F"/><rect x="342" y="120" width="66" height="6" fill="#F7F4ED"/><rect x="0" y="126" width="72" height="6" fill="#F7F4ED"/><rect x="72" y="126" width="102" height="6" fill="#1A1A1F"/><rect x="174" y="126" width="6" height="6" fill="#F7F4ED"/><rect x="180" y="126" width="66" height="6" fill="#1A1A1F"/><rect x="246" y="126" width="162" height="6" fill="#F7F4ED"/><rect x="0" y="132" width="66" height="6" fill="#F7F4ED"/><rect x="66" y="132" width="174" height="6" fill="#1A1A1F"/><rect x="240" y="132" width="168" height="6" fill="#F7F4ED"/><rect x="0" y="138" width="66" height="6" fill="#F7F4ED"/><rect x="66" y="138" width="174" height="6" fill="#1A1A1F"/><rect x="240" y="138" width="168" height="6" fill="#F7F4ED"/><rect x="0" y="144" width="60" height="6" fill="#F7F4ED"/><rect x="60" y="144" width="180" height="6" fill="#1A1A1F"/><rect x="240" y="144" width="168" height="6" fill="#F7F4ED"/><rect x="0" y="150" width="54" height="6" fill="#F7F4ED"/><rect x="54" y="150" width="180" height="6" fill="#1A1A1F"/><rect x="234" y="150" width="6" height="6" fill="#F7F4ED"/><rect x="240" y="150" width="6" height="6" fill="#1A1A1F"/><rect x="246" y="150" width="162" height="6" fill="#F7F4ED"/><rect x="0" y="156" width="42" height="6" fill="#F7F4ED"/><rect x="42" y="156" width="18" height="6" fill="#1A1A1F"/><rect x="60" y="156" width="12" height="6" fill="#F7F4ED"/><rect x="72" y="156" width="162" height="6" fill="#1A1A1F"/><rect x="234" y="156" width="174" height="6" fill="#F7F4ED"/><rect x="0" y="162" width="48" height="6" fill="#F7F4ED"/><rect x="48" y="162" width="6" height="6" fill="#1A1A1F"/><rect x="54" y="162" width="30" height="6" fill="#F7F4ED"/><rect x="84" y="162" width="138" height="6" fill="#1A1A1F"/><rect x="222" y="162" width="186" height="6" fill="#F7F4ED"/><rect x="0" y="168" width="96" height="6" fill="#F7F4ED"/><rect x="96" y="168" width="36" height="6" fill="#1A1A1F"/><rect x="132" y="168" width="30" height="6" fill="#F7F4ED"/><rect x="162" y="168" width="60" height="6" fill="#1A1A1F"/><rect x="222" y="168" width="186" height="6" fill="#F7F4ED"/><rect x="0" y="174" width="96" height="6" fill="#F7F4ED"/><rect x="96" y="174" width="12" height="6" fill="#1A1A1F"/><rect x="108" y="174" width="12" height="6" fill="#F7F4ED"/><rect x="120" y="174" width="18" height="6" fill="#1A1A1F"/><rect x="138" y="174" width="18" height="6" fill="#F7F4ED"/><rect x="156" y="174" width="6" height="6" fill="#1A1A1F"/><rect x="162" y="174" width="18" height="6" fill="#F7F4ED"/><rect x="180" y="174" width="18" height="6" fill="#1A1A1F"/><rect x="198" y="174" width="12" height="6" fill="#F7F4ED"/><rect x="210" y="174" width="12" height="6" fill="#1A1A1F"/><rect x="222" y="174" width="186" height="6" fill="#F7F4ED"/><rect x="0" y="180" width="96" height="6" fill="#F7F4ED"/><rect x="96" y="180" width="12" height="6" fill="#1A1A1F"/><rect x="108" y="180" width="12" height="6" fill="#F7F4ED"/><rect x="120" y="180" width="12" height="6" fill="#1A1A1F"/><rect x="132" y="180" width="54" height="6" fill="#F7F4ED"/><rect x="186" y="180" width="12" height="6" fill="#1A1A1F"/><rect x="198" y="180" width="6" height="6" fill="#F7F4ED"/><rect x="204" y="180" width="18" height="6" fill="#1A1A1F"/><rect x="222" y="180" width="186" height="6" fill="#F7F4ED"/><rect x="0" y="186" width="96" height="6" fill="#F7F4ED"/><rect x="96" y="186" width="12" height="6" fill="#1A1A1F"/><rect x="108" y="186" width="12" height="6" fill="#F7F4ED"/><rect x="120" y="186" width="12" height="6" fill="#1A1A1F"/><rect x="132" y="186" width="54" height="6" fill="#F7F4ED"/><rect x="186" y="186" width="12" height="6" fill="#1A1A1F"/><rect x="198" y="186" width="12" height="6" fill="#F7F4ED"/><rect x="210" y="186" width="18" height="6" fill="#1A1A1F"/><rect x="228" y="186" width="180" height="6" fill="#F7F4ED"/><rect x="0" y="192" width="96" height="6" fill="#F7F4ED"/><rect x="96" y="192" width="12" height="6" fill="#1A1A1F"/><rect x="108" y="192" width="12" height="6" fill="#F7F4ED"/><rect x="120" y="192" width="12" height="6" fill="#1A1A1F"/><rect x="132" y="192" width="54" height="6" fill="#F7F4ED"/><rect x="186" y="192" width="12" height="6" fill="#1A1A1F"/><rect x="198" y="192" width="12" height="6" fill="#F7F4ED"/><rect x="210" y="192" width="12" height="6" fill="#1A1A1F"/><rect x="222" y="192" width="186" height="6" fill="#F7F4ED"/><rect x="0" y="198" width="96" height="6" fill="#F7F4ED"/><rect x="96" y="198" width="12" height="6" fill="#1A1A1F"/><rect x="108" y="198" width="12" height="6" fill="#F7F4ED"/><rect x="120" y="198" width="12" height="6" fill="#1A1A1F"/><rect x="132" y="198" width="54" height="6" fill="#F7F4ED"/><rect x="186" y="198" width="12" height="6" fill="#1A1A1F"/><rect x="198" y="198" width="12" height="6" fill="#F7F4ED"/><rect x="210" y="198" width="12" height="6" fill="#1A1A1F"/><rect x="222" y="198" width="186" height="6" fill="#F7F4ED"/><rect x="0" y="204" width="96" height="6" fill="#F7F4ED"/><rect x="96" y="204" width="12" height="6" fill="#1A1A1F"/><rect x="108" y="204" width="12" height="6" fill="#F7F4ED"/><rect x="120" y="204" width="12" height="6" fill="#1A1A1F"/><rect x="132" y="204" width="54" height="6" fill="#F7F4ED"/><rect x="186" y="204" width="12" height="6" fill="#1A1A1F"/><rect x="198" y="204" width="12" height="6" fill="#F7F4ED"/><rect x="210" y="204" width="12" height="6" fill="#1A1A1F"/><rect x="222" y="204" width="186" height="6" fill="#F7F4ED"/><rect x="0" y="210" width="96" height="6" fill="#F7F4ED"/><rect x="96" y="210" width="12" height="6" fill="#1A1A1F"/><rect x="108" y="210" width="12" height="6" fill="#F7F4ED"/><rect x="120" y="210" width="12" height="6" fill="#1A1A1F"/><rect x="132" y="210" width="54" height="6" fill="#F7F4ED"/><rect x="186" y="210" width="12" height="6" fill="#1A1A1F"/><rect x="198" y="210" width="12" height="6" fill="#F7F4ED"/><rect x="210" y="210" width="12" height="6" fill="#1A1A1F"/><rect x="222" y="210" width="186" height="6" fill="#F7F4ED"/><rect x="0" y="216" width="96" height="6" fill="#F7F4ED"/><rect x="96" y="216" width="12" height="6" fill="#1A1A1F"/><rect x="108" y="216" width="12" height="6" fill="#F7F4ED"/><rect x="120" y="216" width="12" height="6" fill="#1A1A1F"/><rect x="132" y="216" width="54" height="6" fill="#F7F4ED"/><rect x="186" y="216" width="12" height="6" fill="#1A1A1F"/><rect x="198" y="216" width="12" height="6" fill="#F7F4ED"/><rect x="210" y="216" width="12" height="6" fill="#1A1A1F"/><rect x="222" y="216" width="186" height="6" fill="#F7F4ED"/><rect x="0" y="222" width="96" height="6" fill="#F7F4ED"/><rect x="96" y="222" width="12" height="6" fill="#1A1A1F"/><rect x="108" y="222" width="12" height="6" fill="#F7F4ED"/><rect x="120" y="222" width="12" height="6" fill="#1A1A1F"/><rect x="132" y="222" width="54" height="6" fill="#F7F4ED"/><rect x="186" y="222" width="12" height="6" fill="#1A1A1F"/><rect x="198" y="222" width="12" height="6" fill="#F7F4ED"/><rect x="210" y="222" width="12" height="6" fill="#1A1A1F"/><rect x="222" y="222" width="186" height="6" fill="#F7F4ED"/><rect x="0" y="228" width="96" height="6" fill="#F7F4ED"/><rect x="96" y="228" width="12" height="6" fill="#1A1A1F"/><rect x="108" y="228" width="12" height="6" fill="#F7F4ED"/><rect x="120" y="228" width="12" height="6" fill="#1A1A1F"/><rect x="132" y="228" width="12" height="6" fill="#F7F4ED"/><rect x="144" y="228" width="6" height="6" fill="#1A1A1F"/><rect x="150" y="228" width="36" height="6" fill="#F7F4ED"/><rect x="186" y="228" width="12" height="6" fill="#1A1A1F"/><rect x="198" y="228" width="12" height="6" fill="#F7F4ED"/><rect x="210" y="228" width="12" height="6" fill="#1A1A1F"/><rect x="222" y="228" width="186" height="6" fill="#F7F4ED"/><rect x="0" y="234" width="96" height="6" fill="#F7F4ED"/><rect x="96" y="234" width="18" height="6" fill="#1A1A1F"/><rect x="114" y="234" width="6" height="6" fill="#F7F4ED"/><rect x="120" y="234" width="18" height="6" fill="#1A1A1F"/><rect x="138" y="234" width="6" height="6" fill="#F7F4ED"/><rect x="144" y="234" width="6" height="6" fill="#1A1A1F"/><rect x="150" y="234" width="36" height="6" fill="#F7F4ED"/><rect x="186" y="234" width="18" height="6" fill="#1A1A1F"/><rect x="204" y="234" width="6" height="6" fill="#F7F4ED"/><rect x="210" y="234" width="18" height="6" fill="#1A1A1F"/><rect x="228" y="234" width="180" height="6" fill="#F7F4ED"/><rect x="0" y="240" width="408" height="6" fill="#1A1A1F"/><rect x="0" y="246" width="408" height="6" fill="#F7F4ED"/><rect x="0" y="252" width="408" height="6" fill="#F7F4ED"/><rect x="0" y="258" width="408" height="6" fill="#F7F4ED"/><rect x="0" y="264" width="408" height="6" fill="#F7F4ED"/><rect x="0" y="270" width="408" height="6" fill="#F7F4ED"/><rect x="0" y="276" width="408" height="6" fill="#F7F4ED"/><rect x="0" y="282" width="408" height="6" fill="#F7F4ED"/><rect x="0" y="288" width="408" height="6" fill="#F7F4ED"/><rect x="0" y="294" width="408" height="6" fill="#F7F4ED"/><rect x="0" y="300" width="408" height="6" fill="#F7F4ED"/><rect x="0" y="306" width="408" height="6" fill="#F7F4ED"/><rect x="0" y="312" width="408" height="6" fill="#F7F4ED"/><rect x="0" y="318" width="408" height="6" fill="#F7F4ED"/><rect x="0" y="324" width="408" height="6" fill="#F7F4ED"/><rect x="0" y="330" width="408" height="6" fill="#F7F4ED"/><rect x="0" y="336" width="408" height="6" fill="#F7F4ED"/><rect x="0" y="342" width="408" height="6" fill="#F7F4ED"/><rect x="0" y="348" width="408" height="6" fill="#F7F4ED"/><rect x="0" y="354" width="408" height="6" fill="#F7F4ED"/><rect x="0" y="360" width="408" height="6" fill="#F7F4ED"/><rect x="0" y="366" width="408" height="6" fill="#F7F4ED"/><rect x="0" y="372" width="408" height="6" fill="#F7F4ED"/><rect x="0" y="378" width="408" height="6" fill="#F7F4ED"/><rect x="0" y="384" width="408" height="6" fill="#F7F4ED"/><rect x="0" y="390" width="408" height="6" fill="#F7F4ED"/><rect x="0" y="396" width="408" height="6" fill="#F7F4ED"/><rect x="0" y="402" width="408" height="6" fill="#F7F4ED"/><text x="204" y="452" font-family="'Source Serif 4', Georgia, serif" font-size="52" font-weight="500" fill="#1A1A1F" text-anchor="middle" dominant-baseline="central" letter-spacing="-1">agentplain</text></svg>