<svg xmlns="http://www.w3.org/2000/svg" viewBox="0 0 288 272" shape-rendering="crispEdges"><rect x="184" y="24" width="8" height="8" fill="#1A1A1F"/><rect x="184" y="32" width="8" height="8" fill="#1A1A1F"/><rect x="184" y="40" width="8" height="8" fill="#1A1A1F"/><rect x="136" y="48" width="24" height="8" fill="#1A1A1F"/><rect x="184" y="48" width="8" height="8" fill="#1A1A1F"/><rect x="136" y="56" width="24" height="8" fill="#1A1A1F"/><rect x="184" y="56" width="8" height="8" fill="#1A1A1F"/><rect x="136" y="64" width="24" height="8" fill="#1A1A1F"/><rect x="184" y="64" width="8" height="8" fill="#1A1A1F"/><rect x="136" y="72" width="88" height="8" fill="#1A1A1F"/><rect x="136" y="80" width="88" height="8" fill="#1A1A1F"/><rect x="136" y="88" width="88" height="8" fill="#1A1A1F"/><rect x="24" y="96" width="8" height="8" fill="#1A1A1F"/><rect x="136" y="96" width="88" height="8" fill="#1A1A1F"/><rect x="24" y="104" width="16" height="8" fill="#1A1A1F"/><rect x="136" y="104" width="88" height="8" fill="#1A1A1F"/><rect x="32" y="112" width="32" height="8" fill="#1A1A1F"/><rect x="136" y="112" width="104" height="8" fill="#1A1A1F"/><rect x="32" y="120" width="32" height="8" fill="#1A1A1F"/><rect x="136" y="120" width="104" height="8" fill="#1A1A1F"/><rect x="32" y="128" width="32" height="8" fill="#1A1A1F"/><rect x="136" y="128" width="104" height="8" fill="#1A1A1F"/><rect x="32" y="136" width="32" height="8" fill="#1A1A1F"/><rect x="136" y="136" width="104" height="8" fill="#1A1A1F"/><rect x="56" y="144" width="184" height="8" fill="#1A1A1F"/><rect x="56" y="152" width="120" height="8" fill="#1A1A1F"/><rect x="56" y="160" width="120" height="8" fill="#1A1A1F"/><rect x="56" y="168" width="120" height="8" fill="#1A1A1F"/><rect x="56" y="176" width="120" height="8" fill="#1A1A1F"/><rect x="56" y="184" width="120" height="8" fill="#1A1A1F"/><rect x="56" y="192" width="120" height="8" fill="#1A1A1F"/><rect x="56" y="200" width="120" height="8" fill="#1A1A1F"/><rect x="56" y="208" width="128" height="8" fill="#1A1A1F"/><rect x="56" y="216" width="24" height="8" fill="#1A1A1F"/><rect x="88" y="216" width="24" height="8" fill="#1A1A1F"/><rect x="128" y="216" width="24" height="8" fill="#1A1A1F"/><rect x="160" y="216" width="24" height="8" fill="#1A1A1F"/><rect x="56" y="224" width="24" height="8" fill="#1A1A1F"/><rect x="88" y="224" width="24" height="8" fill="#1A1A1F"/><rect x="128" y="224" width="24" height="8" fill="#1A1A1F"/><rect x="160" y="224" width="24" height="8" fill="#1A1A1F"/><rect x="56" y="232" width="24" height="8" fill="#1A1A1F"/><rect x="88" y="232" width="24" height="8" fill="#1A1A1F"/><rect x="128" y="232" width="24" height="8" fill="#1A1A1F"/><rect x="88" y="240" width="24" height="8" fill="#1A1A1F"/><rect x="128" y="240" width="24" height="8" fill="#1A1A1F"/></svg>