<svg xmlns="http://www.w3.org/2000/svg" viewBox="0 0 288 296" shape-rendering="crispEdges"><rect x="184" y="24" width="8" height="8" fill="#4C6E4A"/><rect x="184" y="32" width="8" height="8" fill="#3F5C3F"/><rect x="184" y="40" width="8" height="8" fill="#726A5E"/><rect x="136" y="48" width="8" height="8" fill="#9A4D2F"/><rect x="144" y="48" width="16" height="8" fill="#B65D3A"/><rect x="184" y="48" width="8" height="8" fill="#726A5E"/><rect x="136" y="56" width="24" height="8" fill="#B65D3A"/><rect x="184" y="56" width="8" height="8" fill="#726A5E"/><rect x="136" y="64" width="24" height="8" fill="#B65D3A"/><rect x="184" y="64" width="8" height="8" fill="#726A5E"/><rect x="136" y="72" width="24" height="8" fill="#B65D3A"/><rect x="160" y="72" width="64" height="8" fill="#CF7A50"/><rect x="136" y="80" width="88" height="8" fill="#CF7A50"/><rect x="136" y="88" width="88" height="8" fill="#B65D3A"/><rect x="24" y="96" width="8" height="8" fill="#3F5C3F"/><rect x="136" y="96" width="16" height="8" fill="#B65D3A"/><rect x="152" y="96" width="32" height="8" fill="#3F5C3F"/><rect x="184" y="96" width="8" height="8" fill="#F7F4ED"/><rect x="192" y="96" width="8" height="8" fill="#3F5C3F"/><rect x="200" y="96" width="24" height="8" fill="#B65D3A"/><rect x="24" y="104" width="8" height="8" fill="#726A5E"/><rect x="32" y="104" width="8" height="8" fill="#8E867A"/><rect x="136" y="104" width="16" height="8" fill="#B65D3A"/><rect x="152" y="104" width="8" height="8" fill="#3F5C3F"/><rect x="160" y="104" width="8" height="8" fill="#4C6E4A"/><rect x="168" y="104" width="32" height="8" fill="#3F5C3F"/><rect x="200" y="104" width="24" height="8" fill="#B65D3A"/><rect x="32" y="112" width="32" height="8" fill="#726A5E"/><rect x="136" y="112" width="64" height="8" fill="#B65D3A"/><rect x="200" y="112" width="40" height="8" fill="#EDE9DE"/><rect x="32" y="120" width="32" height="8" fill="#726A5E"/><rect x="136" y="120" width="64" height="8" fill="#B65D3A"/><rect x="200" y="120" width="24" height="8" fill="#F7F4ED"/><rect x="224" y="120" width="16" height="8" fill="#1A1A1F"/><rect x="32" y="128" width="32" height="8" fill="#726A5E"/><rect x="136" y="128" width="64" height="8" fill="#B65D3A"/><rect x="200" y="128" width="40" height="8" fill="#F7F4ED"/><rect x="32" y="136" width="32" height="8" fill="#726A5E"/><rect x="136" y="136" width="64" height="8" fill="#9A4D2F"/><rect x="200" y="136" width="32" height="8" fill="#2E2E33"/><rect x="232" y="136" width="8" height="8" fill="#F7F4ED"/><rect x="56" y="144" width="8" height="8" fill="#B65D3A"/><rect x="64" y="144" width="64" height="8" fill="#CF7A50"/><rect x="128" y="144" width="40" height="8" fill="#3F5C3F"/><rect x="168" y="144" width="8" height="8" fill="#4C6E4A"/><rect x="176" y="144" width="24" height="8" fill="#9A4D2F"/><rect x="200" y="144" width="40" height="8" fill="#F7F4ED"/><rect x="56" y="152" width="8" height="8" fill="#B65D3A"/><rect x="64" y="152" width="40" height="8" fill="#CF7A50"/><rect x="104" y="152" width="8" height="8" fill="#9A4D2F"/><rect x="112" y="152" width="16" height="8" fill="#CF7A50"/><rect x="128" y="152" width="48" height="8" fill="#3F5C3F"/><rect x="56" y="160" width="48" height="8" fill="#B65D3A"/><rect x="104" y="160" width="8" height="8" fill="#9A4D2F"/><rect x="112" y="160" width="64" height="8" fill="#B65D3A"/><rect x="56" y="168" width="16" height="8" fill="#B65D3A"/><rect x="72" y="168" width="8" height="8" fill="#8E867A"/><rect x="80" y="168" width="8" height="8" fill="#726A5E"/><rect x="88" y="168" width="16" height="8" fill="#B65D3A"/><rect x="104" y="168" width="8" height="8" fill="#9A4D2F"/><rect x="112" y="168" width="64" height="8" fill="#B65D3A"/><rect x="56" y="176" width="16" height="8" fill="#B65D3A"/><rect x="72" y="176" width="16" height="8" fill="#726A5E"/><rect x="88" y="176" width="16" height="8" fill="#B65D3A"/><rect x="104" y="176" width="8" height="8" fill="#9A4D2F"/><rect x="112" y="176" width="64" height="8" fill="#B65D3A"/><rect x="56" y="184" width="48" height="8" fill="#B65D3A"/><rect x="104" y="184" width="8" height="8" fill="#9A4D2F"/><rect x="112" y="184" width="64" height="8" fill="#B65D3A"/><rect x="56" y="192" width="120" height="8" fill="#9A4D2F"/><rect x="56" y="200" width="120" height="8" fill="#9A4D2F"/><rect x="56" y="208" width="8" height="8" fill="#8E867A"/><rect x="64" y="208" width="16" height="8" fill="#726A5E"/><rect x="80" y="208" width="8" height="8" fill="#9A4D2F"/><rect x="88" y="208" width="8" height="8" fill="#8E867A"/><rect x="96" y="208" width="16" height="8" fill="#726A5E"/><rect x="112" y="208" width="16" height="8" fill="#9A4D2F"/><rect x="128" y="208" width="8" height="8" fill="#8E867A"/><rect x="136" y="208" width="16" height="8" fill="#726A5E"/><rect x="152" y="208" width="8" height="8" fill="#9A4D2F"/><rect x="160" y="208" width="8" height="8" fill="#8E867A"/><rect x="168" y="208" width="16" height="8" fill="#726A5E"/><rect x="56" y="216" width="24" height="8" fill="#726A5E"/><rect x="88" y="216" width="24" height="8" fill="#726A5E"/><rect x="128" y="216" width="24" height="8" fill="#726A5E"/><rect x="160" y="216" width="24" height="8" fill="#726A5E"/><rect x="56" y="224" width="24" height="8" fill="#726A5E"/><rect x="88" y="224" width="24" height="8" fill="#726A5E"/><rect x="128" y="224" width="24" height="8" fill="#726A5E"/><rect x="160" y="224" width="24" height="8" fill="#1A1A1F"/><rect x="56" y="232" width="24" height="8" fill="#1A1A1F"/><rect x="88" y="232" width="24" height="8" fill="#726A5E"/><rect x="128" y="232" width="24" height="8" fill="#726A5E"/><rect x="88" y="240" width="24" height="8" fill="#1A1A1F"/><rect x="128" y="240" width="24" height="8" fill="#1A1A1F"/><rect x="8" y="248" width="272" height="8" fill="#33492F"/><rect x="8" y="256" width="8" height="8" fill="#3F5C3F"/><rect x="16" y="256" width="8" height="8" fill="#4C6E4A"/><rect x="24" y="256" width="32" height="8" fill="#3F5C3F"/><rect x="56" y="256" width="8" height="8" fill="#4C6E4A"/><rect x="64" y="256" width="32" height="8" fill="#3F5C3F"/><rect x="96" y="256" width="8" height="8" fill="#4C6E4A"/><rect x="104" y="256" width="32" height="8" fill="#3F5C3F"/><rect x="136" y="256" width="8" height="8" fill="#4C6E4A"/><rect x="144" y="256" width="32" height="8" fill="#3F5C3F"/><rect x="176" y="256" width="8" height="8" fill="#4C6E4A"/><rect x="184" y="256" width="32" height="8" fill="#3F5C3F"/><rect x="216" y="256" width="8" height="8" fill="#4C6E4A"/><rect x="224" y="256" width="32" height="8" fill="#3F5C3F"/><rect x="256" y="256" width="8" height="8" fill="#4C6E4A"/><rect x="264" y="256" width="16" height="8" fill="#3F5C3F"/><rect x="8" y="264" width="272" height="8" fill="#3F5C3F"/></svg>