<svg xmlns="http://www.w3.org/2000/svg" viewBox="0 0 592 210" shape-rendering="crispEdges"><rect width="592" height="210" fill="#1A1A1F"/><rect x="132" y="12" width="6" height="6" fill="#4C6E4A"/><rect x="132" y="18" width="6" height="6" fill="#3F5C3F"/><rect x="132" y="24" width="6" height="6" fill="#726A5E"/><rect x="96" y="30" width="6" height="6" fill="#9A4D2F"/><rect x="102" y="30" width="12" height="6" fill="#B65D3A"/><rect x="132" y="30" width="6" height="6" fill="#726A5E"/><rect x="96" y="36" width="18" height="6" fill="#B65D3A"/><rect x="132" y="36" width="6" height="6" fill="#726A5E"/><rect x="96" y="42" width="18" height="6" fill="#B65D3A"/><rect x="132" y="42" width="6" height="6" fill="#726A5E"/><rect x="96" y="48" width="18" height="6" fill="#B65D3A"/><rect x="114" y="48" width="48" height="6" fill="#CF7A50"/><rect x="96" y="54" width="66" height="6" fill="#CF7A50"/><rect x="96" y="60" width="66" height="6" fill="#B65D3A"/><rect x="12" y="66" width="6" height="6" fill="#3F5C3F"/><rect x="96" y="66" width="12" height="6" fill="#B65D3A"/><rect x="108" y="66" width="24" height="6" fill="#3F5C3F"/><rect x="132" y="66" width="6" height="6" fill="#F7F4ED"/><rect x="138" y="66" width="6" height="6" fill="#3F5C3F"/><rect x="144" y="66" width="18" height="6" fill="#B65D3A"/><rect x="12" y="72" width="6" height="6" fill="#726A5E"/><rect x="18" y="72" width="6" height="6" fill="#8E867A"/><rect x="96" y="72" width="12" height="6" fill="#B65D3A"/><rect x="108" y="72" width="6" height="6" fill="#3F5C3F"/><rect x="114" y="72" width="6" height="6" fill="#4C6E4A"/><rect x="120" y="72" width="24" height="6" fill="#3F5C3F"/><rect x="144" y="72" width="18" height="6" fill="#B65D3A"/><rect x="18" y="78" width="24" height="6" fill="#726A5E"/><rect x="96" y="78" width="48" height="6" fill="#B65D3A"/><rect x="144" y="78" width="30" height="6" fill="#EDE9DE"/><rect x="18" y="84" width="24" height="6" fill="#726A5E"/><rect x="96" y="84" width="48" height="6" fill="#B65D3A"/><rect x="144" y="84" width="18" height="6" fill="#F7F4ED"/><rect x="162" y="84" width="12" height="6" fill="#1A1A1F"/><rect x="18" y="90" width="24" height="6" fill="#726A5E"/><rect x="96" y="90" width="48" height="6" fill="#B65D3A"/><rect x="144" y="90" width="30" height="6" fill="#F7F4ED"/><rect x="18" y="96" width="24" height="6" fill="#726A5E"/><rect x="96" y="96" width="48" height="6" fill="#9A4D2F"/><rect x="144" y="96" width="24" height="6" fill="#2E2E33"/><rect x="168" y="96" width="6" height="6" fill="#F7F4ED"/><rect x="36" y="102" width="6" height="6" fill="#B65D3A"/><rect x="42" y="102" width="48" height="6" fill="#CF7A50"/><rect x="90" y="102" width="30" height="6" fill="#3F5C3F"/><rect x="120" y="102" width="6" height="6" fill="#4C6E4A"/><rect x="126" y="102" width="18" height="6" fill="#9A4D2F"/><rect x="144" y="102" width="30" height="6" fill="#F7F4ED"/><rect x="36" y="108" width="6" height="6" fill="#B65D3A"/><rect x="42" y="108" width="30" height="6" fill="#CF7A50"/><rect x="72" y="108" width="6" height="6" fill="#9A4D2F"/><rect x="78" y="108" width="12" height="6" fill="#CF7A50"/><rect x="90" y="108" width="36" height="6" fill="#3F5C3F"/><rect x="36" y="114" width="36" height="6" fill="#B65D3A"/><rect x="72" y="114" width="6" height="6" fill="#9A4D2F"/><rect x="78" y="114" width="48" height="6" fill="#B65D3A"/><rect x="36" y="120" width="12" height="6" fill="#B65D3A"/><rect x="48" y="120" width="6" height="6" fill="#8E867A"/><rect x="54" y="120" width="6" height="6" fill="#726A5E"/><rect x="60" y="120" width="12" height="6" fill="#B65D3A"/><rect x="72" y="120" width="6" height="6" fill="#9A4D2F"/><rect x="78" y="120" width="48" height="6" fill="#B65D3A"/><rect x="36" y="126" width="12" height="6" fill="#B65D3A"/><rect x="48" y="126" width="12" height="6" fill="#726A5E"/><rect x="60" y="126" width="12" height="6" fill="#B65D3A"/><rect x="72" y="126" width="6" height="6" fill="#9A4D2F"/><rect x="78" y="126" width="48" height="6" fill="#B65D3A"/><rect x="36" y="132" width="36" height="6" fill="#B65D3A"/><rect x="72" y="132" width="6" height="6" fill="#9A4D2F"/><rect x="78" y="132" width="48" height="6" fill="#B65D3A"/><rect x="36" y="138" width="90" height="6" fill="#9A4D2F"/><rect x="36" y="144" width="90" height="6" fill="#9A4D2F"/><rect x="36" y="150" width="6" height="6" fill="#8E867A"/><rect x="42" y="150" width="12" height="6" fill="#726A5E"/><rect x="54" y="150" width="6" height="6" fill="#9A4D2F"/><rect x="60" y="150" width="6" height="6" fill="#8E867A"/><rect x="66" y="150" width="12" height="6" fill="#726A5E"/><rect x="78" y="150" width="12" height="6" fill="#9A4D2F"/><rect x="90" y="150" width="6" height="6" fill="#8E867A"/><rect x="96" y="150" width="12" height="6" fill="#726A5E"/><rect x="108" y="150" width="6" height="6" fill="#9A4D2F"/><rect x="114" y="150" width="6" height="6" fill="#8E867A"/><rect x="120" y="150" width="12" height="6" fill="#726A5E"/><rect x="36" y="156" width="18" height="6" fill="#726A5E"/><rect x="60" y="156" width="18" height="6" fill="#726A5E"/><rect x="90" y="156" width="18" height="6" fill="#726A5E"/><rect x="114" y="156" width="18" height="6" fill="#726A5E"/><rect x="36" y="162" width="18" height="6" fill="#726A5E"/><rect x="60" y="162" width="18" height="6" fill="#726A5E"/><rect x="90" y="162" width="18" height="6" fill="#726A5E"/><rect x="114" y="162" width="18" height="6" fill="#1A1A1F"/><rect x="36" y="168" width="18" height="6" fill="#1A1A1F"/><rect x="60" y="168" width="18" height="6" fill="#726A5E"/><rect x="90" y="168" width="18" height="6" fill="#726A5E"/><rect x="60" y="174" width="18" height="6" fill="#1A1A1F"/><rect x="90" y="174" width="18" height="6" fill="#1A1A1F"/><rect x="0" y="180" width="204" height="6" fill="#33492F"/><rect x="0" y="186" width="6" height="6" fill="#3F5C3F"/><rect x="6" y="186" width="6" height="6" fill="#4C6E4A"/><rect x="12" y="186" width="24" height="6" fill="#3F5C3F"/><rect x="36" y="186" width="6" height="6" fill="#4C6E4A"/><rect x="42" y="186" width="24" height="6" fill="#3F5C3F"/><rect x="66" y="186" width="6" height="6" fill="#4C6E4A"/><rect x="72" y="186" width="24" height="6" fill="#3F5C3F"/><rect x="96" y="186" width="6" height="6" fill="#4C6E4A"/><rect x="102" y="186" width="24" height="6" fill="#3F5C3F"/><rect x="126" y="186" width="6" height="6" fill="#4C6E4A"/><rect x="132" y="186" width="24" height="6" fill="#3F5C3F"/><rect x="156" y="186" width="6" height="6" fill="#4C6E4A"/><rect x="162" y="186" width="24" height="6" fill="#3F5C3F"/><rect x="186" y="186" width="6" height="6" fill="#4C6E4A"/><rect x="192" y="186" width="12" height="6" fill="#3F5C3F"/><rect x="0" y="192" width="204" height="6" fill="#3F5C3F"/><text x="232" y="105" font-family="'Source Serif 4', Georgia, serif" font-size="88" font-weight="500" fill="#F7F4ED" text-anchor="start" dominant-baseline="central" letter-spacing="-1">agentplain</text></svg>