<svg xmlns="http://www.w3.org/2000/svg" viewBox="0 0 540.2 154.0" role="img" aria-label="agentplain — Intelligence rooted in reality" style="color:#1F3D2E">
  <g transform="translate(8 10) scale(0.9429)">
  <g transform="translate(8 -2)" fill="none" stroke="currentColor"
     stroke-linecap="round" stroke-linejoin="round">
    <!-- shared ground line: planted together -->
    <path d="M16 120 H120" stroke-width="1.6" opacity="0.4"/>

    <!-- ROBOT (left) -->
    <!-- antennae -->
    <path d="M34 50 V44" stroke-width="2.2"/>
    <path d="M46 50 V44" stroke-width="2.2"/>
    <circle cx="34" cy="42.4" r="1.9" fill="currentColor" stroke="none"/>
    <circle cx="46" cy="42.4" r="1.9" fill="currentColor" stroke="none"/>
    <!-- head -->
    <rect x="23" y="49" width="34" height="28" rx="7.5" stroke-width="2.4"/>
    <!-- eyes -->
    <circle cx="34" cy="61" r="2.4" fill="currentColor" stroke="none"/>
    <circle cx="46" cy="61" r="2.4" fill="currentColor" stroke="none"/>
    <!-- smile -->
    <path d="M34.5 67.5 Q40 71.5 45.5 67.5" stroke-width="2.2"/>
    <!-- neck -->
    <path d="M36.5 77 V80" stroke-width="2.2"/>
    <path d="M43.5 77 V80" stroke-width="2.2"/>
    <!-- body -->
    <rect x="26" y="80" width="28" height="29" rx="5.5" stroke-width="2.4"/>
    <!-- chest detail (small button) -->
    <circle cx="40" cy="90.5" r="2" stroke-width="1.8"/>
    <path d="M33 98 H47" stroke-width="1.8" opacity="0.85"/>
    <!-- arms -->
    <path d="M26 87 C21 88 18.5 92 19 97" stroke-width="2.2"/>
    <path d="M54 87 C59 88 61.5 92 61 97" stroke-width="2.2"/>
    <!-- legs -->
    <path d="M35 109 V120" stroke-width="2.2"/>
    <path d="M45 109 V120" stroke-width="2.2"/>
    <!-- little feet -->
    <path d="M31 120 H37" stroke-width="2.2"/>
    <path d="M43 120 H49" stroke-width="2.2"/>

    <!-- WHEAT (right) — two stalks, taller than the robot -->
    <!-- stalk 1 -->
    <path d="M80 120 C79 100 78 82 78 30" stroke-width="2.3"/>
    <g stroke-width="1.7">
      <path d="M78 31 L74.6 26.5"/><path d="M78 31 L81.4 26.5"/>
      <path d="M78 37 L74 32.5"/><path d="M78 37 L82 32.5"/>
      <path d="M78 43 L74 38.5"/><path d="M78 43 L82 38.5"/>
      <path d="M78 49 L74.3 44.5"/><path d="M78 49 L81.7 44.5"/>
      <path d="M78 55 L74.6 50.5"/><path d="M78 55 L81.4 50.5"/>
      <path d="M78 61 L75 56.5"/><path d="M78 61 L81 56.5"/>
    </g>
    <!-- stalk 2 (taller) -->
    <path d="M95 120 C96 100 97 80 97 25" stroke-width="2.3"/>
    <g stroke-width="1.7">
      <path d="M97 26 L93.6 21.5"/><path d="M97 26 L100.4 21.5"/>
      <path d="M97 32 L93 27.5"/><path d="M97 32 L101 27.5"/>
      <path d="M97 38 L93 33.5"/><path d="M97 38 L101 33.5"/>
      <path d="M97 44 L93.3 39.5"/><path d="M97 44 L100.7 39.5"/>
      <path d="M97 50 L93.6 45.5"/><path d="M97 50 L100.4 45.5"/>
      <path d="M97 56 L94 51.5"/><path d="M97 56 L100 51.5"/>
      <path d="M97 62 L94.3 57.5"/><path d="M97 62 L99.7 57.5"/>
    </g>
  </g>
  </g>
  <path transform="translate(170.0 91.8)" d="M29.05 0.84L29.05 0.84Q26.25 0.84 24.5 -0.56Q22.75 -1.96 22.19 -4.34L22.19 -4.34Q19.6 -1.75 17.43 -0.385Q15.26 0.98 11.97 0.98L11.97 0.98Q8.05 0.98 5.355 -1.295Q2.66 -3.57 2.66 -7.84L2.66 -7.84Q2.66 -10.08 3.675 -12.04Q4.69 -14 7.385 -15.68Q10.08 -17.36 15.19 -18.76L15.19 -18.76Q16.87 -19.25 18.55 -19.705Q20.23 -20.16 21.91 -20.65L21.91 -20.65L21.91 -22.82Q21.91 -27.72 20.545 -29.4Q19.18 -31.08 15.75 -31.08L15.75 -31.08Q15.05 -31.08 14.35 -31.01Q13.65 -30.94 12.81 -30.8L12.81 -30.8L11.97 -27.02Q11.69 -24.5 10.535 -23.31Q9.38 -22.12 7.63 -22.12L7.63 -22.12Q4.27 -22.12 3.71 -25.34L3.71 -25.34Q4.34 -29.47 8.225 -31.99Q12.11 -34.51 18.48 -34.51L18.48 -34.51Q24.57 -34.51 27.335 -31.605Q30.1 -28.7 30.1 -21.84L30.1 -21.84L30.1 -6.58Q30.1 -3.43 32.2 -3.43L32.2 -3.43Q33.53 -3.43 34.65 -4.97L34.65 -4.97L36.26 -3.57Q35 -1.19 33.25 -0.175Q31.5 0.84 29.05 0.84M10.85 -9.1L10.85 -9.1Q10.85 -6.51 12.25 -5.32Q13.65 -4.13 15.82 -4.13L15.82 -4.13Q17.22 -4.13 18.48 -4.655Q19.74 -5.18 21.91 -6.72L21.91 -6.72L21.91 -17.85Q20.72 -17.5 19.565 -17.115Q18.41 -16.73 17.29 -16.38L17.29 -16.38Q13.23 -15.05 12.04 -13.125Q10.85 -11.2 10.85 -9.1 M44.13 6.58L44.13 6.58Q44.13 12.67 52.81 12.67L52.81 12.67Q58.62 12.67 61.42 10.885Q64.22 9.1 64.22 6.44L64.22 6.44Q64.22 4.2 62.75 2.765Q61.28 1.33 57.78 1.33L57.78 1.33L50.29 1.33Q48.19 1.33 46.58 1.12L46.58 1.12Q44.13 3.5 44.13 6.58M52.6 -14.7L52.6 -14.7Q55.54 -14.7 57.115 -17.08Q58.69 -19.46 58.69 -23.31L58.69 -23.31Q58.69 -27.02 57.185 -29.26Q55.68 -31.5 52.81 -31.5L52.81 -31.5Q50.01 -31.5 48.4 -29.225Q46.79 -26.95 46.79 -23.1L46.79 -23.1Q46.79 -19.25 48.295 -16.975Q49.8 -14.7 52.6 -14.7M52.67 -11.76L52.67 -11.76Q49.66 -11.76 47 -12.53L47 -12.53Q45.6 -10.85 45.6 -9.17L45.6 -9.17Q45.6 -5.67 50.22 -5.67L50.22 -5.67L58.41 -5.67Q65.27 -5.67 68.21 -3.15Q71.15 -0.63 71.15 3.64L71.15 3.64Q71.15 6.86 68.84 9.8Q66.53 12.74 62.085 14.56Q57.64 16.38 51.13 16.38L51.13 16.38Q43.78 16.38 40.665 13.965Q37.55 11.55 37.55 8.19L37.55 8.19Q37.55 5.81 39.195 3.92Q40.84 2.03 44.55 0.49L44.55 0.49Q39.58 -0.98 39.58 -5.39L39.58 -5.39Q39.58 -7.35 40.805 -9.31Q42.03 -11.27 44.69 -13.44L44.69 -13.44Q39.16 -16.38 39.16 -23.1L39.16 -23.1Q39.16 -28.28 42.765 -31.395Q46.37 -34.51 52.74 -34.51L52.74 -34.51Q59.11 -34.51 62.68 -31.5L62.68 -31.5L70.52 -34.58L71.57 -33.88L71.57 -28.98L64.85 -28.98Q65.55 -27.72 65.935 -26.25Q66.32 -24.78 66.32 -23.1L66.32 -23.1Q66.32 -17.99 62.715 -14.875Q59.11 -11.76 52.67 -11.76 M91.55 -31.08L91.55 -31.08Q89.73 -31.08 88.015 -30.03Q86.3 -28.98 85.11 -26.53Q83.92 -24.08 83.64 -19.88L83.64 -19.88L93.09 -19.88Q95.82 -19.88 96.695 -20.93Q97.57 -21.98 97.57 -23.87L97.57 -23.87Q97.57 -27.51 95.89 -29.295Q94.21 -31.08 91.55 -31.08M91.9 0.98L91.9 0.98Q86.79 0.98 82.94 -1.05Q79.09 -3.08 76.955 -6.965Q74.82 -10.85 74.82 -16.38L74.82 -16.38Q74.82 -21.98 77.06 -26.04Q79.3 -30.1 83.115 -32.305Q86.93 -34.51 91.55 -34.51L91.55 -34.51Q95.75 -34.51 98.9 -32.76Q102.05 -31.01 103.8 -27.86Q105.55 -24.71 105.55 -20.44L105.55 -20.44Q105.55 -18.2 105.13 -16.59L105.13 -16.59L83.57 -16.59Q83.85 -10.64 86.86 -7.595Q89.87 -4.55 94.56 -4.55L94.56 -4.55Q100.37 -4.55 104.01 -8.68L104.01 -8.68L105.9 -7.14Q103.73 -3.29 100.51 -1.155Q97.29 0.98 91.9 0.98 M127.35 0L110.06 0L110.06 -2.87L114.68 -3.78Q114.75 -6.37 114.75 -9.415Q114.75 -12.46 114.75 -14.7L114.75 -14.7L114.75 -18.41Q114.75 -21.28 114.715 -22.995Q114.68 -24.71 114.54 -26.81L114.54 -26.81L109.57 -27.44L109.57 -30.03L121.26 -34.51L122.38 -33.81L122.87 -28.42Q125.53 -31.5 128.575 -33.005Q131.62 -34.51 134.77 -34.51L134.77 -34.51Q139.32 -34.51 141.77 -31.5Q144.22 -28.49 144.22 -21.98L144.22 -21.98L144.22 -14.7Q144.22 -12.32 144.22 -9.345Q144.22 -6.37 144.29 -3.71L144.29 -3.71L148.63 -2.87L148.63 0L131.34 0L131.34 -2.87L135.82 -3.78Q135.89 -6.37 135.89 -9.345Q135.89 -12.32 135.89 -14.7L135.89 -14.7L135.89 -21.28Q135.89 -25.41 134.77 -27.02Q133.65 -28.63 130.99 -28.63L130.99 -28.63Q127.21 -28.63 123.08 -25.13L123.08 -25.13L123.08 -14.7Q123.08 -12.46 123.08 -9.415Q123.08 -6.37 123.15 -3.71L123.15 -3.71L127.35 -2.87L127.35 0 M164.62 0.98L164.62 0.98Q160.49 0.98 158.075 -1.12Q155.66 -3.22 155.66 -7.84L155.66 -7.84Q155.66 -9.38 155.695 -10.815Q155.73 -12.25 155.73 -14.28L155.73 -14.28L155.73 -29.33L150.55 -29.33L150.55 -32.9L156.29 -33.6L158.88 -43.19L164.48 -43.19L164.2 -33.53L172.67 -33.53L172.67 -29.33L164.13 -29.33L164.13 -8.61Q164.13 -6.02 165.145 -4.83Q166.16 -3.64 167.84 -3.64L167.84 -3.64Q169.87 -3.64 172.11 -5.39L172.11 -5.39L173.79 -3.64Q172.46 -1.47 170.185 -0.245Q167.91 0.98 164.62 0.98 M194.12 16.38L175.36 16.38L175.36 13.51L180.19 12.6Q180.26 9.52 180.295 6.65Q180.33 3.78 180.33 1.12L180.33 1.12L180.33 -18.41Q180.33 -21.28 180.295 -22.995Q180.26 -24.71 180.12 -26.81L180.12 -26.81L175.15 -27.44L175.15 -30.03L186.77 -34.51L187.89 -33.81L188.24 -29.54Q192.93 -34.51 198.67 -34.51L198.67 -34.51Q202.45 -34.51 205.53 -32.445Q208.61 -30.38 210.43 -26.46Q212.25 -22.54 212.25 -16.87L212.25 -16.87Q212.25 -11.41 210.255 -7.385Q208.26 -3.36 204.935 -1.19Q201.61 0.98 197.55 0.98L197.55 0.98Q194.96 0.98 192.72 0Q190.48 -0.98 188.45 -3.22L188.45 -3.22L188.45 1.05Q188.45 3.71 188.485 6.545Q188.52 9.38 188.59 12.46L188.59 12.46L194.12 13.51L194.12 16.38M195.45 -29.54L195.45 -29.54Q193.84 -29.54 192.16 -28.7Q190.48 -27.86 188.66 -26.46L188.66 -26.46L188.66 -6.72Q191.67 -3.92 194.96 -3.92L194.96 -3.92Q198.46 -3.92 200.91 -6.965Q203.36 -10.01 203.36 -16.52L203.36 -16.52Q203.36 -22.96 201.155 -26.25Q198.95 -29.54 195.45 -29.54 M234.26 0L216.06 0L216.06 -2.87L220.82 -3.78Q220.89 -6.51 220.925 -9.24Q220.96 -11.97 220.96 -14.7L220.96 -14.7L220.96 -44.8L215.85 -45.5L215.85 -48.23L228.52 -51.38L229.57 -50.75L229.29 -40.81L229.29 -14.7Q229.29 -11.97 229.325 -9.24Q229.36 -6.51 229.43 -3.78L229.43 -3.78L234.26 -2.87L234.26 0 M264.39 0.84L264.39 0.84Q261.59 0.84 259.84 -0.56Q258.09 -1.96 257.53 -4.34L257.53 -4.34Q254.94 -1.75 252.77 -0.385Q250.6 0.98 247.31 0.98L247.31 0.98Q243.39 0.98 240.695 -1.295Q238 -3.57 238 -7.84L238 -7.84Q238 -10.08 239.015 -12.04Q240.03 -14 242.725 -15.68Q245.42 -17.36 250.53 -18.76L250.53 -18.76Q252.21 -19.25 253.89 -19.705Q255.57 -20.16 257.25 -20.65L257.25 -20.65L257.25 -22.82Q257.25 -27.72 255.885 -29.4Q254.52 -31.08 251.09 -31.08L251.09 -31.08Q250.39 -31.08 249.69 -31.01Q248.99 -30.94 248.15 -30.8L248.15 -30.8L247.31 -27.02Q247.03 -24.5 245.875 -23.31Q244.72 -22.12 242.97 -22.12L242.97 -22.12Q239.61 -22.12 239.05 -25.34L239.05 -25.34Q239.68 -29.47 243.565 -31.99Q247.45 -34.51 253.82 -34.51L253.82 -34.51Q259.91 -34.51 262.675 -31.605Q265.44 -28.7 265.44 -21.84L265.44 -21.84L265.44 -6.58Q265.44 -3.43 267.54 -3.43L267.54 -3.43Q268.87 -3.43 269.99 -4.97L269.99 -4.97L271.6 -3.57Q270.34 -1.19 268.59 -0.175Q266.84 0.84 264.39 0.84M246.19 -9.1L246.19 -9.1Q246.19 -6.51 247.59 -5.32Q248.99 -4.13 251.16 -4.13L251.16 -4.13Q252.56 -4.13 253.82 -4.655Q255.08 -5.18 257.25 -6.72L257.25 -6.72L257.25 -17.85Q256.06 -17.5 254.905 -17.115Q253.75 -16.73 252.63 -16.38L252.63 -16.38Q248.57 -15.05 247.38 -13.125Q246.19 -11.2 246.19 -9.1 M290.67 0L273.38 0L273.38 -2.87L277.93 -3.78Q278 -6.37 278 -9.415Q278 -12.46 278 -14.7L278 -14.7L278 -17.99Q278 -20.86 277.965 -22.785Q277.93 -24.71 277.79 -26.81L277.79 -26.81L272.82 -27.44L272.82 -30.03L285.42 -34.51L286.54 -33.81L286.33 -23.94L286.33 -14.7Q286.33 -12.46 286.33 -9.415Q286.33 -6.37 286.4 -3.71L286.4 -3.71L290.67 -2.87L290.67 0M281.85 -40.6L281.85 -40.6Q279.68 -40.6 278.14 -42Q276.6 -43.4 276.6 -45.57L276.6 -45.57Q276.6 -47.81 278.14 -49.21Q279.68 -50.61 281.85 -50.61L281.85 -50.61Q284.09 -50.61 285.595 -49.21Q287.1 -47.81 287.1 -45.57L287.1 -45.57Q287.1 -43.4 285.595 -42Q284.09 -40.6 281.85 -40.6 M311.63 0L294.34 0L294.34 -2.87L298.96 -3.78Q299.03 -6.37 299.03 -9.415Q299.03 -12.46 299.03 -14.7L299.03 -14.7L299.03 -18.41Q299.03 -21.28 298.995 -22.995Q298.96 -24.71 298.82 -26.81L298.82 -26.81L293.85 -27.44L293.85 -30.03L305.54 -34.51L306.66 -33.81L307.15 -28.42Q309.81 -31.5 312.855 -33.005Q315.9 -34.51 319.05 -34.51L319.05 -34.51Q323.6 -34.51 326.05 -31.5Q328.5 -28.49 328.5 -21.98L328.5 -21.98L328.5 -14.7Q328.5 -12.32 328.5 -9.345Q328.5 -6.37 328.57 -3.71L328.57 -3.71L332.91 -2.87L332.91 0L315.62 0L315.62 -2.87L320.1 -3.78Q320.17 -6.37 320.17 -9.345Q320.17 -12.32 320.17 -14.7L320.17 -14.7L320.17 -21.28Q320.17 -25.41 319.05 -27.02Q317.93 -28.63 315.27 -28.63L315.27 -28.63Q311.49 -28.63 307.36 -25.13L307.36 -25.13L307.36 -14.7Q307.36 -12.46 307.36 -9.415Q307.36 -6.37 307.43 -3.71L307.43 -3.71L311.63 -2.87L311.63 0" fill="currentColor"/>
  <path transform="translate(170.0 125.8)" d="M2.04 -9.27L0.66 -9.435L0.66 -10.05L4.905 -10.05L4.905 -9.435L3.525 -9.27Q3.51 -8.31 3.503 -7.335Q3.495 -6.36 3.495 -5.385L3.495 -5.385L3.495 -4.65Q3.495 -3.69 3.503 -2.722Q3.51 -1.755 3.525 -0.78L3.525 -0.78L4.905 -0.615L4.905 0L0.66 0L0.66 -0.615L2.04 -0.78Q2.07 -1.725 2.07 -2.7Q2.07 -3.675 2.07 -4.65L2.07 -4.65L2.07 -5.385Q2.07 -6.36 2.07 -7.335Q2.07 -8.31 2.04 -9.27L2.04 -9.27 M17.35 -9.24L15.775 -9.435L15.775 -10.05L19.39 -10.05L19.39 -9.435L18.115 -9.24L18.115 0.105L17.59 0.105L11.59 -8.37L11.59 -0.825L13.18 -0.615L13.18 0L9.55 0L9.55 -0.615L10.825 -0.795L10.825 -9.33L9.625 -9.435L9.625 -10.05L12.1 -10.05L17.35 -2.58L17.35 -9.24 M24.56 -7.38L23.69 -7.38L23.81 -10.05L32.03 -10.05L32.15 -7.38L31.28 -7.38L30.95 -9.3L28.655 -9.3Q28.64 -8.34 28.633 -7.357Q28.625 -6.375 28.625 -5.385L28.625 -5.385L28.625 -4.65Q28.625 -3.69 28.633 -2.722Q28.64 -1.755 28.655 -0.78L28.655 -0.78L30.185 -0.615L30.185 0L25.655 0L25.655 -0.615L27.185 -0.78Q27.215 -1.74 27.215 -2.707Q27.215 -3.675 27.215 -4.65L27.215 -4.65L27.215 -5.385Q27.215 -6.36 27.215 -7.342Q27.215 -8.325 27.185 -9.3L27.185 -9.3L24.89 -9.3L24.56 -7.38 M37.89 -9.27L36.51 -9.435L36.51 -10.05L43.98 -10.05L44.085 -7.395L43.23 -7.395L42.9 -9.3L39.375 -9.3Q39.36 -8.34 39.353 -7.372Q39.345 -6.405 39.345 -5.475L39.345 -5.475L41.55 -5.475L41.76 -6.9L42.45 -6.9L42.45 -3.36L41.76 -3.36L41.565 -4.77L39.345 -4.77Q39.345 -3.645 39.353 -2.662Q39.36 -1.68 39.375 -0.75L39.375 -0.75L43.2 -0.75L43.53 -2.67L44.385 -2.67L44.28 0L36.51 0L36.51 -0.615L37.89 -0.78Q37.92 -1.725 37.92 -2.7Q37.92 -3.675 37.92 -4.65L37.92 -4.65L37.92 -5.385Q37.92 -6.36 37.92 -7.335Q37.92 -8.31 37.89 -9.27L37.89 -9.27 M50.335 -9.27L48.955 -9.435L48.955 -10.05L53.2 -10.05L53.2 -9.435L51.82 -9.27Q51.805 -8.31 51.798 -7.335Q51.79 -6.36 51.79 -5.385L51.79 -5.385L51.79 -4.35Q51.79 -3.555 51.798 -2.632Q51.805 -1.71 51.82 -0.75L51.82 -0.75L55.225 -0.75L55.66 -2.82L56.575 -2.82L56.425 0L48.955 0L48.955 -0.615L50.335 -0.78Q50.365 -1.755 50.365 -2.715Q50.365 -3.675 50.365 -4.635L50.365 -4.635L50.365 -5.385Q50.365 -6.36 50.365 -7.335Q50.365 -8.31 50.335 -9.27L50.335 -9.27 M62.675 -9.27L61.295 -9.435L61.295 -10.05L65.54 -10.05L65.54 -9.435L64.16 -9.27Q64.145 -8.31 64.138 -7.335Q64.13 -6.36 64.13 -5.385L64.13 -5.385L64.13 -4.35Q64.13 -3.555 64.138 -2.632Q64.145 -1.71 64.16 -0.75L64.16 -0.75L67.565 -0.75L68 -2.82L68.915 -2.82L68.765 0L61.295 0L61.295 -0.615L62.675 -0.78Q62.705 -1.755 62.705 -2.715Q62.705 -3.675 62.705 -4.635L62.705 -4.635L62.705 -5.385Q62.705 -6.36 62.705 -7.335Q62.705 -8.31 62.675 -9.27L62.675 -9.27 M75.015 -9.27L73.635 -9.435L73.635 -10.05L77.88 -10.05L77.88 -9.435L76.5 -9.27Q76.485 -8.31 76.478 -7.335Q76.47 -6.36 76.47 -5.385L76.47 -5.385L76.47 -4.65Q76.47 -3.69 76.478 -2.722Q76.485 -1.755 76.5 -0.78L76.5 -0.78L77.88 -0.615L77.88 0L73.635 0L73.635 -0.615L75.015 -0.78Q75.045 -1.725 75.045 -2.7Q75.045 -3.675 75.045 -4.65L75.045 -4.65L75.045 -5.385Q75.045 -6.36 75.045 -7.335Q75.045 -8.31 75.015 -9.27L75.015 -9.27 M87.7 0.225L87.7 0.225Q86.2 0.225 85.06 -0.457Q83.92 -1.14 83.283 -2.325Q82.645 -3.51 82.645 -5.025L82.645 -5.025Q82.645 -6.54 83.29 -7.725Q83.935 -8.91 85.083 -9.592Q86.23 -10.275 87.76 -10.275L87.76 -10.275Q88.69 -10.275 89.418 -10.102Q90.145 -9.93 90.775 -9.57L90.775 -9.57L90.835 -7.38L89.905 -7.38L89.605 -9.09Q88.825 -9.525 87.895 -9.525L87.895 -9.525Q86.86 -9.525 86.043 -9Q85.225 -8.475 84.753 -7.47Q84.28 -6.465 84.28 -5.025L84.28 -5.025Q84.28 -2.88 85.27 -1.71Q86.26 -0.54 87.985 -0.54L87.985 -0.54Q88.84 -0.54 89.59 -0.84L89.59 -0.84L89.59 -1.32Q89.59 -1.995 89.583 -2.677Q89.575 -3.36 89.56 -4.035L89.56 -4.035L88 -4.17L88 -4.77L91.945 -4.77L91.945 -4.17L91.03 -4.08Q91.015 -3.405 91.008 -2.715Q91 -2.025 91 -1.32L91 -1.32L91 -0.66Q90.22 -0.255 89.425 -0.015Q88.63 0.225 87.7 0.225 M97.61 -9.27L96.23 -9.435L96.23 -10.05L103.7 -10.05L103.805 -7.395L102.95 -7.395L102.62 -9.3L99.095 -9.3Q99.08 -8.34 99.073 -7.372Q99.065 -6.405 99.065 -5.475L99.065 -5.475L101.27 -5.475L101.48 -6.9L102.17 -6.9L102.17 -3.36L101.48 -3.36L101.285 -4.77L99.065 -4.77Q99.065 -3.645 99.073 -2.662Q99.08 -1.68 99.095 -0.75L99.095 -0.75L102.92 -0.75L103.25 -2.67L104.105 -2.67L104 0L96.23 0L96.23 -0.615L97.61 -0.78Q97.64 -1.725 97.64 -2.7Q97.64 -3.675 97.64 -4.65L97.64 -4.65L97.64 -5.385Q97.64 -6.36 97.64 -7.335Q97.64 -8.31 97.61 -9.27L97.61 -9.27 M116.4 -9.24L114.825 -9.435L114.825 -10.05L118.44 -10.05L118.44 -9.435L117.165 -9.24L117.165 0.105L116.64 0.105L110.64 -8.37L110.64 -0.825L112.23 -0.615L112.23 0L108.6 0L108.6 -0.615L109.875 -0.795L109.875 -9.33L108.675 -9.435L108.675 -10.05L111.15 -10.05L116.4 -2.58L116.4 -9.24 M128.23 0.225L128.23 0.225Q126.715 0.225 125.568 -0.442Q124.42 -1.11 123.783 -2.295Q123.145 -3.48 123.145 -5.025L123.145 -5.025Q123.145 -6.165 123.528 -7.125Q123.91 -8.085 124.593 -8.79Q125.275 -9.495 126.198 -9.885Q127.12 -10.275 128.215 -10.275L128.215 -10.275Q128.83 -10.275 129.595 -10.132Q130.36 -9.99 131.11 -9.555L131.11 -9.555L131.17 -7.38L130.24 -7.38L129.94 -9.12Q129.535 -9.345 129.153 -9.435Q128.77 -9.525 128.41 -9.525L128.41 -9.525Q127.405 -9.525 126.58 -9.007Q125.755 -8.49 125.268 -7.492Q124.78 -6.495 124.78 -5.025L124.78 -5.025Q124.78 -3.555 125.23 -2.55Q125.68 -1.545 126.483 -1.035Q127.285 -0.525 128.305 -0.525L128.305 -0.525Q128.74 -0.525 129.198 -0.622Q129.655 -0.72 130.09 -0.93L130.09 -0.93L130.39 -2.67L131.32 -2.67L131.26 -0.495Q130.57 -0.12 129.798 0.053Q129.025 0.225 128.23 0.225 M137.345 -9.27L135.965 -9.435L135.965 -10.05L143.435 -10.05L143.54 -7.395L142.685 -7.395L142.355 -9.3L138.83 -9.3Q138.815 -8.34 138.808 -7.372Q138.8 -6.405 138.8 -5.475L138.8 -5.475L141.005 -5.475L141.215 -6.9L141.905 -6.9L141.905 -3.36L141.215 -3.36L141.02 -4.77L138.8 -4.77Q138.8 -3.645 138.808 -2.662Q138.815 -1.68 138.83 -0.75L138.83 -0.75L142.655 -0.75L142.985 -2.67L143.84 -2.67L143.735 0L135.965 0L135.965 -0.615L137.345 -0.78Q137.375 -1.725 137.375 -2.7Q137.375 -3.675 137.375 -4.65L137.375 -4.65L137.375 -5.385Q137.375 -6.36 137.375 -7.335Q137.375 -8.31 137.345 -9.27L137.345 -9.27 M159.46 -9.36L159.46 -9.36L158.17 -9.36Q158.155 -8.37 158.148 -7.38Q158.14 -6.39 158.14 -5.325L158.14 -5.325L159.295 -5.325Q160.51 -5.325 161.088 -5.917Q161.665 -6.51 161.665 -7.41L161.665 -7.41Q161.665 -8.355 161.14 -8.857Q160.615 -9.36 159.46 -9.36M156.685 -9.27L155.305 -9.435L155.305 -10.05L159.505 -10.05Q161.23 -10.05 162.19 -9.36Q163.15 -8.67 163.15 -7.425L163.15 -7.425Q163.15 -6.555 162.52 -5.827Q161.89 -5.1 160.615 -4.875L160.615 -4.875Q161.305 -4.74 161.733 -4.297Q162.16 -3.855 162.4 -2.97L162.4 -2.97L163.045 -0.75L164.2 -0.615L164.2 0Q163.975 0.06 163.698 0.105Q163.42 0.15 163.075 0.15L163.075 0.15Q162.37 0.15 162.018 -0.06Q161.665 -0.27 161.53 -0.81L161.53 -0.81L160.93 -3.21Q160.795 -3.825 160.54 -4.132Q160.285 -4.44 159.888 -4.545Q159.49 -4.65 158.875 -4.65L158.875 -4.65L158.14 -4.65Q158.14 -3.57 158.148 -2.625Q158.155 -1.68 158.17 -0.78L158.17 -0.78L159.55 -0.615L159.55 0L155.305 0L155.305 -0.615L156.685 -0.78Q156.715 -1.725 156.715 -2.7Q156.715 -3.675 156.715 -4.65L156.715 -4.65L156.715 -5.385Q156.715 -6.36 156.715 -7.335Q156.715 -8.31 156.685 -9.27L156.685 -9.27 M173.12 0.225L173.12 0.225Q172.25 0.225 171.425 -0.112Q170.6 -0.45 169.94 -1.11Q169.28 -1.77 168.898 -2.752Q168.515 -3.735 168.515 -5.025L168.515 -5.025Q168.515 -6.255 168.905 -7.23Q169.295 -8.205 169.948 -8.88Q170.6 -9.555 171.425 -9.915Q172.25 -10.275 173.12 -10.275L173.12 -10.275Q173.99 -10.275 174.808 -9.937Q175.625 -9.6 176.278 -8.932Q176.93 -8.265 177.32 -7.29Q177.71 -6.315 177.71 -5.025L177.71 -5.025Q177.71 -3.795 177.328 -2.82Q176.945 -1.845 176.293 -1.162Q175.64 -0.48 174.815 -0.127Q173.99 0.225 173.12 0.225M173.12 -0.525L173.12 -0.525Q173.9 -0.525 174.463 -0.907Q175.025 -1.29 175.378 -1.927Q175.73 -2.565 175.895 -3.367Q176.06 -4.17 176.06 -5.025L176.06 -5.025Q176.06 -5.865 175.895 -6.667Q175.73 -7.47 175.378 -8.115Q175.025 -8.76 174.463 -9.142Q173.9 -9.525 173.12 -9.525L173.12 -9.525Q172.34 -9.525 171.778 -9.142Q171.215 -8.76 170.855 -8.115Q170.495 -7.47 170.323 -6.667Q170.15 -5.865 170.15 -5.025L170.15 -5.025Q170.15 -4.17 170.323 -3.367Q170.495 -2.565 170.855 -1.927Q171.215 -1.29 171.778 -0.907Q172.34 -0.525 173.12 -0.525 M187.125 0.225L187.125 0.225Q186.255 0.225 185.43 -0.112Q184.605 -0.45 183.945 -1.11Q183.285 -1.77 182.903 -2.752Q182.52 -3.735 182.52 -5.025L182.52 -5.025Q182.52 -6.255 182.91 -7.23Q183.3 -8.205 183.953 -8.88Q184.605 -9.555 185.43 -9.915Q186.255 -10.275 187.125 -10.275L187.125 -10.275Q187.995 -10.275 188.813 -9.937Q189.63 -9.6 190.283 -8.932Q190.935 -8.265 191.325 -7.29Q191.715 -6.315 191.715 -5.025L191.715 -5.025Q191.715 -3.795 191.333 -2.82Q190.95 -1.845 190.297 -1.162Q189.645 -0.48 188.82 -0.127Q187.995 0.225 187.125 0.225M187.125 -0.525L187.125 -0.525Q187.905 -0.525 188.468 -0.907Q189.03 -1.29 189.383 -1.927Q189.735 -2.565 189.9 -3.367Q190.065 -4.17 190.065 -5.025L190.065 -5.025Q190.065 -5.865 189.9 -6.667Q189.735 -7.47 189.383 -8.115Q189.03 -8.76 188.468 -9.142Q187.905 -9.525 187.125 -9.525L187.125 -9.525Q186.345 -9.525 185.783 -9.142Q185.22 -8.76 184.86 -8.115Q184.5 -7.47 184.328 -6.667Q184.155 -5.865 184.155 -5.025L184.155 -5.025Q184.155 -4.17 184.328 -3.367Q184.5 -2.565 184.86 -1.927Q185.22 -1.29 185.783 -0.907Q186.345 -0.525 187.125 -0.525 M196.99 -7.38L196.12 -7.38L196.24 -10.05L204.46 -10.05L204.58 -7.38L203.71 -7.38L203.38 -9.3L201.085 -9.3Q201.07 -8.34 201.063 -7.357Q201.055 -6.375 201.055 -5.385L201.055 -5.385L201.055 -4.65Q201.055 -3.69 201.063 -2.722Q201.07 -1.755 201.085 -0.78L201.085 -0.78L202.615 -0.615L202.615 0L198.085 0L198.085 -0.615L199.615 -0.78Q199.645 -1.74 199.645 -2.707Q199.645 -3.675 199.645 -4.65L199.645 -4.65L199.645 -5.385Q199.645 -6.36 199.645 -7.342Q199.645 -8.325 199.615 -9.3L199.615 -9.3L197.32 -9.3L196.99 -7.38 M210.32 -9.27L208.94 -9.435L208.94 -10.05L216.41 -10.05L216.515 -7.395L215.66 -7.395L215.33 -9.3L211.805 -9.3Q211.79 -8.34 211.783 -7.372Q211.775 -6.405 211.775 -5.475L211.775 -5.475L213.98 -5.475L214.19 -6.9L214.88 -6.9L214.88 -3.36L214.19 -3.36L213.995 -4.77L211.775 -4.77Q211.775 -3.645 211.783 -2.662Q211.79 -1.68 211.805 -0.75L211.805 -0.75L215.63 -0.75L215.96 -2.67L216.815 -2.67L216.71 0L208.94 0L208.94 -0.615L210.32 -0.78Q210.35 -1.725 210.35 -2.7Q210.35 -3.675 210.35 -4.65L210.35 -4.65L210.35 -5.385Q210.35 -6.36 210.35 -7.335Q210.35 -8.31 210.32 -9.27L210.32 -9.27 M224.22 -5.385L224.22 -4.83Q224.22 -3.735 224.228 -2.715Q224.235 -1.695 224.25 -0.705L224.25 -0.705L225.435 -0.705Q227.175 -0.705 228.105 -1.837Q229.035 -2.97 229.035 -5.01L229.035 -5.01Q229.035 -7.125 228.12 -8.242Q227.205 -9.36 225.57 -9.36L225.57 -9.36L224.25 -9.36Q224.235 -8.385 224.228 -7.387Q224.22 -6.39 224.22 -5.385L224.22 -5.385M222.765 -9.27L221.385 -9.435L221.385 -10.05L225.81 -10.05Q227.25 -10.05 228.345 -9.465Q229.44 -8.88 230.055 -7.762Q230.67 -6.645 230.67 -5.01L230.67 -5.01Q230.67 -3.39 229.995 -2.272Q229.32 -1.155 228.158 -0.577Q226.995 0 225.525 0L225.525 0L221.385 0L221.385 -0.615L222.765 -0.78Q222.795 -1.74 222.795 -2.737Q222.795 -3.735 222.795 -4.83L222.795 -4.83L222.795 -5.385Q222.795 -6.36 222.795 -7.335Q222.795 -8.31 222.765 -9.27L222.765 -9.27 M243.71 -9.27L242.33 -9.435L242.33 -10.05L246.575 -10.05L246.575 -9.435L245.195 -9.27Q245.18 -8.31 245.173 -7.335Q245.165 -6.36 245.165 -5.385L245.165 -5.385L245.165 -4.65Q245.165 -3.69 245.173 -2.722Q245.18 -1.755 245.195 -0.78L245.195 -0.78L246.575 -0.615L246.575 0L242.33 0L242.33 -0.615L243.71 -0.78Q243.74 -1.725 243.74 -2.7Q243.74 -3.675 243.74 -4.65L243.74 -4.65L243.74 -5.385Q243.74 -6.36 243.74 -7.335Q243.74 -8.31 243.71 -9.27L243.71 -9.27 M259.02 -9.24L257.445 -9.435L257.445 -10.05L261.06 -10.05L261.06 -9.435L259.785 -9.24L259.785 0.105L259.26 0.105L253.26 -8.37L253.26 -0.825L254.85 -0.615L254.85 0L251.22 0L251.22 -0.615L252.495 -0.795L252.495 -9.33L251.295 -9.435L251.295 -10.05L253.77 -10.05L259.02 -2.58L259.02 -9.24 M276.77 -9.36L276.77 -9.36L275.48 -9.36Q275.465 -8.37 275.458 -7.38Q275.45 -6.39 275.45 -5.325L275.45 -5.325L276.605 -5.325Q277.82 -5.325 278.398 -5.917Q278.975 -6.51 278.975 -7.41L278.975 -7.41Q278.975 -8.355 278.45 -8.857Q277.925 -9.36 276.77 -9.36M273.995 -9.27L272.615 -9.435L272.615 -10.05L276.815 -10.05Q278.54 -10.05 279.5 -9.36Q280.46 -8.67 280.46 -7.425L280.46 -7.425Q280.46 -6.555 279.83 -5.827Q279.2 -5.1 277.925 -4.875L277.925 -4.875Q278.615 -4.74 279.042 -4.297Q279.47 -3.855 279.71 -2.97L279.71 -2.97L280.355 -0.75L281.51 -0.615L281.51 0Q281.285 0.06 281.008 0.105Q280.73 0.15 280.385 0.15L280.385 0.15Q279.68 0.15 279.328 -0.06Q278.975 -0.27 278.84 -0.81L278.84 -0.81L278.24 -3.21Q278.105 -3.825 277.85 -4.132Q277.595 -4.44 277.198 -4.545Q276.8 -4.65 276.185 -4.65L276.185 -4.65L275.45 -4.65Q275.45 -3.57 275.458 -2.625Q275.465 -1.68 275.48 -0.78L275.48 -0.78L276.86 -0.615L276.86 0L272.615 0L272.615 -0.615L273.995 -0.78Q274.025 -1.725 274.025 -2.7Q274.025 -3.675 274.025 -4.65L274.025 -4.65L274.025 -5.385Q274.025 -6.36 274.025 -7.335Q274.025 -8.31 273.995 -9.27L273.995 -9.27 M287.16 -9.27L285.78 -9.435L285.78 -10.05L293.25 -10.05L293.355 -7.395L292.5 -7.395L292.17 -9.3L288.645 -9.3Q288.63 -8.34 288.623 -7.372Q288.615 -6.405 288.615 -5.475L288.615 -5.475L290.82 -5.475L291.03 -6.9L291.72 -6.9L291.72 -3.36L291.03 -3.36L290.835 -4.77L288.615 -4.77Q288.615 -3.645 288.623 -2.662Q288.63 -1.68 288.645 -0.75L288.645 -0.75L292.47 -0.75L292.8 -2.67L293.655 -2.67L293.55 0L285.78 0L285.78 -0.615L287.16 -0.78Q287.19 -1.725 287.19 -2.7Q287.19 -3.675 287.19 -4.65L287.19 -4.65L287.19 -5.385Q287.19 -6.36 287.19 -7.335Q287.19 -8.31 287.16 -9.27L287.16 -9.27 M301.075 0L297.64 0L297.64 -0.615L298.9 -0.81L302.095 -10.125L303.04 -10.125L306.235 -0.75L307.36 -0.615L307.36 0L303.28 0L303.28 -0.615L304.75 -0.795L303.925 -3.255L300.445 -3.255L299.62 -0.81L301.075 -0.615L301.075 0M302.2 -8.415L300.685 -3.96L303.7 -3.96L302.2 -8.415 M312.965 -9.27L311.585 -9.435L311.585 -10.05L315.83 -10.05L315.83 -9.435L314.45 -9.27Q314.435 -8.31 314.428 -7.335Q314.42 -6.36 314.42 -5.385L314.42 -5.385L314.42 -4.35Q314.42 -3.555 314.428 -2.632Q314.435 -1.71 314.45 -0.75L314.45 -0.75L317.855 -0.75L318.29 -2.82L319.205 -2.82L319.055 0L311.585 0L311.585 -0.615L312.965 -0.78Q312.995 -1.755 312.995 -2.715Q312.995 -3.675 312.995 -4.635L312.995 -4.635L312.995 -5.385Q312.995 -6.36 312.995 -7.335Q312.995 -8.31 312.965 -9.27L312.965 -9.27 M325.305 -9.27L323.925 -9.435L323.925 -10.05L328.17 -10.05L328.17 -9.435L326.79 -9.27Q326.775 -8.31 326.768 -7.335Q326.76 -6.36 326.76 -5.385L326.76 -5.385L326.76 -4.65Q326.76 -3.69 326.768 -2.722Q326.775 -1.755 326.79 -0.78L326.79 -0.78L328.17 -0.615L328.17 0L323.925 0L323.925 -0.615L325.305 -0.78Q325.335 -1.725 325.335 -2.7Q325.335 -3.675 325.335 -4.65L325.335 -4.65L325.335 -5.385Q325.335 -6.36 325.335 -7.335Q325.335 -8.31 325.305 -9.27L325.305 -9.27 M333.4 -7.38L332.53 -7.38L332.65 -10.05L340.87 -10.05L340.99 -7.38L340.12 -7.38L339.79 -9.3L337.495 -9.3Q337.48 -8.34 337.472 -7.357Q337.465 -6.375 337.465 -5.385L337.465 -5.385L337.465 -4.65Q337.465 -3.69 337.472 -2.722Q337.48 -1.755 337.495 -0.78L337.495 -0.78L339.025 -0.615L339.025 0L334.495 0L334.495 -0.615L336.025 -0.78Q336.055 -1.74 336.055 -2.707Q336.055 -3.675 336.055 -4.65L336.055 -4.65L336.055 -5.385Q336.055 -6.36 336.055 -7.342Q336.055 -8.325 336.025 -9.3L336.025 -9.3L333.73 -9.3L333.4 -7.38 M346.085 -9.315L345.065 -9.435L345.065 -10.05L349.145 -10.05L349.145 -9.435L347.72 -9.27L349.805 -4.71L351.95 -9.255L350.6 -9.435L350.6 -10.05L354.035 -10.05L354.035 -9.435L352.715 -9.24L350.165 -3.945Q350.165 -3.075 350.172 -2.287Q350.18 -1.5 350.195 -0.78L350.195 -0.78L351.725 -0.615L351.725 0L347.195 0L347.195 -0.615L348.725 -0.78Q348.755 -1.485 348.755 -2.25Q348.755 -3.015 348.755 -3.885L348.755 -3.885L346.085 -9.315" fill="currentColor"/>
</svg>
