<svg xmlns="http://www.w3.org/2000/svg" viewBox="0 0 582.1 132.8" role="img" aria-label="agentplain" style="color:#1F3D2E">
  <path transform="translate(4 97.6)" d="M49.8 1.44L49.8 1.44Q45 1.44 42 -0.96Q39 -3.36 38.04 -7.44L38.04 -7.44Q33.6 -3 29.88 -0.66Q26.16 1.68 20.52 1.68L20.52 1.68Q13.8 1.68 9.18 -2.22Q4.56 -6.12 4.56 -13.44L4.56 -13.44Q4.56 -17.28 6.3 -20.64Q8.04 -24 12.66 -26.88Q17.28 -29.76 26.04 -32.16L26.04 -32.16Q28.92 -33 31.8 -33.78Q34.68 -34.56 37.56 -35.4L37.56 -35.4L37.56 -39.12Q37.56 -47.52 35.22 -50.4Q32.88 -53.28 27 -53.28L27 -53.28Q25.8 -53.28 24.6 -53.16Q23.4 -53.04 21.96 -52.8L21.96 -52.8L20.52 -46.32Q20.04 -42 18.06 -39.96Q16.08 -37.92 13.08 -37.92L13.08 -37.92Q7.32 -37.92 6.36 -43.44L6.36 -43.44Q7.44 -50.52 14.1 -54.84Q20.76 -59.16 31.68 -59.16L31.68 -59.16Q42.12 -59.16 46.86 -54.18Q51.6 -49.2 51.6 -37.44L51.6 -37.44L51.6 -11.28Q51.6 -5.88 55.2 -5.88L55.2 -5.88Q57.48 -5.88 59.4 -8.52L59.4 -8.52L62.16 -6.12Q60 -2.04 57 -0.3Q54 1.44 49.8 1.44M18.6 -15.6L18.6 -15.6Q18.6 -11.16 21 -9.12Q23.4 -7.08 27.12 -7.08L27.12 -7.08Q29.52 -7.08 31.68 -7.98Q33.84 -8.88 37.56 -11.52L37.56 -11.52L37.56 -30.6Q35.52 -30 33.54 -29.34Q31.56 -28.68 29.64 -28.08L29.64 -28.08Q22.68 -25.8 20.64 -22.5Q18.6 -19.2 18.6 -15.6 M75.68 11.28L75.68 11.28Q75.68 21.72 90.56 21.72L90.56 21.72Q100.52 21.72 105.32 18.66Q110.12 15.6 110.12 11.04L110.12 11.04Q110.12 7.2 107.6 4.74Q105.08 2.28 99.08 2.28L99.08 2.28L86.24 2.28Q82.64 2.28 79.88 1.92L79.88 1.92Q75.68 6 75.68 11.28M90.2 -25.2L90.2 -25.2Q95.24 -25.2 97.94 -29.28Q100.64 -33.36 100.64 -39.96L100.64 -39.96Q100.64 -46.32 98.06 -50.16Q95.48 -54 90.56 -54L90.56 -54Q85.76 -54 83 -50.1Q80.24 -46.2 80.24 -39.6L80.24 -39.6Q80.24 -33 82.82 -29.1Q85.4 -25.2 90.2 -25.2M90.32 -20.16L90.32 -20.16Q85.16 -20.16 80.6 -21.48L80.6 -21.48Q78.2 -18.6 78.2 -15.72L78.2 -15.72Q78.2 -9.72 86.12 -9.72L86.12 -9.72L100.16 -9.72Q111.92 -9.72 116.96 -5.4Q122 -1.08 122 6.24L122 6.24Q122 11.76 118.04 16.8Q114.08 21.84 106.46 24.96Q98.84 28.08 87.68 28.08L87.68 28.08Q75.08 28.08 69.74 23.94Q64.4 19.8 64.4 14.04L64.4 14.04Q64.4 9.96 67.22 6.72Q70.04 3.48 76.4 0.84L76.4 0.84Q67.88 -1.68 67.88 -9.24L67.88 -9.24Q67.88 -12.6 69.98 -15.96Q72.08 -19.32 76.64 -23.04L76.64 -23.04Q67.16 -28.08 67.16 -39.6L67.16 -39.6Q67.16 -48.48 73.34 -53.82Q79.52 -59.16 90.44 -59.16L90.44 -59.16Q101.36 -59.16 107.48 -54L107.48 -54L120.92 -59.28L122.72 -58.08L122.72 -49.68L111.2 -49.68Q112.4 -47.52 113.06 -45Q113.72 -42.48 113.72 -39.6L113.72 -39.6Q113.72 -30.84 107.54 -25.5Q101.36 -20.16 90.32 -20.16 M157 -53.28L157 -53.28Q153.88 -53.28 150.94 -51.48Q148 -49.68 145.96 -45.48Q143.92 -41.28 143.44 -34.08L143.44 -34.08L159.64 -34.08Q164.32 -34.08 165.82 -35.88Q167.32 -37.68 167.32 -40.92L167.32 -40.92Q167.32 -47.16 164.44 -50.22Q161.56 -53.28 157 -53.28M157.6 1.68L157.6 1.68Q148.84 1.68 142.24 -1.8Q135.64 -5.28 131.98 -11.94Q128.32 -18.6 128.32 -28.08L128.32 -28.08Q128.32 -37.68 132.16 -44.64Q136 -51.6 142.54 -55.38Q149.08 -59.16 157 -59.16L157 -59.16Q164.2 -59.16 169.6 -56.16Q175 -53.16 178 -47.76Q181 -42.36 181 -35.04L181 -35.04Q181 -31.2 180.28 -28.44L180.28 -28.44L143.32 -28.44Q143.8 -18.24 148.96 -13.02Q154.12 -7.8 162.16 -7.8L162.16 -7.8Q172.12 -7.8 178.36 -14.88L178.36 -14.88L181.6 -12.24Q177.88 -5.64 172.36 -1.98Q166.84 1.68 157.6 1.68 M218.4 0L188.76 0L188.76 -4.92L196.68 -6.48Q196.8 -10.92 196.8 -16.14Q196.8 -21.36 196.8 -25.2L196.8 -25.2L196.8 -31.56Q196.8 -36.48 196.74 -39.42Q196.68 -42.36 196.44 -45.96L196.44 -45.96L187.92 -47.04L187.92 -51.48L207.96 -59.16L209.88 -57.96L210.72 -48.72Q215.28 -54 220.5 -56.58Q225.72 -59.16 231.12 -59.16L231.12 -59.16Q238.92 -59.16 243.12 -54Q247.32 -48.84 247.32 -37.68L247.32 -37.68L247.32 -25.2Q247.32 -21.12 247.32 -16.02Q247.32 -10.92 247.44 -6.36L247.44 -6.36L254.88 -4.92L254.88 0L225.24 0L225.24 -4.92L232.92 -6.48Q233.04 -10.92 233.04 -16.02Q233.04 -21.12 233.04 -25.2L233.04 -25.2L233.04 -36.48Q233.04 -43.56 231.12 -46.32Q229.2 -49.08 224.64 -49.08L224.64 -49.08Q218.16 -49.08 211.08 -43.08L211.08 -43.08L211.08 -25.2Q211.08 -21.36 211.08 -16.14Q211.08 -10.92 211.2 -6.36L211.2 -6.36L218.4 -4.92L218.4 0 M282.32 1.68L282.32 1.68Q275.24 1.68 271.1 -1.92Q266.96 -5.52 266.96 -13.44L266.96 -13.44Q266.96 -16.08 267.02 -18.54Q267.08 -21 267.08 -24.48L267.08 -24.48L267.08 -50.28L258.2 -50.28L258.2 -56.4L268.04 -57.6L272.48 -74.04L282.08 -74.04L281.6 -57.48L296.12 -57.48L296.12 -50.28L281.48 -50.28L281.48 -14.76Q281.48 -10.32 283.22 -8.28Q284.96 -6.24 287.84 -6.24L287.84 -6.24Q291.32 -6.24 295.16 -9.24L295.16 -9.24L298.04 -6.24Q295.76 -2.52 291.86 -0.42Q287.96 1.68 282.32 1.68 M332.92 28.08L300.76 28.08L300.76 23.16L309.04 21.6Q309.16 16.32 309.22 11.4Q309.28 6.48 309.28 1.92L309.28 1.92L309.28 -31.56Q309.28 -36.48 309.22 -39.42Q309.16 -42.36 308.92 -45.96L308.92 -45.96L300.4 -47.04L300.4 -51.48L320.32 -59.16L322.24 -57.96L322.84 -50.64Q330.88 -59.16 340.72 -59.16L340.72 -59.16Q347.2 -59.16 352.48 -55.62Q357.76 -52.08 360.88 -45.36Q364 -38.64 364 -28.92L364 -28.92Q364 -19.56 360.58 -12.66Q357.16 -5.76 351.46 -2.04Q345.76 1.68 338.8 1.68L338.8 1.68Q334.36 1.68 330.52 0Q326.68 -1.68 323.2 -5.52L323.2 -5.52L323.2 1.8Q323.2 6.36 323.26 11.22Q323.32 16.08 323.44 21.36L323.44 21.36L332.92 23.16L332.92 28.08M335.2 -50.64L335.2 -50.64Q332.44 -50.64 329.56 -49.2Q326.68 -47.76 323.56 -45.36L323.56 -45.36L323.56 -11.52Q328.72 -6.72 334.36 -6.72L334.36 -6.72Q340.36 -6.72 344.56 -11.94Q348.76 -17.16 348.76 -28.32L348.76 -28.32Q348.76 -39.36 344.98 -45Q341.2 -50.64 335.2 -50.64 M401.76 0L370.56 0L370.56 -4.92L378.72 -6.48Q378.84 -11.16 378.9 -15.84Q378.96 -20.52 378.96 -25.2L378.96 -25.2L378.96 -76.8L370.2 -78L370.2 -82.68L391.92 -88.08L393.72 -87L393.24 -69.96L393.24 -25.2Q393.24 -20.52 393.3 -15.84Q393.36 -11.16 393.48 -6.48L393.48 -6.48L401.76 -4.92L401.76 0 M453.44 1.44L453.44 1.44Q448.64 1.44 445.64 -0.96Q442.64 -3.36 441.68 -7.44L441.68 -7.44Q437.24 -3 433.52 -0.66Q429.8 1.68 424.16 1.68L424.16 1.68Q417.44 1.68 412.82 -2.22Q408.2 -6.12 408.2 -13.44L408.2 -13.44Q408.2 -17.28 409.94 -20.64Q411.68 -24 416.3 -26.88Q420.92 -29.76 429.68 -32.16L429.68 -32.16Q432.56 -33 435.44 -33.78Q438.32 -34.56 441.2 -35.4L441.2 -35.4L441.2 -39.12Q441.2 -47.52 438.86 -50.4Q436.52 -53.28 430.64 -53.28L430.64 -53.28Q429.44 -53.28 428.24 -53.16Q427.04 -53.04 425.6 -52.8L425.6 -52.8L424.16 -46.32Q423.68 -42 421.7 -39.96Q419.72 -37.92 416.72 -37.92L416.72 -37.92Q410.96 -37.92 410 -43.44L410 -43.44Q411.08 -50.52 417.74 -54.84Q424.4 -59.16 435.32 -59.16L435.32 -59.16Q445.76 -59.16 450.5 -54.18Q455.24 -49.2 455.24 -37.44L455.24 -37.44L455.24 -11.28Q455.24 -5.88 458.84 -5.88L458.84 -5.88Q461.12 -5.88 463.04 -8.52L463.04 -8.52L465.8 -6.12Q463.64 -2.04 460.64 -0.3Q457.64 1.44 453.44 1.44M422.24 -15.6L422.24 -15.6Q422.24 -11.16 424.64 -9.12Q427.04 -7.08 430.76 -7.08L430.76 -7.08Q433.16 -7.08 435.32 -7.98Q437.48 -8.88 441.2 -11.52L441.2 -11.52L441.2 -30.6Q439.16 -30 437.18 -29.34Q435.2 -28.68 433.28 -28.08L433.28 -28.08Q426.32 -25.8 424.28 -22.5Q422.24 -19.2 422.24 -15.6 M498.52 0L468.88 0L468.88 -4.92L476.68 -6.48Q476.8 -10.92 476.8 -16.14Q476.8 -21.36 476.8 -25.2L476.8 -25.2L476.8 -30.84Q476.8 -35.76 476.74 -39.06Q476.68 -42.36 476.44 -45.96L476.44 -45.96L467.92 -47.04L467.92 -51.48L489.52 -59.16L491.44 -57.96L491.08 -41.04L491.08 -25.2Q491.08 -21.36 491.08 -16.14Q491.08 -10.92 491.2 -6.36L491.2 -6.36L498.52 -4.92L498.52 0M483.4 -69.6L483.4 -69.6Q479.68 -69.6 477.04 -72Q474.4 -74.4 474.4 -78.12L474.4 -78.12Q474.4 -81.96 477.04 -84.36Q479.68 -86.76 483.4 -86.76L483.4 -86.76Q487.24 -86.76 489.82 -84.36Q492.4 -81.96 492.4 -78.12L492.4 -78.12Q492.4 -74.4 489.82 -72Q487.24 -69.6 483.4 -69.6 M534.48 0L504.84 0L504.84 -4.92L512.76 -6.48Q512.88 -10.92 512.88 -16.14Q512.88 -21.36 512.88 -25.2L512.88 -25.2L512.88 -31.56Q512.88 -36.48 512.82 -39.42Q512.76 -42.36 512.52 -45.96L512.52 -45.96L504 -47.04L504 -51.48L524.04 -59.16L525.96 -57.96L526.8 -48.72Q531.36 -54 536.58 -56.58Q541.8 -59.16 547.2 -59.16L547.2 -59.16Q555 -59.16 559.2 -54Q563.4 -48.84 563.4 -37.68L563.4 -37.68L563.4 -25.2Q563.4 -21.12 563.4 -16.02Q563.4 -10.92 563.52 -6.36L563.52 -6.36L570.96 -4.92L570.96 0L541.32 0L541.32 -4.92L549 -6.48Q549.12 -10.92 549.12 -16.02Q549.12 -21.12 549.12 -25.2L549.12 -25.2L549.12 -36.48Q549.12 -43.56 547.2 -46.32Q545.28 -49.08 540.72 -49.08L540.72 -49.08Q534.24 -49.08 527.16 -43.08L527.16 -43.08L527.16 -25.2Q527.16 -21.36 527.16 -16.14Q527.16 -10.92 527.28 -6.36L527.28 -6.36L534.48 -4.92L534.48 0" fill="currentColor"/>
</svg>
