<svg xmlns="http://www.w3.org/2000/svg" viewBox="0 0 240 40" role="img" aria-label="agentplain — wheat-sheaf mark" style="color:#1A1A1F">
  <g transform="translate(0 6)">
    <g fill="none" stroke="currentColor" stroke-linecap="round" stroke-linejoin="round" transform="scale(1.333)">
      <line x1="4" y1="22" x2="20" y2="22" stroke-width="0.7" opacity="0.55"/>
      <path d="M8 22 C8 18 7.5 14 7 10" stroke-width="1.2"/>
      <path d="M7 10 L5 8" stroke-width="1"/>
      <path d="M7 10 L9 8" stroke-width="1"/>
      <path d="M7.2 12 L5.4 10.4" stroke-width="0.9"/>
      <path d="M7.2 12 L9 10.4" stroke-width="0.9"/>
      <path d="M7.4 14 L5.8 12.6" stroke-width="0.9"/>
      <path d="M7.4 14 L9 12.6" stroke-width="0.9"/>
      <path d="M12 22 L12 6" stroke-width="1.3"/>
      <path d="M12 6 L10 4" stroke-width="1"/>
      <path d="M12 6 L14 4" stroke-width="1"/>
      <path d="M12 8 L10 6.4" stroke-width="0.95"/>
      <path d="M12 8 L14 6.4" stroke-width="0.95"/>
      <path d="M12 10 L10 8.4" stroke-width="0.9"/>
      <path d="M12 10 L14 8.4" stroke-width="0.9"/>
      <path d="M12 12 L10.2 10.4" stroke-width="0.9"/>
      <path d="M12 12 L13.8 10.4" stroke-width="0.9"/>
      <path d="M16 22 C16 18 16.5 14 17 10" stroke-width="1.2"/>
      <path d="M17 10 L15 8" stroke-width="1"/>
      <path d="M17 10 L19 8" stroke-width="1"/>
      <path d="M16.8 12 L15 10.4" stroke-width="0.9"/>
      <path d="M16.8 12 L18.6 10.4" stroke-width="0.9"/>
      <path d="M16.6 14 L15 12.6" stroke-width="0.9"/>
      <path d="M16.6 14 L18.2 12.6" stroke-width="0.9"/>
    </g>
  </g>
  <text x="42" y="29"
        font-family="'Source Serif 4', 'Source Serif Pro', Georgia, serif"
        font-size="32" font-weight="500"
        letter-spacing="-0.5"
        fill="currentColor">agentplain</text>
</svg>
